G04*
G04 #@! TF.GenerationSoftware,Altium Limited,Altium Designer,22.8.2 (66)*
G04*
G04 Layer_Color=8421504*
%FSLAX44Y44*%
%MOMM*%
G71*
G04*
G04 #@! TF.SameCoordinates,4CF88A4D-708D-413D-9FA9-C7E86D45AB9B*
G04*
G04*
G04 #@! TF.FilePolarity,Positive*
G04*
G01*
G75*
%ADD16O,0.3000X1.4500*%
%ADD17O,1.4500X0.3000*%
D16*
X782560Y646650D02*
D03*
X777560D02*
D03*
X767560D02*
D03*
X772560D02*
D03*
X762560D02*
D03*
X802560D02*
D03*
X807560D02*
D03*
X812560D02*
D03*
X857560D02*
D03*
X852560D02*
D03*
X847560D02*
D03*
X842560D02*
D03*
X837560D02*
D03*
X832560D02*
D03*
X827560D02*
D03*
X822560D02*
D03*
X817560D02*
D03*
X797560D02*
D03*
X792560D02*
D03*
X787560D02*
D03*
X757560D02*
D03*
X752560D02*
D03*
X747560D02*
D03*
X742560D02*
D03*
X737560D02*
D03*
Y801150D02*
D03*
X742560D02*
D03*
X747560D02*
D03*
X752560D02*
D03*
X757560D02*
D03*
X762560D02*
D03*
X767560D02*
D03*
X772560D02*
D03*
X777560D02*
D03*
X782560D02*
D03*
X787560D02*
D03*
X792560D02*
D03*
X797560D02*
D03*
X802560D02*
D03*
X807560D02*
D03*
X812560D02*
D03*
X817560D02*
D03*
X822560D02*
D03*
X827560D02*
D03*
X832560D02*
D03*
X837560D02*
D03*
X842560D02*
D03*
X847560D02*
D03*
X852560D02*
D03*
X857560D02*
D03*
D17*
X720310Y663900D02*
D03*
Y668900D02*
D03*
Y673900D02*
D03*
Y678900D02*
D03*
Y683900D02*
D03*
Y688900D02*
D03*
Y693900D02*
D03*
Y698900D02*
D03*
Y703900D02*
D03*
Y708900D02*
D03*
Y713900D02*
D03*
Y718900D02*
D03*
Y723900D02*
D03*
Y728900D02*
D03*
Y733900D02*
D03*
Y738900D02*
D03*
Y743900D02*
D03*
Y748900D02*
D03*
Y753900D02*
D03*
Y758900D02*
D03*
Y763900D02*
D03*
Y768900D02*
D03*
Y773900D02*
D03*
Y778900D02*
D03*
Y783900D02*
D03*
X874810D02*
D03*
Y778900D02*
D03*
Y773900D02*
D03*
Y768900D02*
D03*
Y763900D02*
D03*
Y758900D02*
D03*
Y753900D02*
D03*
Y748900D02*
D03*
Y743900D02*
D03*
Y738900D02*
D03*
Y733900D02*
D03*
Y728900D02*
D03*
Y723900D02*
D03*
Y718900D02*
D03*
Y713900D02*
D03*
Y708900D02*
D03*
Y703900D02*
D03*
Y698900D02*
D03*
Y693900D02*
D03*
Y688900D02*
D03*
Y683900D02*
D03*
Y678900D02*
D03*
Y673900D02*
D03*
Y668900D02*
D03*
Y663900D02*
D03*
M02*
