G04*
G04 #@! TF.GenerationSoftware,Altium Limited,Altium Designer,22.8.2 (66)*
G04*
G04 Layer_Physical_Order=1*
G04 Layer_Color=255*
%FSLAX44Y44*%
%MOMM*%
G71*
G04*
G04 #@! TF.SameCoordinates,4CF88A4D-708D-413D-9FA9-C7E86D45AB9B*
G04*
G04*
G04 #@! TF.FilePolarity,Positive*
G04*
G01*
G75*
%ADD10C,0.2000*%
%ADD12C,0.2500*%
%ADD15C,0.3000*%
%ADD16O,0.3000X1.4500*%
%ADD17O,1.4500X0.3000*%
%ADD38C,0.9000*%
%ADD39C,1.0000*%
%ADD40C,0.3810*%
%ADD41C,1.8000*%
%ADD42C,1.6000*%
%ADD43C,3.5000*%
%ADD44C,1.5000*%
%ADD45R,1.5000X1.5000*%
%ADD46C,6.0000*%
%ADD47C,2.3000*%
%ADD48C,2.0000*%
%ADD49R,1.5000X1.5000*%
%ADD50C,1.7500*%
%ADD51C,2.7000*%
%ADD52C,0.5000*%
%ADD53C,0.4900*%
%ADD54C,0.7000*%
%ADD55C,0.6000*%
%ADD56C,1.0000*%
%ADD57C,0.8000*%
%ADD58C,1.2700*%
G36*
X1456520Y938530D02*
X1332320D01*
Y940847D01*
X1331535Y943777D01*
X1330018Y946404D01*
X1327874Y948548D01*
X1325247Y950065D01*
X1322317Y950850D01*
X1319283D01*
X1316353Y950065D01*
X1313727Y948548D01*
X1311582Y946404D01*
X1310065Y943777D01*
X1309280Y940847D01*
Y938604D01*
X1309251Y938575D01*
X1309025Y938530D01*
X1258892D01*
X1252624Y932262D01*
X1251360Y932387D01*
X1251163Y932682D01*
X1232873Y950972D01*
X1231702Y951755D01*
X1230321Y952029D01*
X1201058D01*
X1200437Y952650D01*
X1198603Y953410D01*
X1196617D01*
X1194783Y952650D01*
X1193380Y951247D01*
X1192620Y949413D01*
Y947427D01*
X1193380Y945593D01*
X1194783Y944190D01*
X1196617Y943430D01*
X1198603D01*
X1200437Y944190D01*
X1201058Y944811D01*
X1228826D01*
X1245001Y928635D01*
Y924640D01*
X1244390Y924028D01*
Y839470D01*
X1225220Y820300D01*
X1082184D01*
X1062789Y839695D01*
Y867410D01*
X1062515Y868791D01*
X1061732Y869962D01*
X1051572Y880122D01*
X1050401Y880905D01*
X1049020Y881179D01*
X1031210D01*
X1030724Y882353D01*
X1031568Y883196D01*
X1033085Y885823D01*
X1033870Y888753D01*
Y891787D01*
X1033085Y894717D01*
X1031568Y897344D01*
X1029424Y899488D01*
X1026797Y901005D01*
X1023867Y901790D01*
X1020833D01*
X1017903Y901005D01*
X1015276Y899488D01*
X1013132Y897344D01*
X1011615Y894717D01*
X1010830Y891787D01*
Y888753D01*
X1011615Y885823D01*
X1013132Y883196D01*
X1013976Y882353D01*
X1013490Y881179D01*
X833321D01*
X828548Y885952D01*
Y1030714D01*
X829721Y1031200D01*
X830145Y1030776D01*
X833261Y1028695D01*
X836722Y1027261D01*
X840397Y1026530D01*
X844143D01*
X847818Y1027261D01*
X851279Y1028695D01*
X854395Y1030776D01*
X857044Y1033425D01*
X859125Y1036541D01*
X860559Y1040002D01*
X861290Y1043677D01*
Y1047423D01*
X860559Y1051098D01*
X859125Y1054559D01*
X857044Y1057674D01*
X854395Y1060324D01*
X851279Y1062405D01*
X847818Y1063839D01*
X844143Y1064570D01*
X840397D01*
X836722Y1063839D01*
X833261Y1062405D01*
X830145Y1060324D01*
X829721Y1059900D01*
X828548Y1060386D01*
Y1146048D01*
X833160Y1150660D01*
X1456520D01*
Y938530D01*
D02*
G37*
G36*
X1310065Y934883D02*
X1311582Y932256D01*
X1313727Y930112D01*
X1316353Y928595D01*
X1319283Y927810D01*
X1320800D01*
Y851799D01*
X1316141Y847141D01*
X1306830D01*
X1305839Y846943D01*
X1304999Y846382D01*
X1304437Y845542D01*
X1304240Y844551D01*
Y763631D01*
X1304301Y763324D01*
X1302769Y762914D01*
X1300370Y761529D01*
X1298412Y759570D01*
X1297027Y757171D01*
X1296310Y754496D01*
Y751726D01*
X1297027Y749050D01*
X1298412Y746651D01*
X1300370Y744693D01*
X1302769Y743308D01*
X1304301Y742897D01*
X1304240Y742591D01*
Y672190D01*
X1304301Y671883D01*
X1302769Y671473D01*
X1300370Y670088D01*
X1298412Y668129D01*
X1297027Y665731D01*
X1296310Y663055D01*
Y660285D01*
X1297027Y657609D01*
X1298412Y655211D01*
X1300370Y653252D01*
X1302769Y651867D01*
X1304301Y651457D01*
X1304240Y651150D01*
Y580750D01*
X1304301Y580443D01*
X1302769Y580033D01*
X1300370Y578648D01*
X1298412Y576689D01*
X1297027Y574291D01*
X1296310Y571615D01*
Y568845D01*
X1297027Y566169D01*
X1298412Y563771D01*
X1300370Y561812D01*
X1302769Y560427D01*
X1304301Y560017D01*
X1304240Y559710D01*
Y478790D01*
X1304437Y477799D01*
X1304558Y477619D01*
X1303879Y476349D01*
X1302379D01*
X1300159Y475429D01*
X1298459Y473730D01*
X1297540Y471510D01*
Y469107D01*
X1298459Y466887D01*
X1300159Y465188D01*
X1302379Y464269D01*
X1302745D01*
X1303231Y463095D01*
X1300122Y459987D01*
X1289140D01*
X1288355Y462917D01*
X1286838Y465544D01*
X1284693Y467688D01*
X1282067Y469205D01*
X1279137Y469990D01*
X1276103D01*
X1273173Y469205D01*
X1270546Y467688D01*
X1268402Y465544D01*
X1266885Y462917D01*
X1266100Y459987D01*
X1215853D01*
X1210310Y465530D01*
Y804111D01*
X1230843D01*
X1232224Y804385D01*
X1233395Y805168D01*
X1258582Y830355D01*
X1259365Y831526D01*
X1259639Y832907D01*
Y925488D01*
X1261822Y927670D01*
X1283062D01*
X1283683Y927049D01*
X1285517Y926289D01*
X1287503D01*
X1289337Y927049D01*
X1290740Y928453D01*
X1291500Y930287D01*
Y932272D01*
X1290740Y934106D01*
X1290176Y934670D01*
X1290702Y935940D01*
X1309025D01*
X1309275Y935990D01*
X1309530D01*
X1309756Y936035D01*
X1310065Y934883D01*
D02*
G37*
G36*
X1456520Y755701D02*
X1317350D01*
X1317043Y755640D01*
X1316633Y757171D01*
X1315248Y759570D01*
X1313289Y761529D01*
X1310891Y762914D01*
X1308215Y763631D01*
X1306830D01*
Y844551D01*
X1456520D01*
Y755701D01*
D02*
G37*
G36*
Y664260D02*
X1317350D01*
X1317043Y664199D01*
X1316633Y665731D01*
X1315248Y668129D01*
X1313289Y670088D01*
X1310891Y671473D01*
X1308215Y672190D01*
X1306830D01*
Y742591D01*
X1308215D01*
X1310891Y743308D01*
X1313289Y744693D01*
X1315248Y746651D01*
X1316633Y749050D01*
X1317350Y751726D01*
Y753111D01*
X1456520D01*
Y664260D01*
D02*
G37*
G36*
Y572820D02*
X1317350D01*
X1317043Y572759D01*
X1316633Y574291D01*
X1315248Y576689D01*
X1313289Y578648D01*
X1310891Y580033D01*
X1308215Y580750D01*
X1306830D01*
Y651150D01*
X1308215D01*
X1310891Y651867D01*
X1313289Y653252D01*
X1315248Y655211D01*
X1316633Y657609D01*
X1317350Y660285D01*
Y661670D01*
X1456520D01*
Y572820D01*
D02*
G37*
G36*
Y478790D02*
X1306830D01*
Y559710D01*
X1308215D01*
X1310891Y560427D01*
X1313289Y561812D01*
X1315248Y563771D01*
X1316633Y566169D01*
X1317350Y568845D01*
Y570230D01*
X1456520D01*
Y478790D01*
D02*
G37*
%LPC*%
G36*
X1201171Y1107280D02*
X1200790D01*
Y1096010D01*
X1212060D01*
Y1096391D01*
X1211205Y1099580D01*
X1209555Y1102440D01*
X1207220Y1104774D01*
X1204360Y1106425D01*
X1201171Y1107280D01*
D02*
G37*
G36*
X1198250D02*
X1197869D01*
X1194680Y1106425D01*
X1191820Y1104774D01*
X1189485Y1102440D01*
X1187835Y1099580D01*
X1186980Y1096391D01*
Y1096010D01*
X1198250D01*
Y1107280D01*
D02*
G37*
G36*
X1087501D02*
X1087120D01*
Y1096010D01*
X1098390D01*
Y1096391D01*
X1097535Y1099580D01*
X1095884Y1102440D01*
X1093550Y1104774D01*
X1090690Y1106425D01*
X1087501Y1107280D01*
D02*
G37*
G36*
X1084580D02*
X1084199D01*
X1081010Y1106425D01*
X1078150Y1104774D01*
X1075816Y1102440D01*
X1074165Y1099580D01*
X1073310Y1096391D01*
Y1096010D01*
X1084580D01*
Y1107280D01*
D02*
G37*
G36*
X1036701D02*
X1036320D01*
Y1096010D01*
X1047590D01*
Y1096391D01*
X1046735Y1099580D01*
X1045085Y1102440D01*
X1042750Y1104774D01*
X1039890Y1106425D01*
X1036701Y1107280D01*
D02*
G37*
G36*
X1033780D02*
X1033399D01*
X1030210Y1106425D01*
X1027350Y1104774D01*
X1025015Y1102440D01*
X1023365Y1099580D01*
X1022510Y1096391D01*
Y1096010D01*
X1033780D01*
Y1107280D01*
D02*
G37*
G36*
X971301D02*
X970920D01*
Y1096010D01*
X982190D01*
Y1096391D01*
X981335Y1099580D01*
X979685Y1102440D01*
X977350Y1104774D01*
X974490Y1106425D01*
X971301Y1107280D01*
D02*
G37*
G36*
X968380D02*
X967999D01*
X964810Y1106425D01*
X961950Y1104774D01*
X959615Y1102440D01*
X957965Y1099580D01*
X957110Y1096391D01*
Y1096010D01*
X968380D01*
Y1107280D01*
D02*
G37*
G36*
X920501D02*
X920120D01*
Y1096010D01*
X931390D01*
Y1096391D01*
X930535Y1099580D01*
X928885Y1102440D01*
X926550Y1104774D01*
X923690Y1106425D01*
X920501Y1107280D01*
D02*
G37*
G36*
X917580D02*
X917199D01*
X914010Y1106425D01*
X911150Y1104774D01*
X908816Y1102440D01*
X907165Y1099580D01*
X906310Y1096391D01*
Y1096010D01*
X917580D01*
Y1107280D01*
D02*
G37*
G36*
X1175637Y1106260D02*
X1172603D01*
X1169673Y1105475D01*
X1167047Y1103958D01*
X1164902Y1101814D01*
X1163385Y1099187D01*
X1162600Y1096257D01*
Y1093223D01*
X1163385Y1090293D01*
X1164902Y1087666D01*
X1167047Y1085522D01*
X1169673Y1084005D01*
X1172603Y1083220D01*
X1175637D01*
X1178567Y1084005D01*
X1181193Y1085522D01*
X1183338Y1087666D01*
X1184855Y1090293D01*
X1185640Y1093223D01*
Y1096257D01*
X1184855Y1099187D01*
X1183338Y1101814D01*
X1181193Y1103958D01*
X1178567Y1105475D01*
X1175637Y1106260D01*
D02*
G37*
G36*
X1112767D02*
X1109733D01*
X1106803Y1105475D01*
X1104176Y1103958D01*
X1102032Y1101814D01*
X1100515Y1099187D01*
X1099730Y1096257D01*
Y1093223D01*
X1100515Y1090293D01*
X1102032Y1087666D01*
X1104176Y1085522D01*
X1106803Y1084005D01*
X1109733Y1083220D01*
X1112767D01*
X1115697Y1084005D01*
X1118324Y1085522D01*
X1120468Y1087666D01*
X1121985Y1090293D01*
X1122770Y1093223D01*
Y1096257D01*
X1121985Y1099187D01*
X1120468Y1101814D01*
X1118324Y1103958D01*
X1115697Y1105475D01*
X1112767Y1106260D01*
D02*
G37*
G36*
X1061967D02*
X1058933D01*
X1056003Y1105475D01*
X1053376Y1103958D01*
X1051232Y1101814D01*
X1049715Y1099187D01*
X1048930Y1096257D01*
Y1093223D01*
X1049715Y1090293D01*
X1051232Y1087666D01*
X1053376Y1085522D01*
X1056003Y1084005D01*
X1058933Y1083220D01*
X1061967D01*
X1064897Y1084005D01*
X1067523Y1085522D01*
X1069668Y1087666D01*
X1071185Y1090293D01*
X1071970Y1093223D01*
Y1096257D01*
X1071185Y1099187D01*
X1069668Y1101814D01*
X1067523Y1103958D01*
X1064897Y1105475D01*
X1061967Y1106260D01*
D02*
G37*
G36*
X996567D02*
X993533D01*
X990603Y1105475D01*
X987977Y1103958D01*
X985832Y1101814D01*
X984315Y1099187D01*
X983530Y1096257D01*
Y1093223D01*
X984315Y1090293D01*
X985832Y1087666D01*
X987977Y1085522D01*
X990603Y1084005D01*
X993533Y1083220D01*
X996567D01*
X999497Y1084005D01*
X1002123Y1085522D01*
X1004268Y1087666D01*
X1005785Y1090293D01*
X1006570Y1093223D01*
Y1096257D01*
X1005785Y1099187D01*
X1004268Y1101814D01*
X1002123Y1103958D01*
X999497Y1105475D01*
X996567Y1106260D01*
D02*
G37*
G36*
X945767D02*
X942733D01*
X939803Y1105475D01*
X937177Y1103958D01*
X935032Y1101814D01*
X933515Y1099187D01*
X932730Y1096257D01*
Y1093223D01*
X933515Y1090293D01*
X935032Y1087666D01*
X937177Y1085522D01*
X939803Y1084005D01*
X942733Y1083220D01*
X945767D01*
X948697Y1084005D01*
X951323Y1085522D01*
X953468Y1087666D01*
X954985Y1090293D01*
X955770Y1093223D01*
Y1096257D01*
X954985Y1099187D01*
X953468Y1101814D01*
X951323Y1103958D01*
X948697Y1105475D01*
X945767Y1106260D01*
D02*
G37*
G36*
X1212060Y1093470D02*
X1200790D01*
Y1082200D01*
X1201171D01*
X1204360Y1083055D01*
X1207220Y1084706D01*
X1209555Y1087040D01*
X1211205Y1089900D01*
X1212060Y1093089D01*
Y1093470D01*
D02*
G37*
G36*
X1198250D02*
X1186980D01*
Y1093089D01*
X1187835Y1089900D01*
X1189485Y1087040D01*
X1191820Y1084706D01*
X1194680Y1083055D01*
X1197869Y1082200D01*
X1198250D01*
Y1093470D01*
D02*
G37*
G36*
X1098390D02*
X1087120D01*
Y1082200D01*
X1087501D01*
X1090690Y1083055D01*
X1093550Y1084706D01*
X1095884Y1087040D01*
X1097535Y1089900D01*
X1098390Y1093089D01*
Y1093470D01*
D02*
G37*
G36*
X1084580D02*
X1073310D01*
Y1093089D01*
X1074165Y1089900D01*
X1075816Y1087040D01*
X1078150Y1084706D01*
X1081010Y1083055D01*
X1084199Y1082200D01*
X1084580D01*
Y1093470D01*
D02*
G37*
G36*
X1047590D02*
X1036320D01*
Y1082200D01*
X1036701D01*
X1039890Y1083055D01*
X1042750Y1084706D01*
X1045085Y1087040D01*
X1046735Y1089900D01*
X1047590Y1093089D01*
Y1093470D01*
D02*
G37*
G36*
X1033780D02*
X1022510D01*
Y1093089D01*
X1023365Y1089900D01*
X1025015Y1087040D01*
X1027350Y1084706D01*
X1030210Y1083055D01*
X1033399Y1082200D01*
X1033780D01*
Y1093470D01*
D02*
G37*
G36*
X982190D02*
X970920D01*
Y1082200D01*
X971301D01*
X974490Y1083055D01*
X977350Y1084706D01*
X979685Y1087040D01*
X981335Y1089900D01*
X982190Y1093089D01*
Y1093470D01*
D02*
G37*
G36*
X968380D02*
X957110D01*
Y1093089D01*
X957965Y1089900D01*
X959615Y1087040D01*
X961950Y1084706D01*
X964810Y1083055D01*
X967999Y1082200D01*
X968380D01*
Y1093470D01*
D02*
G37*
G36*
X931390D02*
X920120D01*
Y1082200D01*
X920501D01*
X923690Y1083055D01*
X926550Y1084706D01*
X928885Y1087040D01*
X930535Y1089900D01*
X931390Y1093089D01*
Y1093470D01*
D02*
G37*
G36*
X917580D02*
X906310D01*
Y1093089D01*
X907165Y1089900D01*
X908816Y1087040D01*
X911150Y1084706D01*
X914010Y1083055D01*
X917199Y1082200D01*
X917580D01*
Y1093470D01*
D02*
G37*
G36*
X1308410Y1095280D02*
X1308100D01*
Y1080510D01*
X1322870D01*
Y1080820D01*
X1322254Y1083919D01*
X1321044Y1086838D01*
X1319289Y1089465D01*
X1317055Y1091699D01*
X1314428Y1093455D01*
X1311509Y1094664D01*
X1308410Y1095280D01*
D02*
G37*
G36*
X1305560D02*
X1305250D01*
X1302151Y1094664D01*
X1299232Y1093455D01*
X1296605Y1091699D01*
X1294371Y1089465D01*
X1292616Y1086838D01*
X1291406Y1083919D01*
X1290790Y1080820D01*
Y1080510D01*
X1305560D01*
Y1095280D01*
D02*
G37*
G36*
X1421591Y1142770D02*
X1416629D01*
X1411729Y1141994D01*
X1407010Y1140461D01*
X1402590Y1138208D01*
X1398576Y1135292D01*
X1395068Y1131784D01*
X1392152Y1127770D01*
X1389899Y1123350D01*
X1388366Y1118631D01*
X1387590Y1113731D01*
Y1108769D01*
X1388366Y1103869D01*
X1389899Y1099150D01*
X1392152Y1094730D01*
X1395068Y1090716D01*
X1398576Y1087208D01*
X1402590Y1084292D01*
X1407010Y1082039D01*
X1411729Y1080506D01*
X1416629Y1079730D01*
X1421591D01*
X1426491Y1080506D01*
X1431210Y1082039D01*
X1435630Y1084292D01*
X1439644Y1087208D01*
X1443152Y1090716D01*
X1446068Y1094730D01*
X1448321Y1099150D01*
X1449854Y1103869D01*
X1450630Y1108769D01*
Y1113731D01*
X1449854Y1118631D01*
X1448321Y1123350D01*
X1446068Y1127770D01*
X1443152Y1131784D01*
X1439644Y1135292D01*
X1435630Y1138208D01*
X1431210Y1140461D01*
X1426491Y1141994D01*
X1421591Y1142770D01*
D02*
G37*
G36*
X1257509Y1094260D02*
X1254551D01*
X1251649Y1093683D01*
X1248915Y1092551D01*
X1246455Y1090907D01*
X1244363Y1088815D01*
X1242719Y1086355D01*
X1241587Y1083621D01*
X1241010Y1080719D01*
Y1077761D01*
X1241587Y1074859D01*
X1242719Y1072125D01*
X1244363Y1069665D01*
X1246455Y1067573D01*
X1248915Y1065929D01*
X1251649Y1064797D01*
X1254551Y1064220D01*
X1257509D01*
X1260411Y1064797D01*
X1263145Y1065929D01*
X1265605Y1067573D01*
X1267697Y1069665D01*
X1269341Y1072125D01*
X1270473Y1074859D01*
X1271050Y1077761D01*
Y1080719D01*
X1270473Y1083621D01*
X1269341Y1086355D01*
X1267697Y1088815D01*
X1265605Y1090907D01*
X1263145Y1092551D01*
X1260411Y1093683D01*
X1257509Y1094260D01*
D02*
G37*
G36*
X1322870Y1077970D02*
X1308100D01*
Y1063200D01*
X1308410D01*
X1311509Y1063816D01*
X1314428Y1065025D01*
X1317055Y1066781D01*
X1319289Y1069015D01*
X1321044Y1071642D01*
X1322254Y1074561D01*
X1322870Y1077660D01*
Y1077970D01*
D02*
G37*
G36*
X1305560D02*
X1290790D01*
Y1077660D01*
X1291406Y1074561D01*
X1292616Y1071642D01*
X1294371Y1069015D01*
X1296605Y1066781D01*
X1299232Y1065025D01*
X1302151Y1063816D01*
X1305250Y1063200D01*
X1305560D01*
Y1077970D01*
D02*
G37*
G36*
X1427353Y1055464D02*
X1426972D01*
Y1044194D01*
X1438242D01*
Y1044575D01*
X1437387Y1047764D01*
X1435737Y1050624D01*
X1433402Y1052959D01*
X1430542Y1054609D01*
X1427353Y1055464D01*
D02*
G37*
G36*
X1424432D02*
X1424051D01*
X1420862Y1054609D01*
X1418002Y1052959D01*
X1415668Y1050624D01*
X1414017Y1047764D01*
X1413162Y1044575D01*
Y1044194D01*
X1424432D01*
Y1055464D01*
D02*
G37*
G36*
X1438242Y1041654D02*
X1425702D01*
X1413162D01*
Y1041273D01*
X1414017Y1038084D01*
X1415668Y1035224D01*
X1418002Y1032889D01*
X1420862Y1031239D01*
X1422195Y1030881D01*
Y1029567D01*
X1420862Y1029209D01*
X1418002Y1027559D01*
X1415668Y1025224D01*
X1414017Y1022364D01*
X1413162Y1019175D01*
Y1018794D01*
X1425702D01*
X1438242D01*
Y1019175D01*
X1437387Y1022364D01*
X1435737Y1025224D01*
X1433402Y1027559D01*
X1430542Y1029209D01*
X1429209Y1029567D01*
Y1030881D01*
X1430542Y1031239D01*
X1433402Y1032889D01*
X1435737Y1035224D01*
X1437387Y1038084D01*
X1438242Y1041273D01*
Y1041654D01*
D02*
G37*
G36*
X1131570Y1025060D02*
X1131189D01*
Y1013790D01*
X1142459D01*
Y1014171D01*
X1141605Y1017360D01*
X1139954Y1020220D01*
X1137619Y1022554D01*
X1134759Y1024205D01*
X1131570Y1025060D01*
D02*
G37*
G36*
X1128649D02*
X1128268D01*
X1125079Y1024205D01*
X1122219Y1022554D01*
X1119885Y1020220D01*
X1118234Y1017360D01*
X1117379Y1014171D01*
Y1013790D01*
X1128649D01*
Y1025060D01*
D02*
G37*
G36*
X1050537Y1033870D02*
X1047503D01*
X1044573Y1033085D01*
X1041946Y1031568D01*
X1039802Y1029424D01*
X1038285Y1026797D01*
X1037500Y1023867D01*
Y1020833D01*
X1038285Y1017903D01*
X1039802Y1015276D01*
X1041946Y1013132D01*
X1044573Y1011615D01*
X1047503Y1010830D01*
X1050537D01*
X1053467Y1011615D01*
X1056094Y1013132D01*
X1058238Y1015276D01*
X1059755Y1017903D01*
X1060540Y1020833D01*
Y1023867D01*
X1059755Y1026797D01*
X1058238Y1029424D01*
X1056094Y1031568D01*
X1053467Y1033085D01*
X1050537Y1033870D01*
D02*
G37*
G36*
X1438242Y1016254D02*
X1426972D01*
Y1004984D01*
X1427353D01*
X1430542Y1005839D01*
X1433402Y1007489D01*
X1435737Y1009824D01*
X1437387Y1012684D01*
X1438242Y1015873D01*
Y1016254D01*
D02*
G37*
G36*
X1424432D02*
X1413162D01*
Y1015873D01*
X1414017Y1012684D01*
X1415668Y1009824D01*
X1418002Y1007489D01*
X1420862Y1005839D01*
X1424051Y1004984D01*
X1424432D01*
Y1016254D01*
D02*
G37*
G36*
X1142459Y1011250D02*
X1131189D01*
Y999980D01*
X1131570D01*
X1134759Y1000835D01*
X1137619Y1002486D01*
X1139954Y1004820D01*
X1141605Y1007680D01*
X1142459Y1010869D01*
Y1011250D01*
D02*
G37*
G36*
X1128649D02*
X1117379D01*
Y1010869D01*
X1118234Y1007680D01*
X1119885Y1004820D01*
X1122219Y1002486D01*
X1125079Y1000835D01*
X1128268Y999980D01*
X1128649D01*
Y1011250D01*
D02*
G37*
G36*
X1322451Y1001870D02*
X1322070D01*
Y990600D01*
X1333340D01*
Y990981D01*
X1332485Y994170D01*
X1330835Y997030D01*
X1328500Y999364D01*
X1325640Y1001015D01*
X1322451Y1001870D01*
D02*
G37*
G36*
X1319530D02*
X1319149D01*
X1315960Y1001015D01*
X1313100Y999364D01*
X1310766Y997030D01*
X1309115Y994170D01*
X1308260Y990981D01*
Y990600D01*
X1319530D01*
Y1001870D01*
D02*
G37*
G36*
X1050537Y1008470D02*
X1047503D01*
X1044573Y1007685D01*
X1041946Y1006168D01*
X1039802Y1004024D01*
X1038285Y1001397D01*
X1037500Y998467D01*
Y995433D01*
X1038285Y992503D01*
X1039802Y989876D01*
X1041946Y987732D01*
X1044573Y986215D01*
X1047503Y985430D01*
X1050537D01*
X1053467Y986215D01*
X1056094Y987732D01*
X1058238Y989876D01*
X1059755Y992503D01*
X1060540Y995433D01*
Y998467D01*
X1059755Y1001397D01*
X1058238Y1004024D01*
X1056094Y1006168D01*
X1053467Y1007685D01*
X1050537Y1008470D01*
D02*
G37*
G36*
X1299505Y985042D02*
X1297500D01*
X1295647Y984274D01*
X1295002Y983629D01*
X1294357Y984274D01*
X1292505Y985042D01*
X1290500D01*
X1288647Y984274D01*
X1288002Y983629D01*
X1287357Y984274D01*
X1285505Y985042D01*
X1283500D01*
X1281647Y984274D01*
X1281002Y983629D01*
X1280357Y984274D01*
X1278505Y985042D01*
X1276500D01*
X1274647Y984274D01*
X1274002Y983629D01*
X1273357Y984274D01*
X1271505Y985042D01*
X1269500D01*
X1267647Y984274D01*
X1266229Y982857D01*
X1265462Y981004D01*
Y978999D01*
X1265879Y977992D01*
X1264147Y977274D01*
X1262729Y975856D01*
X1261962Y974004D01*
Y971999D01*
X1262729Y970147D01*
X1264147Y968729D01*
X1265879Y968011D01*
X1265462Y967004D01*
Y964999D01*
X1266229Y963147D01*
X1267647Y961729D01*
X1269500Y960962D01*
X1271505D01*
X1273357Y961729D01*
X1274002Y962374D01*
X1274647Y961729D01*
X1276500Y960962D01*
X1278505D01*
X1280357Y961729D01*
X1281002Y962374D01*
X1281647Y961729D01*
X1283500Y960962D01*
X1285505D01*
X1287357Y961729D01*
X1288002Y962374D01*
X1288647Y961729D01*
X1290500Y960962D01*
X1292505D01*
X1294357Y961729D01*
X1295002Y962374D01*
X1295647Y961729D01*
X1297500Y960962D01*
X1299505D01*
X1301357Y961729D01*
X1302775Y963147D01*
X1303542Y964999D01*
Y967004D01*
X1302775Y968857D01*
X1301357Y970274D01*
X1299625Y970992D01*
X1300042Y971999D01*
Y974004D01*
X1299625Y975011D01*
X1301357Y975729D01*
X1302775Y977147D01*
X1303542Y978999D01*
Y981004D01*
X1302775Y982857D01*
X1301357Y984274D01*
X1299505Y985042D01*
D02*
G37*
G36*
X1427219Y1003644D02*
X1424185D01*
X1421255Y1002859D01*
X1418629Y1001342D01*
X1416484Y999197D01*
X1414967Y996571D01*
X1414182Y993641D01*
Y990607D01*
X1414967Y987677D01*
X1416484Y985051D01*
X1418629Y982906D01*
X1421255Y981389D01*
X1424185Y980604D01*
X1427219D01*
X1430149Y981389D01*
X1432776Y982906D01*
X1434920Y985051D01*
X1436437Y987677D01*
X1437222Y990607D01*
Y993641D01*
X1436437Y996571D01*
X1434920Y999197D01*
X1432776Y1001342D01*
X1430149Y1002859D01*
X1427219Y1003644D01*
D02*
G37*
G36*
X1333340Y988060D02*
X1322070D01*
Y976790D01*
X1322451D01*
X1325640Y977645D01*
X1328500Y979296D01*
X1330835Y981630D01*
X1332485Y984490D01*
X1333340Y987679D01*
Y988060D01*
D02*
G37*
G36*
X1319530D02*
X1308260D01*
Y987679D01*
X1309115Y984490D01*
X1310766Y981630D01*
X1313100Y979296D01*
X1315960Y977645D01*
X1319149Y976790D01*
X1319530D01*
Y988060D01*
D02*
G37*
G36*
X1050671Y984090D02*
X1050290D01*
Y972820D01*
X1061560D01*
Y973201D01*
X1060705Y976390D01*
X1059054Y979250D01*
X1056720Y981584D01*
X1053860Y983235D01*
X1050671Y984090D01*
D02*
G37*
G36*
X1047750D02*
X1047369D01*
X1044180Y983235D01*
X1041320Y981584D01*
X1038986Y979250D01*
X1037335Y976390D01*
X1036480Y973201D01*
Y972820D01*
X1047750D01*
Y984090D01*
D02*
G37*
G36*
X1014630Y989480D02*
X1012290D01*
X1010029Y988874D01*
X1008001Y987704D01*
X1006346Y986049D01*
X1005176Y984021D01*
X1004570Y981760D01*
Y979420D01*
X1005176Y977159D01*
X1006346Y975131D01*
X1008001Y973476D01*
X1010029Y972306D01*
X1012290Y971700D01*
X1014630D01*
X1016891Y972306D01*
X1018919Y973476D01*
X1020574Y975131D01*
X1021744Y977159D01*
X1022350Y979420D01*
Y981760D01*
X1021744Y984021D01*
X1020574Y986049D01*
X1018919Y987704D01*
X1016891Y988874D01*
X1014630Y989480D01*
D02*
G37*
G36*
X971722D02*
X969381D01*
X967120Y988874D01*
X965093Y987704D01*
X963438Y986049D01*
X962267Y984021D01*
X961661Y981760D01*
Y979420D01*
X962267Y977159D01*
X963438Y975131D01*
X965093Y973476D01*
X967120Y972306D01*
X969381Y971700D01*
X971722D01*
X973983Y972306D01*
X976010Y973476D01*
X977665Y975131D01*
X978836Y977159D01*
X979441Y979420D01*
Y981760D01*
X978836Y984021D01*
X977665Y986049D01*
X976010Y987704D01*
X973983Y988874D01*
X971722Y989480D01*
D02*
G37*
G36*
X929100D02*
X926760D01*
X924499Y988874D01*
X922471Y987704D01*
X920816Y986049D01*
X919646Y984021D01*
X919040Y981760D01*
Y979420D01*
X919646Y977159D01*
X920816Y975131D01*
X922471Y973476D01*
X924499Y972306D01*
X926760Y971700D01*
X929100D01*
X931361Y972306D01*
X933389Y973476D01*
X935044Y975131D01*
X936214Y977159D01*
X936820Y979420D01*
Y981760D01*
X936214Y984021D01*
X935044Y986049D01*
X933389Y987704D01*
X931361Y988874D01*
X929100Y989480D01*
D02*
G37*
G36*
X885458D02*
X883118D01*
X880856Y988874D01*
X878829Y987704D01*
X877174Y986049D01*
X876004Y984021D01*
X875398Y981760D01*
Y979420D01*
X876004Y977159D01*
X877174Y975131D01*
X878829Y973476D01*
X880856Y972306D01*
X883118Y971700D01*
X885458D01*
X887719Y972306D01*
X889746Y973476D01*
X891402Y975131D01*
X892572Y977159D01*
X893178Y979420D01*
Y981760D01*
X892572Y984021D01*
X891402Y986049D01*
X889746Y987704D01*
X887719Y988874D01*
X885458Y989480D01*
D02*
G37*
G36*
X1227074Y996010D02*
X1223646D01*
X1220334Y995123D01*
X1217365Y993409D01*
X1214941Y990984D01*
X1213227Y988016D01*
X1212340Y984704D01*
Y981276D01*
X1213227Y977964D01*
X1214941Y974995D01*
X1217365Y972571D01*
X1220334Y970857D01*
X1223646Y969970D01*
X1227074D01*
X1230386Y970857D01*
X1233354Y972571D01*
X1235779Y974995D01*
X1237493Y977964D01*
X1238380Y981276D01*
Y984704D01*
X1237493Y988016D01*
X1235779Y990984D01*
X1233354Y993409D01*
X1230386Y995123D01*
X1227074Y996010D01*
D02*
G37*
G36*
X1061560Y970280D02*
X1050290D01*
Y959010D01*
X1050671D01*
X1053860Y959865D01*
X1056720Y961516D01*
X1059054Y963850D01*
X1060705Y966710D01*
X1061560Y969899D01*
Y970280D01*
D02*
G37*
G36*
X1047750D02*
X1036480D01*
Y969899D01*
X1037335Y966710D01*
X1038986Y963850D01*
X1041320Y961516D01*
X1044180Y959865D01*
X1047369Y959010D01*
X1047750D01*
Y970280D01*
D02*
G37*
G36*
X976352Y966580D02*
X974367D01*
X972533Y965820D01*
X971130Y964417D01*
X970370Y962583D01*
Y960597D01*
X971130Y958763D01*
X972533Y957360D01*
X974367Y956600D01*
X976352D01*
X978186Y957360D01*
X979590Y958763D01*
X980350Y960597D01*
Y962583D01*
X979590Y964417D01*
X978186Y965820D01*
X976352Y966580D01*
D02*
G37*
G36*
X933596D02*
X931611D01*
X929777Y965820D01*
X928373Y964417D01*
X927613Y962583D01*
Y960597D01*
X928373Y958763D01*
X929777Y957360D01*
X931611Y956600D01*
X933596D01*
X935430Y957360D01*
X936834Y958763D01*
X937593Y960597D01*
Y962583D01*
X936834Y964417D01*
X935430Y965820D01*
X933596Y966580D01*
D02*
G37*
G36*
X890839D02*
X888854D01*
X887020Y965820D01*
X885616Y964417D01*
X884857Y962583D01*
Y960597D01*
X885616Y958763D01*
X887020Y957360D01*
X888854Y956600D01*
X890839D01*
X892673Y957360D01*
X894077Y958763D01*
X894837Y960597D01*
Y962583D01*
X894077Y964417D01*
X892673Y965820D01*
X890839Y966580D01*
D02*
G37*
G36*
X848083D02*
X846097D01*
X844263Y965820D01*
X842860Y964417D01*
X842100Y962583D01*
Y960597D01*
X842860Y958763D01*
X844263Y957360D01*
X846097Y956600D01*
X848083D01*
X849917Y957360D01*
X851320Y958763D01*
X852080Y960597D01*
Y962583D01*
X851320Y964417D01*
X849917Y965820D01*
X848083Y966580D01*
D02*
G37*
G36*
X1427219Y978244D02*
X1424185D01*
X1421255Y977459D01*
X1418629Y975942D01*
X1416484Y973798D01*
X1414967Y971171D01*
X1414182Y968241D01*
Y965207D01*
X1414967Y962277D01*
X1416484Y959650D01*
X1418629Y957506D01*
X1421255Y955989D01*
X1424185Y955204D01*
X1427219D01*
X1430149Y955989D01*
X1432776Y957506D01*
X1434920Y959650D01*
X1436437Y962277D01*
X1437222Y965207D01*
Y968241D01*
X1436437Y971171D01*
X1434920Y973798D01*
X1432776Y975942D01*
X1430149Y977459D01*
X1427219Y978244D01*
D02*
G37*
G36*
X1131436Y974040D02*
X1128402D01*
X1125472Y973255D01*
X1122846Y971738D01*
X1120701Y969594D01*
X1119184Y966967D01*
X1118399Y964037D01*
Y961003D01*
X1119184Y958073D01*
X1120701Y955446D01*
X1122846Y953302D01*
X1125472Y951785D01*
X1128402Y951000D01*
X1131436D01*
X1134366Y951785D01*
X1136993Y953302D01*
X1139137Y955446D01*
X1140654Y958073D01*
X1141439Y961003D01*
Y964037D01*
X1140654Y966967D01*
X1139137Y969594D01*
X1136993Y971738D01*
X1134366Y973255D01*
X1131436Y974040D01*
D02*
G37*
G36*
X977074Y948930D02*
X973646D01*
X970334Y948043D01*
X967365Y946329D01*
X964941Y943904D01*
X963227Y940936D01*
X962340Y937624D01*
Y934196D01*
X963227Y930884D01*
X964941Y927915D01*
X967365Y925491D01*
X970334Y923777D01*
X973646Y922890D01*
X977074D01*
X980385Y923777D01*
X983354Y925491D01*
X985779Y927915D01*
X987493Y930884D01*
X988380Y934196D01*
Y937624D01*
X987493Y940936D01*
X985779Y943904D01*
X983354Y946329D01*
X980385Y948043D01*
X977074Y948930D01*
D02*
G37*
G36*
X934317D02*
X930889D01*
X927578Y948043D01*
X924609Y946329D01*
X922185Y943904D01*
X920471Y940936D01*
X919583Y937624D01*
Y934196D01*
X920471Y930884D01*
X922185Y927915D01*
X924609Y925491D01*
X927578Y923777D01*
X930889Y922890D01*
X934317D01*
X937629Y923777D01*
X940598Y925491D01*
X943022Y927915D01*
X944736Y930884D01*
X945623Y934196D01*
Y937624D01*
X944736Y940936D01*
X943022Y943904D01*
X940598Y946329D01*
X937629Y948043D01*
X934317Y948930D01*
D02*
G37*
G36*
X891561D02*
X888132D01*
X884821Y948043D01*
X881852Y946329D01*
X879428Y943904D01*
X877714Y940936D01*
X876827Y937624D01*
Y934196D01*
X877714Y930884D01*
X879428Y927915D01*
X881852Y925491D01*
X884821Y923777D01*
X888132Y922890D01*
X891561D01*
X894872Y923777D01*
X897841Y925491D01*
X900265Y927915D01*
X901979Y930884D01*
X902867Y934196D01*
Y937624D01*
X901979Y940936D01*
X900265Y943904D01*
X897841Y946329D01*
X894872Y948043D01*
X891561Y948930D01*
D02*
G37*
G36*
X848804D02*
X845376D01*
X842065Y948043D01*
X839096Y946329D01*
X836671Y943904D01*
X834957Y940936D01*
X834070Y937624D01*
Y934196D01*
X834957Y930884D01*
X836671Y927915D01*
X839096Y925491D01*
X842065Y923777D01*
X845376Y922890D01*
X848804D01*
X852115Y923777D01*
X855085Y925491D01*
X857509Y927915D01*
X859223Y930884D01*
X860110Y934196D01*
Y937624D01*
X859223Y940936D01*
X857509Y943904D01*
X855085Y946329D01*
X852115Y948043D01*
X848804Y948930D01*
D02*
G37*
G36*
X1044642Y922080D02*
X1042657D01*
X1040823Y921320D01*
X1039420Y919917D01*
X1038660Y918083D01*
Y916097D01*
X1039420Y914263D01*
X1040823Y912860D01*
X1042657Y912100D01*
X1044642D01*
X1046477Y912860D01*
X1047880Y914263D01*
X1048640Y916097D01*
Y918083D01*
X1047880Y919917D01*
X1046477Y921320D01*
X1044642Y922080D01*
D02*
G37*
G36*
X1150211Y878687D02*
X1148489D01*
X1146826Y878241D01*
X1145334Y877380D01*
X1144117Y876162D01*
X1143256Y874671D01*
X1142810Y873008D01*
Y871286D01*
X1143256Y869622D01*
X1144117Y868131D01*
X1145334Y866914D01*
X1146826Y866052D01*
X1148489Y865607D01*
X1150211D01*
X1151874Y866052D01*
X1153366Y866914D01*
X1154583Y868131D01*
X1155444Y869622D01*
X1155890Y871286D01*
Y873008D01*
X1155444Y874671D01*
X1154583Y876162D01*
X1153366Y877380D01*
X1151874Y878241D01*
X1150211Y878687D01*
D02*
G37*
G36*
X1138773Y840500D02*
X1136787D01*
X1134954Y839740D01*
X1133550Y838337D01*
X1132790Y836503D01*
Y834517D01*
X1133550Y832683D01*
X1134954Y831280D01*
X1136787Y830520D01*
X1138773D01*
X1140607Y831280D01*
X1142010Y832683D01*
X1142770Y834517D01*
Y836503D01*
X1142010Y838337D01*
X1140607Y839740D01*
X1138773Y840500D01*
D02*
G37*
G36*
X1273504Y788791D02*
X1271499D01*
X1269647Y788024D01*
X1268752Y787129D01*
X1267857Y788024D01*
X1266004Y788791D01*
X1263999D01*
X1262147Y788024D01*
X1261252Y787129D01*
X1260357Y788024D01*
X1258504Y788791D01*
X1256499D01*
X1254647Y788024D01*
X1253229Y786606D01*
X1252462Y784754D01*
Y782749D01*
X1253229Y780896D01*
X1254124Y780001D01*
X1253229Y779106D01*
X1252462Y777254D01*
Y775249D01*
X1253229Y773396D01*
X1254647Y771978D01*
X1256499Y771211D01*
X1258504D01*
X1260357Y771978D01*
X1261252Y772874D01*
X1262147Y771978D01*
X1263999Y771211D01*
X1266004D01*
X1267857Y771978D01*
X1268752Y772874D01*
X1269647Y771978D01*
X1271499Y771211D01*
X1273504D01*
X1275357Y771978D01*
X1276774Y773396D01*
X1277542Y775249D01*
Y777254D01*
X1276774Y779106D01*
X1275879Y780001D01*
X1276774Y780896D01*
X1277542Y782749D01*
Y784754D01*
X1276774Y786606D01*
X1275357Y788024D01*
X1273504Y788791D01*
D02*
G37*
G36*
X1220810Y759151D02*
X1218407D01*
X1216187Y758231D01*
X1214488Y756532D01*
X1213569Y754312D01*
Y751909D01*
X1214488Y749689D01*
X1216187Y747990D01*
X1218407Y747071D01*
X1220810D01*
X1223030Y747990D01*
X1224729Y749689D01*
X1225649Y751909D01*
Y754312D01*
X1224729Y756532D01*
X1223030Y758231D01*
X1220810Y759151D01*
D02*
G37*
G36*
X1273504Y697041D02*
X1271499D01*
X1269647Y696274D01*
X1268752Y695379D01*
X1267857Y696274D01*
X1266004Y697041D01*
X1263999D01*
X1262147Y696274D01*
X1261252Y695379D01*
X1260357Y696274D01*
X1258504Y697041D01*
X1256499D01*
X1254647Y696274D01*
X1253229Y694856D01*
X1252462Y693003D01*
Y690998D01*
X1253229Y689146D01*
X1254124Y688251D01*
X1253229Y687356D01*
X1252462Y685503D01*
Y683498D01*
X1253229Y681646D01*
X1254647Y680228D01*
X1256499Y679461D01*
X1258504D01*
X1260357Y680228D01*
X1261252Y681123D01*
X1262147Y680228D01*
X1263999Y679461D01*
X1266004D01*
X1267857Y680228D01*
X1268752Y681123D01*
X1269647Y680228D01*
X1271499Y679461D01*
X1273504D01*
X1275357Y680228D01*
X1276774Y681646D01*
X1277542Y683498D01*
Y685503D01*
X1276774Y687356D01*
X1275879Y688251D01*
X1276774Y689146D01*
X1277542Y690998D01*
Y693003D01*
X1276774Y694856D01*
X1275357Y696274D01*
X1273504Y697041D01*
D02*
G37*
G36*
X1220810Y667710D02*
X1218407D01*
X1216187Y666790D01*
X1214488Y665091D01*
X1213569Y662871D01*
Y660469D01*
X1214488Y658249D01*
X1216187Y656550D01*
X1218407Y655630D01*
X1220810D01*
X1223030Y656550D01*
X1224729Y658249D01*
X1225649Y660469D01*
Y662871D01*
X1224729Y665091D01*
X1223030Y666790D01*
X1220810Y667710D01*
D02*
G37*
G36*
X1274004Y605041D02*
X1271999D01*
X1270147Y604273D01*
X1269252Y603378D01*
X1268357Y604273D01*
X1266504Y605041D01*
X1264499D01*
X1262647Y604273D01*
X1261752Y603378D01*
X1260857Y604273D01*
X1259004Y605041D01*
X1256999D01*
X1255147Y604273D01*
X1253729Y602856D01*
X1252962Y601003D01*
Y598998D01*
X1253729Y597146D01*
X1254624Y596251D01*
X1253729Y595356D01*
X1252962Y593503D01*
Y591498D01*
X1253729Y589646D01*
X1255147Y588228D01*
X1256999Y587461D01*
X1259004D01*
X1260857Y588228D01*
X1261752Y589123D01*
X1262647Y588228D01*
X1264499Y587461D01*
X1266504D01*
X1268357Y588228D01*
X1269252Y589123D01*
X1270147Y588228D01*
X1271999Y587461D01*
X1274004D01*
X1275857Y588228D01*
X1277274Y589646D01*
X1278042Y591498D01*
Y593503D01*
X1277274Y595356D01*
X1276379Y596251D01*
X1277274Y597146D01*
X1278042Y598998D01*
Y601003D01*
X1277274Y602856D01*
X1275857Y604273D01*
X1274004Y605041D01*
D02*
G37*
G36*
X1220810Y576270D02*
X1218407D01*
X1216187Y575350D01*
X1214488Y573651D01*
X1213569Y571431D01*
Y569029D01*
X1214488Y566809D01*
X1216187Y565109D01*
X1218407Y564190D01*
X1220810D01*
X1223030Y565109D01*
X1224729Y566809D01*
X1225649Y569029D01*
Y571431D01*
X1224729Y573651D01*
X1223030Y575350D01*
X1220810Y576270D01*
D02*
G37*
G36*
X1274004Y515041D02*
X1271999D01*
X1270147Y514273D01*
X1269252Y513378D01*
X1268357Y514273D01*
X1266504Y515041D01*
X1264499D01*
X1262647Y514273D01*
X1261752Y513378D01*
X1260857Y514273D01*
X1259004Y515041D01*
X1256999D01*
X1255147Y514273D01*
X1253729Y512856D01*
X1252962Y511003D01*
Y508998D01*
X1253729Y507146D01*
X1254624Y506251D01*
X1253729Y505356D01*
X1252962Y503503D01*
Y501498D01*
X1253729Y499646D01*
X1255147Y498228D01*
X1256999Y497461D01*
X1259004D01*
X1260857Y498228D01*
X1261752Y499123D01*
X1262647Y498228D01*
X1264499Y497461D01*
X1266504D01*
X1268357Y498228D01*
X1269252Y499123D01*
X1270147Y498228D01*
X1271999Y497461D01*
X1274004D01*
X1275857Y498228D01*
X1277274Y499646D01*
X1278042Y501498D01*
Y503503D01*
X1277274Y505356D01*
X1276379Y506251D01*
X1277274Y507146D01*
X1278042Y508998D01*
Y511003D01*
X1277274Y512856D01*
X1275857Y514273D01*
X1274004Y515041D01*
D02*
G37*
G36*
X1427097Y715190D02*
X1424063D01*
X1421133Y714405D01*
X1418506Y712888D01*
X1416362Y710743D01*
X1414845Y708117D01*
X1414060Y705187D01*
Y702153D01*
X1414845Y699223D01*
X1416362Y696597D01*
X1418506Y694452D01*
X1421133Y692935D01*
X1424063Y692150D01*
X1427097D01*
X1430027Y692935D01*
X1432654Y694452D01*
X1434798Y696597D01*
X1436315Y699223D01*
X1437100Y702153D01*
Y705187D01*
X1436315Y708117D01*
X1434798Y710743D01*
X1432654Y712888D01*
X1430027Y714405D01*
X1427097Y715190D01*
D02*
G37*
G36*
Y633910D02*
X1424063D01*
X1421133Y633125D01*
X1418506Y631608D01*
X1416362Y629464D01*
X1414845Y626837D01*
X1414060Y623907D01*
Y620873D01*
X1414845Y617943D01*
X1416362Y615317D01*
X1418506Y613172D01*
X1421133Y611655D01*
X1424063Y610870D01*
X1427097D01*
X1430027Y611655D01*
X1432654Y613172D01*
X1434798Y615317D01*
X1436315Y617943D01*
X1437100Y620873D01*
Y623907D01*
X1436315Y626837D01*
X1434798Y629464D01*
X1432654Y631608D01*
X1430027Y633125D01*
X1427097Y633910D01*
D02*
G37*
%LPD*%
D10*
X671153Y1062750D02*
X725170Y1008733D01*
X669082Y1057750D02*
X720170Y1006662D01*
X847560Y831850D02*
X853548Y837838D01*
Y858628D02*
X861060Y866140D01*
X853548Y837838D02*
Y858628D01*
X806418Y841788D02*
X827205D01*
X802894Y845312D02*
X806418Y841788D01*
X802894Y845312D02*
Y872998D01*
X807466Y877570D01*
X744300Y915590D02*
X755800Y904090D01*
X791360D02*
X793473Y901977D01*
X755800Y904090D02*
X791360D01*
X793476Y909046D02*
X798322Y904199D01*
Y840699D02*
Y904199D01*
Y840699D02*
X812560Y826461D01*
X793473Y838477D02*
X807560Y824390D01*
X793473Y838477D02*
Y901977D01*
X827205Y841788D02*
X832560Y836433D01*
X822560Y801150D02*
Y835990D01*
X807466Y877570D02*
X1049020D01*
X842560Y633610D02*
Y646650D01*
X856843Y619328D02*
X858894D01*
X842560Y633610D02*
X856843Y619328D01*
X855472Y628904D02*
X864371D01*
X873947Y619328D01*
X817560D02*
Y646650D01*
X833248Y619328D02*
X834898D01*
X827560Y625016D02*
X833248Y619328D01*
X827560Y625016D02*
Y646650D01*
X822560Y622014D02*
Y646650D01*
Y622014D02*
X825246Y619328D01*
X839419Y563329D02*
X842772Y566682D01*
X832560Y630260D02*
X842772Y620048D01*
Y566682D02*
Y620048D01*
X847560Y563329D02*
Y621760D01*
X837560Y631760D02*
X847560Y621760D01*
X832560Y630260D02*
Y646650D01*
X837560Y631760D02*
Y646650D01*
X847560Y636816D02*
X855472Y628904D01*
X847560Y636816D02*
Y646650D01*
X852560Y638928D02*
X857250Y634238D01*
X873252D02*
X889000Y618490D01*
X857250Y634238D02*
X873252D01*
X852560Y638928D02*
Y646650D01*
X1256030Y926983D02*
X1260327Y931279D01*
X1286510D01*
X1256030Y832907D02*
Y926983D01*
X999490Y575310D02*
X1015210D01*
X1027050Y587150D01*
Y728090D01*
X1013460Y741680D02*
X1027050Y728090D01*
X938530Y741680D02*
X1013460D01*
X927100Y753110D02*
X938530Y741680D01*
X927100Y727710D02*
X937260Y737870D01*
X1011396D02*
X1022550Y726716D01*
X937260Y737870D02*
X1011396D01*
X1022550Y607918D02*
Y726716D01*
X1015342Y600710D02*
X1022550Y607918D01*
X999490Y600710D02*
X1015342D01*
X1078230Y807720D02*
X1230843D01*
X1256030Y832907D01*
X1248611Y834479D02*
Y930130D01*
X1230321Y948420D02*
X1248611Y930130D01*
X1228201Y814070D02*
X1248611Y834479D01*
X1083310Y814070D02*
X1228201D01*
X1052830Y833120D02*
X1078230Y807720D01*
X1052830Y833120D02*
Y862960D01*
X1059180Y838200D02*
Y867410D01*
X1049020Y877570D02*
X1059180Y867410D01*
Y838200D02*
X1083310Y814070D01*
X832560Y801150D02*
Y836433D01*
X943610Y821690D02*
X1019810D01*
X1033780Y751840D02*
Y807720D01*
X1019810Y821690D02*
X1033780Y807720D01*
X933450Y831850D02*
X943610Y821690D01*
X840740Y831850D02*
X847560D01*
X1197610Y948420D02*
X1230321D01*
X1117600Y661670D02*
X1156970D01*
X1109980Y669290D02*
X1117600Y661670D01*
X1109980Y669290D02*
Y741680D01*
X1104900Y746760D02*
X1109980Y741680D01*
X1038860Y746760D02*
X1104900D01*
X1033780Y751840D02*
X1038860Y746760D01*
X933450Y831850D02*
Y858520D01*
X749300Y962660D02*
X755650Y969010D01*
X749300Y917661D02*
Y962660D01*
X737870Y969010D02*
X744300Y962580D01*
Y915590D02*
Y962580D01*
X749300Y917661D02*
X757916Y909046D01*
X793476D01*
X812560Y801150D02*
Y826461D01*
X807560Y801150D02*
Y824390D01*
X762560Y605924D02*
Y646650D01*
Y569520D02*
Y605924D01*
X767560Y584924D02*
Y646650D01*
Y567449D02*
Y584924D01*
X693740Y500700D02*
X762560Y569520D01*
X652780Y429260D02*
X693740Y470220D01*
Y500700D01*
X703740Y496558D02*
X772560Y565378D01*
Y646650D01*
X703580Y429260D02*
X703740Y429420D01*
Y496558D01*
X698740Y498629D02*
X767560Y567449D01*
X698740Y449820D02*
Y498629D01*
X678180Y429260D02*
X698740Y449820D01*
X777560Y563307D02*
Y646650D01*
X708740Y494487D02*
X777560Y563307D01*
X708740Y449500D02*
X728980Y429260D01*
X708740Y449500D02*
Y494487D01*
X677950Y758900D02*
X720310D01*
X692150Y821690D02*
Y859790D01*
X685800Y866140D02*
Y896620D01*
Y866140D02*
X692150Y859790D01*
Y869950D02*
Y901700D01*
X698500Y826220D02*
Y863600D01*
X692150Y869950D02*
X698500Y863600D01*
X692150Y821690D02*
X697230Y816610D01*
X698500Y826220D02*
X703580Y821140D01*
X689130Y763900D02*
X720310D01*
X678180Y774850D02*
Y805660D01*
Y774850D02*
X689130Y763900D01*
X684530Y780054D02*
Y808990D01*
X695684Y768900D02*
X720310D01*
X684530Y780054D02*
X695684Y768900D01*
X690880Y783590D02*
X700570Y773900D01*
X720310D01*
X690880Y783590D02*
Y812800D01*
X704460Y778900D02*
X720310D01*
X697230Y786130D02*
X704460Y778900D01*
X697230Y786130D02*
Y816610D01*
X703580Y789940D02*
X709620Y783900D01*
X720310D01*
X703580Y789940D02*
Y821140D01*
X692150Y901700D02*
Y1004030D01*
X663580Y1032600D02*
X692150Y1004030D01*
X685800Y817880D02*
X690880Y812800D01*
X685800Y817880D02*
Y855980D01*
X678180Y863600D02*
X685800Y855980D01*
X678180Y815340D02*
X684530Y808990D01*
X678180Y815340D02*
Y851380D01*
Y863600D02*
Y897100D01*
X677950Y759710D02*
X678180Y759940D01*
X677950Y758900D02*
Y759710D01*
X925830Y866140D02*
X933450Y858520D01*
X861060Y866140D02*
X925830D01*
X847560Y801150D02*
Y831850D01*
X837560Y828670D02*
X840740Y831850D01*
X837560Y801150D02*
Y828670D01*
X738588Y826382D02*
X747560Y817410D01*
Y801150D02*
Y817410D01*
X725170Y826382D02*
X738588D01*
X777560Y801150D02*
Y884670D01*
X785700Y892810D01*
X772560Y801150D02*
Y883950D01*
X763700Y892810D02*
X772560Y883950D01*
X914400Y550060D02*
Y640080D01*
X924400Y496730D02*
X928280Y492850D01*
X915520D02*
X919400Y496730D01*
Y642151D01*
X924400Y496730D02*
Y644222D01*
X892651Y668900D02*
X919400Y642151D01*
X890580Y663900D02*
X914400Y640080D01*
X894722Y673900D02*
X924400Y644222D01*
X874810Y673900D02*
X894722D01*
X874810Y668900D02*
X892651D01*
X874810Y663900D02*
X890580D01*
X655409Y508638D02*
X674370Y527599D01*
X646430Y508638D02*
X655409D01*
X652780Y514350D02*
X654050D01*
X674370Y527599D02*
Y671463D01*
X654050Y514350D02*
X669370Y529670D01*
Y671463D01*
X681807Y683900D01*
X674370Y671463D02*
X681807Y678900D01*
Y683900D02*
X720310D01*
X681807Y678900D02*
X720310D01*
X582210Y1047750D02*
X664940D01*
X563880Y1029420D02*
X582210Y1047750D01*
X494670Y985610D02*
X561810Y1052750D01*
X667011D01*
X541410Y1057750D02*
X669082D01*
X494670Y1011010D02*
X541410Y1057750D01*
X521010Y1062750D02*
X671153D01*
X494670Y1036410D02*
X521010Y1062750D01*
X507546Y973086D02*
X563880Y1029420D01*
X494670Y960210D02*
X507546Y973086D01*
X664940Y1047750D02*
X710170Y1002520D01*
X667011Y1052750D02*
X715170Y1004591D01*
X710170Y890030D02*
Y1002520D01*
Y890030D02*
X752560Y847640D01*
X715170Y892101D02*
Y1004591D01*
Y892101D02*
X757560Y849711D01*
X720170Y894172D02*
Y1006662D01*
Y894172D02*
X762560Y851782D01*
X725170Y896243D02*
Y1008733D01*
Y896243D02*
X767560Y853853D01*
Y801150D02*
Y853853D01*
X762560Y801150D02*
Y851782D01*
X757560Y801150D02*
Y849711D01*
X752560Y801150D02*
Y847640D01*
X660560Y717218D02*
Y967580D01*
X665560Y719289D02*
Y979820D01*
X670560Y721360D02*
Y983710D01*
X655560Y715147D02*
Y964420D01*
X685800Y896620D02*
Y984980D01*
X612780Y1032600D02*
X624840Y1020540D01*
Y1003300D02*
X660560Y967580D01*
X624840Y1003300D02*
Y1020540D01*
X646716Y998664D02*
X665560Y979820D01*
X650240Y1004030D02*
X670560Y983710D01*
X650240Y1004030D02*
Y1020540D01*
X638180Y1007200D02*
X646716Y998664D01*
X612780Y1007200D02*
X655560Y964420D01*
X638180Y1032600D02*
X650240Y1020540D01*
X663580Y1007200D02*
X685800Y984980D01*
X655560Y715147D02*
X681807Y688900D01*
X660560Y717218D02*
X683878Y693900D01*
X670560Y721360D02*
X688020Y703900D01*
X720310D01*
X665560Y719289D02*
X685949Y698900D01*
X720310D01*
X683878Y693900D02*
X720310D01*
X681807Y688900D02*
X720310D01*
X713740Y469900D02*
X754380Y429260D01*
X713740Y469900D02*
Y492416D01*
X782560Y561236D01*
Y646650D01*
X783590Y476250D02*
Y520528D01*
Y476250D02*
X786828Y473012D01*
X830580Y429260D01*
X802640D02*
X805180D01*
X778590Y453310D02*
Y522599D01*
Y453310D02*
X802640Y429260D01*
X773590Y435450D02*
X779780Y429260D01*
X773590Y435450D02*
Y524670D01*
X783590Y520528D02*
X812560Y549498D01*
Y646650D01*
X778590Y522599D02*
X807560Y551569D01*
Y646650D01*
X773590Y524670D02*
X802560Y553640D01*
Y646650D01*
X827560Y801150D02*
Y831850D01*
X963930Y612140D02*
X1012190D01*
X897170Y678900D02*
X963930Y612140D01*
X874810Y678900D02*
X897170D01*
X965200Y615950D02*
X1007110D01*
X897250Y683900D02*
X965200Y615950D01*
X874810Y683900D02*
X897250D01*
X1012190Y612140D02*
X1017270Y617220D01*
X1007110Y615950D02*
X1012190Y621030D01*
X1017270Y617220D02*
Y713740D01*
X1014730Y716280D02*
X1017270Y713740D01*
X963930Y716280D02*
X1014730D01*
X952500Y727710D02*
X963930Y716280D01*
X1009650Y712470D02*
X1012190Y709930D01*
X979170Y702310D02*
X989330Y712470D01*
X1009650D01*
X952500Y702310D02*
X979170D01*
X1012190Y621030D02*
Y709930D01*
D12*
X842560Y801150D02*
Y825500D01*
X852560Y801150D02*
Y817490D01*
X899480Y688900D02*
X962270Y626110D01*
X999490D01*
X874810Y688900D02*
X899480D01*
X943610Y651510D02*
X999490D01*
X901220Y693900D02*
X943610Y651510D01*
X874810Y693900D02*
X901220D01*
X903184Y698900D02*
X925174Y676910D01*
X999490D01*
X874810Y698900D02*
X903184D01*
X905014Y703900D02*
X921844Y687070D01*
X984250D01*
X874810Y703900D02*
X905014D01*
X984250Y687070D02*
X999490Y702310D01*
D15*
X891540Y769620D02*
Y853440D01*
X866140D02*
X875030Y844550D01*
X901700Y838200D02*
X916940Y853440D01*
X901700Y769620D02*
Y838200D01*
X890980Y758900D02*
X901700Y769620D01*
X874810Y758900D02*
X890980D01*
X875030Y800100D02*
Y844550D01*
X859790Y784860D02*
X875030Y800100D01*
X859790Y736600D02*
Y784860D01*
Y736600D02*
X862490Y733900D01*
X874810D01*
X885820Y763900D02*
X891540Y769620D01*
X874810Y763900D02*
X885820D01*
X857560Y646650D02*
X868206D01*
X868680Y646176D01*
X795020Y660400D02*
X797560D01*
X792560Y657940D02*
X795020Y660400D01*
X792560Y646650D02*
Y657940D01*
X734060Y698900D02*
Y703900D01*
X729060Y708900D02*
X734060Y703900D01*
X720310Y708900D02*
X729060D01*
X709375Y718900D02*
X720310D01*
X706920Y716445D02*
X709375Y718900D01*
X706920Y711670D02*
Y716445D01*
Y711670D02*
X709690Y708900D01*
X720310D01*
X874810Y723900D02*
Y728900D01*
Y718900D02*
Y723900D01*
X887970Y711200D02*
Y724918D01*
X885670Y708900D02*
X887970Y711200D01*
X874810Y708900D02*
X885670D01*
X883988Y728900D02*
X887970Y724918D01*
X874810Y728900D02*
X883988D01*
X797560Y788670D02*
Y801150D01*
X744220Y614680D02*
X757560Y628020D01*
X735330Y614680D02*
X744220D01*
X734957Y666836D02*
Y681370D01*
X732021Y663900D02*
X734957Y666836D01*
X720310Y663900D02*
X732021D01*
X734060Y716823D02*
Y725170D01*
X731137Y713900D02*
X734060Y716823D01*
X720310Y713900D02*
X731137D01*
X727560Y808990D02*
X735330D01*
X737560Y806760D01*
Y801150D02*
Y806760D01*
X792560Y820687D02*
X793473Y821600D01*
X792560Y801150D02*
Y820687D01*
X800250Y815646D02*
X802560Y813336D01*
Y801150D02*
Y813336D01*
X859790Y808990D02*
X863600D01*
X857560Y806760D02*
X859790Y808990D01*
X857560Y801150D02*
Y806760D01*
X795020Y631190D02*
X797560Y633730D01*
Y646650D01*
X787560Y626030D02*
X792560Y621030D01*
X787560Y626030D02*
Y646650D01*
X732790Y633730D02*
X737560Y638500D01*
Y646650D01*
X698500Y665480D02*
X706920Y673900D01*
X720310D01*
X698500Y731520D02*
X706120Y723900D01*
X720310D01*
X757560Y628020D02*
Y646650D01*
X874810Y753900D02*
X910910D01*
X922820Y765810D02*
X939800D01*
X910910Y753900D02*
X922820Y765810D01*
X939800D02*
X952500Y753110D01*
X874810Y748900D02*
X922890D01*
X927100Y753110D01*
X910910Y743900D02*
X927100Y727710D01*
X874810Y743900D02*
X910910D01*
X874810Y738900D02*
X887970D01*
X924560Y702310D01*
X927100D01*
D16*
X782560Y646650D02*
D03*
X777560D02*
D03*
X767560D02*
D03*
X772560D02*
D03*
X762560D02*
D03*
X802560D02*
D03*
X807560D02*
D03*
X812560D02*
D03*
X857560D02*
D03*
X852560D02*
D03*
X847560D02*
D03*
X842560D02*
D03*
X837560D02*
D03*
X832560D02*
D03*
X827560D02*
D03*
X822560D02*
D03*
X817560D02*
D03*
X797560D02*
D03*
X792560D02*
D03*
X787560D02*
D03*
X757560D02*
D03*
X752560D02*
D03*
X747560D02*
D03*
X742560D02*
D03*
X737560D02*
D03*
Y801150D02*
D03*
X742560D02*
D03*
X747560D02*
D03*
X752560D02*
D03*
X757560D02*
D03*
X762560D02*
D03*
X767560D02*
D03*
X772560D02*
D03*
X777560D02*
D03*
X782560D02*
D03*
X787560D02*
D03*
X792560D02*
D03*
X797560D02*
D03*
X802560D02*
D03*
X807560D02*
D03*
X812560D02*
D03*
X817560D02*
D03*
X822560D02*
D03*
X827560D02*
D03*
X832560D02*
D03*
X837560D02*
D03*
X842560D02*
D03*
X847560D02*
D03*
X852560D02*
D03*
X857560D02*
D03*
D17*
X720310Y663900D02*
D03*
Y668900D02*
D03*
Y673900D02*
D03*
Y678900D02*
D03*
Y683900D02*
D03*
Y688900D02*
D03*
Y693900D02*
D03*
Y698900D02*
D03*
Y703900D02*
D03*
Y708900D02*
D03*
Y713900D02*
D03*
Y718900D02*
D03*
Y723900D02*
D03*
Y728900D02*
D03*
Y733900D02*
D03*
Y738900D02*
D03*
Y743900D02*
D03*
Y748900D02*
D03*
Y753900D02*
D03*
Y758900D02*
D03*
Y763900D02*
D03*
Y768900D02*
D03*
Y773900D02*
D03*
Y778900D02*
D03*
Y783900D02*
D03*
X874810D02*
D03*
Y778900D02*
D03*
Y773900D02*
D03*
Y768900D02*
D03*
Y763900D02*
D03*
Y758900D02*
D03*
Y753900D02*
D03*
Y748900D02*
D03*
Y743900D02*
D03*
Y738900D02*
D03*
Y733900D02*
D03*
Y728900D02*
D03*
Y723900D02*
D03*
Y718900D02*
D03*
Y713900D02*
D03*
Y708900D02*
D03*
Y703900D02*
D03*
Y698900D02*
D03*
Y693900D02*
D03*
Y688900D02*
D03*
Y683900D02*
D03*
Y678900D02*
D03*
Y673900D02*
D03*
Y668900D02*
D03*
Y663900D02*
D03*
D38*
X544830Y464820D02*
Y556260D01*
Y464820D02*
X580390Y429260D01*
X519430Y581660D02*
X544830Y556260D01*
X485140Y581660D02*
X519430D01*
X580390Y429260D02*
X627380D01*
X476250Y590550D02*
X485140Y581660D01*
X476250Y590550D02*
Y736600D01*
X489040Y749390D01*
X494670D01*
D39*
X976630Y812800D02*
X1013460D01*
X943610D02*
X976630D01*
X1031754Y736086D02*
X1097280D01*
X1023620Y744220D02*
X1031754Y736086D01*
X1023620Y744220D02*
Y802640D01*
X1013460Y812800D02*
X1023620Y802640D01*
X927100Y796290D02*
X943610Y812800D01*
X927100Y778510D02*
Y796290D01*
D40*
X852170Y817880D02*
X852560Y817490D01*
D41*
X1281830Y570230D02*
D03*
X1306830D02*
D03*
X1281830Y753111D02*
D03*
X1306830D02*
D03*
X567830Y698900D02*
D03*
X592830D02*
D03*
X592610Y617220D02*
D03*
X567610D02*
D03*
X1306830Y661670D02*
D03*
X1281830D02*
D03*
X779980Y939800D02*
D03*
X804980D02*
D03*
D42*
X794620Y1040950D02*
D03*
X769620D02*
D03*
Y1073150D02*
D03*
X794620D02*
D03*
D43*
X721970Y1045550D02*
D03*
X842270D02*
D03*
X782120Y1113350D02*
D03*
Y1001450D02*
D03*
D44*
X916940Y853440D02*
D03*
X891540D02*
D03*
X866140D02*
D03*
X840740D02*
D03*
X999490Y702310D02*
D03*
Y676910D02*
D03*
Y651510D02*
D03*
Y626110D02*
D03*
Y600710D02*
D03*
Y575310D02*
D03*
Y549910D02*
D03*
Y727710D02*
D03*
X587380Y1032600D02*
D03*
X612780Y1007200D02*
D03*
Y1032600D02*
D03*
X638180Y1007200D02*
D03*
Y1032600D02*
D03*
X663580Y1007200D02*
D03*
Y1032600D02*
D03*
X952500Y778510D02*
D03*
X927100Y753110D02*
D03*
X952500D02*
D03*
X927100Y727710D02*
D03*
X952500D02*
D03*
X927100Y702310D02*
D03*
X952500D02*
D03*
X725170Y851782D02*
D03*
X805180Y429260D02*
D03*
X627380D02*
D03*
X652780D02*
D03*
X678180D02*
D03*
X703580D02*
D03*
X728980D02*
D03*
X754380D02*
D03*
X779780D02*
D03*
X830580D02*
D03*
D45*
X815340Y853440D02*
D03*
X587380Y1007200D02*
D03*
X855980Y429260D02*
D03*
D46*
X1419110Y431250D02*
D03*
X499110D02*
D03*
Y1111250D02*
D03*
X1419110D02*
D03*
D47*
X601980Y759940D02*
D03*
X847090Y935910D02*
D03*
X975360D02*
D03*
X932603D02*
D03*
X889847D02*
D03*
X570230Y1101090D02*
D03*
X1225360Y982990D02*
D03*
X1407160Y866140D02*
D03*
X1376680D02*
D03*
X1071800Y707390D02*
D03*
Y621030D02*
D03*
Y649817D02*
D03*
Y678603D02*
D03*
X633730Y659130D02*
D03*
Y623570D02*
D03*
X601980Y897100D02*
D03*
Y851380D02*
D03*
Y805660D02*
D03*
D48*
X1174120Y1094740D02*
D03*
X1199520D02*
D03*
X494670Y829400D02*
D03*
Y854800D02*
D03*
Y774790D02*
D03*
Y800190D02*
D03*
Y723990D02*
D03*
Y749390D02*
D03*
X1425702Y966724D02*
D03*
Y992124D02*
D03*
Y1017524D02*
D03*
Y1042924D02*
D03*
X1129919Y1012520D02*
D03*
Y962520D02*
D03*
X918850Y1094740D02*
D03*
X944250D02*
D03*
X969650D02*
D03*
X995050D02*
D03*
X1060450D02*
D03*
X1035050D02*
D03*
X1085850D02*
D03*
X1111250D02*
D03*
X1320800Y939330D02*
D03*
Y989330D02*
D03*
X1049020Y1022350D02*
D03*
Y996950D02*
D03*
Y971550D02*
D03*
X1022350Y890270D02*
D03*
Y864870D02*
D03*
Y839470D02*
D03*
X1277620Y458470D02*
D03*
Y433070D02*
D03*
X494670Y905600D02*
D03*
Y880200D02*
D03*
Y486500D02*
D03*
Y511900D02*
D03*
Y537300D02*
D03*
Y562700D02*
D03*
Y600800D02*
D03*
Y626200D02*
D03*
Y651600D02*
D03*
Y677000D02*
D03*
X879950Y500380D02*
D03*
X854550D02*
D03*
X829150D02*
D03*
X803750D02*
D03*
X1425580Y622390D02*
D03*
Y647790D02*
D03*
Y678270D02*
D03*
Y703670D02*
D03*
X494670Y934810D02*
D03*
Y1061810D02*
D03*
Y1036410D02*
D03*
Y1011010D02*
D03*
Y985610D02*
D03*
Y960210D02*
D03*
D49*
X999490Y753110D02*
D03*
X927100Y778510D02*
D03*
X725170Y826382D02*
D03*
D50*
X947550Y511837D02*
D03*
X1122550D02*
D03*
D51*
X1256030Y1079240D02*
D03*
X1306830D02*
D03*
D52*
X1312502Y907501D02*
D03*
Y900001D02*
D03*
Y892501D02*
D03*
Y885001D02*
D03*
Y877501D02*
D03*
Y870001D02*
D03*
Y862501D02*
D03*
Y855001D02*
D03*
X1305002Y907501D02*
D03*
Y870001D02*
D03*
Y862501D02*
D03*
Y855001D02*
D03*
X1297502D02*
D03*
Y847501D02*
D03*
X1290002Y855001D02*
D03*
Y847501D02*
D03*
X1282502Y855001D02*
D03*
Y847501D02*
D03*
X1275002Y855001D02*
D03*
Y847501D02*
D03*
X1267502Y855001D02*
D03*
Y847501D02*
D03*
X1273502Y536501D02*
D03*
Y529001D02*
D03*
X1266002Y536501D02*
D03*
Y529001D02*
D03*
X1258502Y536501D02*
D03*
Y529001D02*
D03*
X1273002Y628001D02*
D03*
Y620501D02*
D03*
X1265502Y628001D02*
D03*
Y620501D02*
D03*
X1258002Y628001D02*
D03*
Y620501D02*
D03*
X1275002Y720001D02*
D03*
Y712501D02*
D03*
X1267502Y720001D02*
D03*
Y712501D02*
D03*
X1260002Y720001D02*
D03*
Y712501D02*
D03*
X1257002Y802501D02*
D03*
X1264502D02*
D03*
X1272002D02*
D03*
Y810001D02*
D03*
X1264502D02*
D03*
X1257002D02*
D03*
X1272502Y783751D02*
D03*
Y776251D02*
D03*
X1265002Y783751D02*
D03*
Y776251D02*
D03*
X1257502Y783751D02*
D03*
Y776251D02*
D03*
X1272502Y692001D02*
D03*
Y684501D02*
D03*
X1265002Y692001D02*
D03*
Y684501D02*
D03*
X1257502Y692001D02*
D03*
Y684501D02*
D03*
X1273002Y600001D02*
D03*
Y592501D02*
D03*
X1265502Y600001D02*
D03*
Y592501D02*
D03*
X1258002Y600001D02*
D03*
Y592501D02*
D03*
X1273002Y510001D02*
D03*
Y502501D02*
D03*
X1265502Y510001D02*
D03*
Y502501D02*
D03*
X1258002Y510001D02*
D03*
Y502501D02*
D03*
X1399000Y650000D02*
D03*
X1406499Y635000D02*
D03*
X1399000Y620000D02*
D03*
X1406499Y605000D02*
D03*
X1399000Y590000D02*
D03*
X1384000Y650000D02*
D03*
X1391500Y635000D02*
D03*
X1384000Y620000D02*
D03*
X1391500Y605000D02*
D03*
X1384000Y590000D02*
D03*
X1369000Y650000D02*
D03*
X1376500Y635000D02*
D03*
X1369000Y620000D02*
D03*
X1376500Y605000D02*
D03*
X1369000Y590000D02*
D03*
X1354000Y650000D02*
D03*
X1361500Y635000D02*
D03*
X1354000Y620000D02*
D03*
X1361500Y605000D02*
D03*
X1354000Y590000D02*
D03*
X1339000Y650000D02*
D03*
X1324000D02*
D03*
X1400000Y759750D02*
D03*
X1393750Y822250D02*
D03*
Y797250D02*
D03*
Y772250D02*
D03*
X1387500Y759750D02*
D03*
X1375000D02*
D03*
X1362500Y834750D02*
D03*
X1368750Y822250D02*
D03*
X1362500Y809750D02*
D03*
X1368750Y797250D02*
D03*
X1362500Y784750D02*
D03*
X1368750Y772250D02*
D03*
X1362500Y759750D02*
D03*
X1350000Y834750D02*
D03*
X1356250Y822250D02*
D03*
Y797250D02*
D03*
Y772250D02*
D03*
X1337500Y834750D02*
D03*
X1325000D02*
D03*
X1404000Y563350D02*
D03*
X1392000D02*
D03*
X1398000Y551350D02*
D03*
Y527350D02*
D03*
Y503350D02*
D03*
X1380000Y563350D02*
D03*
X1368000D02*
D03*
Y539350D02*
D03*
Y515350D02*
D03*
Y491350D02*
D03*
X1362000Y551350D02*
D03*
X1356000Y539350D02*
D03*
X1362000Y527350D02*
D03*
X1356000Y515350D02*
D03*
X1362000Y503350D02*
D03*
X1356000Y491350D02*
D03*
X1350000Y551350D02*
D03*
X1344000Y491350D02*
D03*
X1332000D02*
D03*
X1320000Y563350D02*
D03*
Y491350D02*
D03*
X1399000Y735000D02*
D03*
X1406499Y720000D02*
D03*
X1399000Y705000D02*
D03*
X1406499Y690000D02*
D03*
X1399000Y675000D02*
D03*
X1384000Y735000D02*
D03*
X1391500Y720000D02*
D03*
X1384000Y705000D02*
D03*
X1391500Y690000D02*
D03*
X1384000Y675000D02*
D03*
X1369000Y735000D02*
D03*
X1376500Y720000D02*
D03*
X1369000Y705000D02*
D03*
X1376500Y690000D02*
D03*
X1369000Y675000D02*
D03*
X1354000Y735000D02*
D03*
X1361500Y720000D02*
D03*
X1354000Y705000D02*
D03*
X1361500Y690000D02*
D03*
X1354000Y675000D02*
D03*
X1339000D02*
D03*
X1324000D02*
D03*
X790000Y480000D02*
D03*
Y460000D02*
D03*
X795000Y450000D02*
D03*
X790000Y420000D02*
D03*
X780000Y540000D02*
D03*
X770000D02*
D03*
Y420000D02*
D03*
X765000Y530000D02*
D03*
X760000Y520000D02*
D03*
X765000Y510000D02*
D03*
X760000Y500000D02*
D03*
X765000Y490000D02*
D03*
X760000Y480000D02*
D03*
X765000Y470000D02*
D03*
X760000Y460000D02*
D03*
X765000Y450000D02*
D03*
X760000Y440000D02*
D03*
X750000Y520000D02*
D03*
X755000Y510000D02*
D03*
X750000Y500000D02*
D03*
X755000Y490000D02*
D03*
X750000Y480000D02*
D03*
X755000Y470000D02*
D03*
X750000Y460000D02*
D03*
X755000Y450000D02*
D03*
X745000Y510000D02*
D03*
Y490000D02*
D03*
Y470000D02*
D03*
X740000Y460000D02*
D03*
X745000Y450000D02*
D03*
X740000Y420000D02*
D03*
X725000Y450000D02*
D03*
X720000Y420000D02*
D03*
X710000Y440000D02*
D03*
X690000Y420000D02*
D03*
X685000Y450000D02*
D03*
X1298502Y980002D02*
D03*
X1295002Y973002D02*
D03*
X1298502Y966002D02*
D03*
X1291502Y980002D02*
D03*
X1288002Y973002D02*
D03*
X1291502Y966002D02*
D03*
X1284502Y980002D02*
D03*
X1281002Y973002D02*
D03*
X1284502Y966002D02*
D03*
X1277502Y980002D02*
D03*
X1274002Y973002D02*
D03*
X1277502Y966002D02*
D03*
X1270502Y980002D02*
D03*
X1267002Y973002D02*
D03*
X1270502Y966002D02*
D03*
X1117502Y952501D02*
D03*
Y847501D02*
D03*
Y832501D02*
D03*
X1110002Y967501D02*
D03*
X1113752Y960001D02*
D03*
X1110002Y952501D02*
D03*
Y862501D02*
D03*
X1113752Y855001D02*
D03*
X1110002Y847501D02*
D03*
X1113752Y840001D02*
D03*
X1110002Y832501D02*
D03*
X1102502Y967501D02*
D03*
X1106252Y960001D02*
D03*
X1102502Y952501D02*
D03*
Y937501D02*
D03*
X1106252Y930001D02*
D03*
X1102502Y922501D02*
D03*
Y907501D02*
D03*
Y862501D02*
D03*
X1106252Y855001D02*
D03*
X1102502Y847501D02*
D03*
X1106252Y840001D02*
D03*
X1102502Y832501D02*
D03*
X1095002Y967501D02*
D03*
X1098752Y960001D02*
D03*
X1095002Y952501D02*
D03*
X1098752Y945001D02*
D03*
X1095002Y937501D02*
D03*
X1098752Y930001D02*
D03*
X1095002Y922501D02*
D03*
X1098752Y915001D02*
D03*
X1095002Y907501D02*
D03*
Y862501D02*
D03*
X1098752Y855001D02*
D03*
Y840001D02*
D03*
X1087502Y967501D02*
D03*
X1091252Y960001D02*
D03*
X1087502Y952501D02*
D03*
X1091252Y945001D02*
D03*
X1087502Y937501D02*
D03*
X1091252Y930001D02*
D03*
X1087502Y922501D02*
D03*
X1091252Y915001D02*
D03*
X1080002Y967501D02*
D03*
X1083752Y960001D02*
D03*
X1080002Y952501D02*
D03*
X1083752Y945001D02*
D03*
X1080002Y937501D02*
D03*
X1083752Y930001D02*
D03*
X1080002Y922501D02*
D03*
X1083752Y915001D02*
D03*
X1072502Y967501D02*
D03*
X1076252Y960001D02*
D03*
X1072502Y952501D02*
D03*
X1076252Y945001D02*
D03*
X1072502Y937501D02*
D03*
X1076252Y930001D02*
D03*
X1072502Y922501D02*
D03*
X1076252Y915001D02*
D03*
D53*
X822560Y835990D02*
D03*
X817560Y619328D02*
D03*
X834898D02*
D03*
X825246D02*
D03*
X839419Y563329D02*
D03*
X847560D02*
D03*
X858894Y619328D02*
D03*
X868680Y646176D02*
D03*
X873947Y619328D02*
D03*
X889000D02*
D03*
X1137780Y835510D02*
D03*
X1043650Y917090D02*
D03*
X983690Y848360D02*
D03*
X975360Y961590D02*
D03*
X932603D02*
D03*
X847090D02*
D03*
X889847D02*
D03*
X774915Y917090D02*
D03*
X797560Y788670D02*
D03*
X785980Y832130D02*
D03*
X1286510Y931279D02*
D03*
X1052830Y862960D02*
D03*
X976630Y812800D02*
D03*
X735330Y614680D02*
D03*
X755650Y969010D02*
D03*
X737870D02*
D03*
X1197610Y948420D02*
D03*
X762560Y605924D02*
D03*
X772560Y598924D02*
D03*
X777560Y591924D02*
D03*
X767560Y584924D02*
D03*
X734957Y681370D02*
D03*
X734060Y725170D02*
D03*
X727560Y808990D02*
D03*
X793473Y821600D02*
D03*
X800250Y815646D02*
D03*
X863600Y808990D02*
D03*
X795020Y631190D02*
D03*
X792560Y621030D02*
D03*
X732790Y633730D02*
D03*
X698500Y665480D02*
D03*
Y731520D02*
D03*
X678180Y851380D02*
D03*
X1156970Y661670D02*
D03*
X763700Y892810D02*
D03*
X785700D02*
D03*
X914400Y550060D02*
D03*
X928280Y492850D02*
D03*
X915520D02*
D03*
X652780Y514350D02*
D03*
X646430Y508638D02*
D03*
X678180Y897100D02*
D03*
Y805660D02*
D03*
X827560Y831850D02*
D03*
X842560Y825500D02*
D03*
X852560Y817880D02*
D03*
D54*
X901446Y599948D02*
D03*
X584190Y1084590D02*
D03*
X842645Y552900D02*
D03*
X1391920Y853642D02*
D03*
X1352910Y865119D02*
D03*
Y906779D02*
D03*
X797560Y660400D02*
D03*
X734060Y698900D02*
D03*
X887970Y724918D02*
D03*
X802005Y764390D02*
D03*
X845820Y693900D02*
D03*
X985929Y794110D02*
D03*
X1303580Y470309D02*
D03*
X1219609Y753111D02*
D03*
Y661670D02*
D03*
Y570230D02*
D03*
X548560Y945741D02*
D03*
X573560Y889100D02*
D03*
X579480Y835850D02*
D03*
Y789820D02*
D03*
X580121Y740940D02*
D03*
X662560Y692320D02*
D03*
X688020Y653571D02*
D03*
X613819Y461310D02*
D03*
X529740Y519430D02*
D03*
X636529Y582930D02*
D03*
X643631Y555410D02*
D03*
X606780Y510630D02*
D03*
X562730Y496691D02*
D03*
X1104039Y487980D02*
D03*
Y420099D02*
D03*
X1088300Y664210D02*
D03*
X1132840Y670560D02*
D03*
X1115970Y622700D02*
D03*
X1094300Y578606D02*
D03*
Y761486D02*
D03*
X1104900Y797560D02*
D03*
X678180Y759940D02*
D03*
D55*
X837560Y764390D02*
D03*
X747880D02*
D03*
X770945Y745863D02*
D03*
X837560Y724918D02*
D03*
X800735Y684680D02*
D03*
X759610Y718185D02*
D03*
Y682625D02*
D03*
D56*
X952500Y664210D02*
D03*
D57*
X1149350Y872147D02*
D03*
D58*
X1013460Y980590D02*
D03*
X884288D02*
D03*
X970551D02*
D03*
X927930D02*
D03*
X1263650Y483870D02*
D03*
X1097280Y736086D02*
D03*
M02*
