G04*
G04 #@! TF.GenerationSoftware,Altium Limited,Altium Designer,22.8.2 (66)*
G04*
G04 Layer_Physical_Order=3*
G04 Layer_Color=128*
%FSLAX44Y44*%
%MOMM*%
G71*
G04*
G04 #@! TF.SameCoordinates,4CF88A4D-708D-413D-9FA9-C7E86D45AB9B*
G04*
G04*
G04 #@! TF.FilePolarity,Negative*
G04*
G01*
G75*
%ADD59C,1.0160*%
%ADD60C,2.0160*%
G04:AMPARAMS|DCode=61|XSize=2.524mm|YSize=2.524mm|CornerRadius=0mm|HoleSize=0mm|Usage=FLASHONLY|Rotation=0.000|XOffset=0mm|YOffset=0mm|HoleType=Round|Shape=Relief|Width=0.254mm|Gap=0.254mm|Entries=4|*
%AMTHD61*
7,0,0,2.5240,2.0160,0.2540,45*
%
%ADD61THD61*%
G04:AMPARAMS|DCode=62|XSize=2.424mm|YSize=2.424mm|CornerRadius=0mm|HoleSize=0mm|Usage=FLASHONLY|Rotation=0.000|XOffset=0mm|YOffset=0mm|HoleType=Round|Shape=Relief|Width=0.254mm|Gap=0.254mm|Entries=4|*
%AMTHD62*
7,0,0,2.4240,1.9160,0.2540,45*
%
%ADD62THD62*%
%ADD63C,1.9160*%
G04:AMPARAMS|DCode=64|XSize=3.824mm|YSize=3.824mm|CornerRadius=0mm|HoleSize=0mm|Usage=FLASHONLY|Rotation=0.000|XOffset=0mm|YOffset=0mm|HoleType=Round|Shape=Relief|Width=0.254mm|Gap=0.254mm|Entries=4|*
%AMTHD64*
7,0,0,3.8240,3.3160,0.2540,45*
%
%ADD64THD64*%
G04:AMPARAMS|DCode=65|XSize=4.624mm|YSize=4.624mm|CornerRadius=0mm|HoleSize=0mm|Usage=FLASHONLY|Rotation=0.000|XOffset=0mm|YOffset=0mm|HoleType=Round|Shape=Relief|Width=0.254mm|Gap=0.254mm|Entries=4|*
%AMTHD65*
7,0,0,4.6240,4.1160,0.2540,45*
%
%ADD65THD65*%
%ADD66C,3.3160*%
%ADD67C,2.1160*%
G04:AMPARAMS|DCode=68|XSize=2.624mm|YSize=2.624mm|CornerRadius=0mm|HoleSize=0mm|Usage=FLASHONLY|Rotation=0.000|XOffset=0mm|YOffset=0mm|HoleType=Round|Shape=Relief|Width=0.254mm|Gap=0.254mm|Entries=4|*
%AMTHD68*
7,0,0,2.6240,2.1160,0.2540,45*
%
%ADD68THD68*%
%ADD69C,2.5160*%
%ADD70C,1.3160*%
%ADD71C,1.8160*%
%ADD72C,1.7160*%
%ADD73C,1.4160*%
D59*
X459110Y391250D02*
X1459110D01*
Y1153250D01*
X459110D02*
X1459110D01*
X459110Y391250D02*
Y1153250D01*
D60*
X1281830Y570230D02*
D03*
Y753111D02*
D03*
X1174120Y1094740D02*
D03*
X1199520D02*
D03*
X567830Y698900D02*
D03*
X567610Y617220D02*
D03*
X494670Y829400D02*
D03*
Y854800D02*
D03*
Y774790D02*
D03*
Y800190D02*
D03*
Y723990D02*
D03*
Y749390D02*
D03*
X1425702Y1017524D02*
D03*
Y1042924D02*
D03*
X918850Y1094740D02*
D03*
X944250D02*
D03*
X969650D02*
D03*
X995050D02*
D03*
X1060450D02*
D03*
X1035050D02*
D03*
X1085850D02*
D03*
X1111250D02*
D03*
X1281830Y661670D02*
D03*
X804980Y939800D02*
D03*
X1122550Y511837D02*
D03*
X1277620Y458470D02*
D03*
Y433070D02*
D03*
X494670Y905600D02*
D03*
Y880200D02*
D03*
Y486500D02*
D03*
Y511900D02*
D03*
Y537300D02*
D03*
Y562700D02*
D03*
Y600800D02*
D03*
Y626200D02*
D03*
Y651600D02*
D03*
X879950Y500380D02*
D03*
X829150D02*
D03*
X1425580Y622390D02*
D03*
Y647790D02*
D03*
Y678270D02*
D03*
Y703670D02*
D03*
X494670Y1061810D02*
D03*
Y1036410D02*
D03*
Y1011010D02*
D03*
Y985610D02*
D03*
Y960210D02*
D03*
D61*
X1306830Y570230D02*
D03*
Y753111D02*
D03*
X592830Y698900D02*
D03*
X592610Y617220D02*
D03*
X1425702Y966724D02*
D03*
Y992124D02*
D03*
X1306830Y661670D02*
D03*
X779980Y939800D02*
D03*
X947550Y511837D02*
D03*
X494670Y677000D02*
D03*
X854550Y500380D02*
D03*
X803750D02*
D03*
X494670Y934810D02*
D03*
D62*
X794620Y1040950D02*
D03*
X840740Y853440D02*
D03*
X999490Y727710D02*
D03*
X587380Y1032600D02*
D03*
X952500Y778510D02*
D03*
X725170Y851782D02*
D03*
X855980Y429260D02*
D03*
D63*
X769620Y1040950D02*
D03*
Y1073150D02*
D03*
X794620D02*
D03*
X916940Y853440D02*
D03*
X891540D02*
D03*
X866140D02*
D03*
X815340D02*
D03*
X999490Y753110D02*
D03*
Y702310D02*
D03*
Y676910D02*
D03*
Y651510D02*
D03*
Y626110D02*
D03*
Y600710D02*
D03*
Y575310D02*
D03*
Y549910D02*
D03*
X587380Y1007200D02*
D03*
X612780D02*
D03*
Y1032600D02*
D03*
X638180Y1007200D02*
D03*
Y1032600D02*
D03*
X663580Y1007200D02*
D03*
Y1032600D02*
D03*
X927100Y778510D02*
D03*
Y753110D02*
D03*
X952500D02*
D03*
X927100Y727710D02*
D03*
X952500D02*
D03*
X927100Y702310D02*
D03*
X952500D02*
D03*
X725170Y826382D02*
D03*
X805180Y429260D02*
D03*
X627380D02*
D03*
X652780D02*
D03*
X678180D02*
D03*
X703580D02*
D03*
X728980D02*
D03*
X754380D02*
D03*
X779780D02*
D03*
X830580D02*
D03*
D64*
X721970Y1045550D02*
D03*
X842270D02*
D03*
X782120Y1113350D02*
D03*
Y1001450D02*
D03*
D65*
X1419110Y431250D02*
D03*
X499110D02*
D03*
Y1111250D02*
D03*
X1419110D02*
D03*
D66*
X601980Y759940D02*
D03*
X847090Y935910D02*
D03*
X975360D02*
D03*
X932603D02*
D03*
X889847D02*
D03*
X570230Y1101090D02*
D03*
X1225360Y982990D02*
D03*
X1407160Y866140D02*
D03*
X1376680D02*
D03*
X1071800Y707390D02*
D03*
Y621030D02*
D03*
Y649817D02*
D03*
Y678603D02*
D03*
X633730Y659130D02*
D03*
Y623570D02*
D03*
X601980Y897100D02*
D03*
Y851380D02*
D03*
Y805660D02*
D03*
D67*
X1129919Y1012520D02*
D03*
X1320800Y989330D02*
D03*
X1049020Y1022350D02*
D03*
Y971550D02*
D03*
X1022350Y890270D02*
D03*
D68*
X1129919Y962520D02*
D03*
X1320800Y939330D02*
D03*
X1049020Y996950D02*
D03*
X1022350Y864870D02*
D03*
Y839470D02*
D03*
D69*
X1256030Y1079240D02*
D03*
X1306830D02*
D03*
D70*
X1312502Y907501D02*
D03*
Y900001D02*
D03*
Y892501D02*
D03*
Y885001D02*
D03*
Y877501D02*
D03*
Y870001D02*
D03*
Y862501D02*
D03*
Y855001D02*
D03*
X1305002Y907501D02*
D03*
Y870001D02*
D03*
Y862501D02*
D03*
Y855001D02*
D03*
X1297502D02*
D03*
Y847501D02*
D03*
X1290002Y855001D02*
D03*
Y847501D02*
D03*
X1282502Y855001D02*
D03*
Y847501D02*
D03*
X1275002Y855001D02*
D03*
Y847501D02*
D03*
X1267502Y855001D02*
D03*
Y847501D02*
D03*
X1273502Y536501D02*
D03*
Y529001D02*
D03*
X1266002Y536501D02*
D03*
Y529001D02*
D03*
X1258502Y536501D02*
D03*
Y529001D02*
D03*
X1273002Y628001D02*
D03*
Y620501D02*
D03*
X1265502Y628001D02*
D03*
Y620501D02*
D03*
X1258002Y628001D02*
D03*
Y620501D02*
D03*
X1275002Y720001D02*
D03*
Y712501D02*
D03*
X1267502Y720001D02*
D03*
Y712501D02*
D03*
X1260002Y720001D02*
D03*
Y712501D02*
D03*
X1257002Y802501D02*
D03*
X1264502D02*
D03*
X1272002D02*
D03*
Y810001D02*
D03*
X1264502D02*
D03*
X1257002D02*
D03*
X1399000Y650000D02*
D03*
X1406499Y635000D02*
D03*
X1399000Y620000D02*
D03*
X1406499Y605000D02*
D03*
X1399000Y590000D02*
D03*
X1384000Y650000D02*
D03*
X1391500Y635000D02*
D03*
X1384000Y620000D02*
D03*
X1391500Y605000D02*
D03*
X1384000Y590000D02*
D03*
X1369000Y650000D02*
D03*
X1376500Y635000D02*
D03*
X1369000Y620000D02*
D03*
X1376500Y605000D02*
D03*
X1369000Y590000D02*
D03*
X1354000Y650000D02*
D03*
X1361500Y635000D02*
D03*
X1354000Y620000D02*
D03*
X1361500Y605000D02*
D03*
X1354000Y590000D02*
D03*
X1339000Y650000D02*
D03*
X1324000D02*
D03*
X1400000Y759750D02*
D03*
X1393750Y822250D02*
D03*
Y797250D02*
D03*
Y772250D02*
D03*
X1387500Y759750D02*
D03*
X1375000D02*
D03*
X1362500Y834750D02*
D03*
X1368750Y822250D02*
D03*
X1362500Y809750D02*
D03*
X1368750Y797250D02*
D03*
X1362500Y784750D02*
D03*
X1368750Y772250D02*
D03*
X1362500Y759750D02*
D03*
X1350000Y834750D02*
D03*
X1356250Y822250D02*
D03*
Y797250D02*
D03*
Y772250D02*
D03*
X1337500Y834750D02*
D03*
X1325000D02*
D03*
X1404000Y563350D02*
D03*
X1392000D02*
D03*
X1398000Y551350D02*
D03*
Y527350D02*
D03*
Y503350D02*
D03*
X1380000Y563350D02*
D03*
X1368000D02*
D03*
Y539350D02*
D03*
Y515350D02*
D03*
Y491350D02*
D03*
X1362000Y551350D02*
D03*
X1356000Y539350D02*
D03*
X1362000Y527350D02*
D03*
X1356000Y515350D02*
D03*
X1362000Y503350D02*
D03*
X1356000Y491350D02*
D03*
X1350000Y551350D02*
D03*
X1344000Y491350D02*
D03*
X1332000D02*
D03*
X1320000Y563350D02*
D03*
Y491350D02*
D03*
X1399000Y735000D02*
D03*
X1406499Y720000D02*
D03*
X1399000Y705000D02*
D03*
X1406499Y690000D02*
D03*
X1399000Y675000D02*
D03*
X1384000Y735000D02*
D03*
X1391500Y720000D02*
D03*
X1384000Y705000D02*
D03*
X1391500Y690000D02*
D03*
X1384000Y675000D02*
D03*
X1369000Y735000D02*
D03*
X1376500Y720000D02*
D03*
X1369000Y705000D02*
D03*
X1376500Y690000D02*
D03*
X1369000Y675000D02*
D03*
X1354000Y735000D02*
D03*
X1361500Y720000D02*
D03*
X1354000Y705000D02*
D03*
X1361500Y690000D02*
D03*
X1354000Y675000D02*
D03*
X1339000D02*
D03*
X1324000D02*
D03*
X1117502Y952501D02*
D03*
Y847501D02*
D03*
Y832501D02*
D03*
X1110002Y967501D02*
D03*
X1113752Y960001D02*
D03*
X1110002Y952501D02*
D03*
Y862501D02*
D03*
X1113752Y855001D02*
D03*
X1110002Y847501D02*
D03*
X1113752Y840001D02*
D03*
X1110002Y832501D02*
D03*
X1102502Y967501D02*
D03*
X1106252Y960001D02*
D03*
X1102502Y952501D02*
D03*
Y937501D02*
D03*
X1106252Y930001D02*
D03*
X1102502Y922501D02*
D03*
Y907501D02*
D03*
Y862501D02*
D03*
X1106252Y855001D02*
D03*
X1102502Y847501D02*
D03*
X1106252Y840001D02*
D03*
X1102502Y832501D02*
D03*
X1095002Y967501D02*
D03*
X1098752Y960001D02*
D03*
X1095002Y952501D02*
D03*
X1098752Y945001D02*
D03*
X1095002Y937501D02*
D03*
X1098752Y930001D02*
D03*
X1095002Y922501D02*
D03*
X1098752Y915001D02*
D03*
X1095002Y907501D02*
D03*
Y862501D02*
D03*
X1098752Y855001D02*
D03*
Y840001D02*
D03*
X1087502Y967501D02*
D03*
X1091252Y960001D02*
D03*
X1087502Y952501D02*
D03*
X1091252Y945001D02*
D03*
X1087502Y937501D02*
D03*
X1091252Y930001D02*
D03*
X1087502Y922501D02*
D03*
X1091252Y915001D02*
D03*
X1080002Y967501D02*
D03*
X1083752Y960001D02*
D03*
X1080002Y952501D02*
D03*
X1083752Y945001D02*
D03*
X1080002Y937501D02*
D03*
X1083752Y930001D02*
D03*
X1080002Y922501D02*
D03*
X1083752Y915001D02*
D03*
X1072502Y967501D02*
D03*
X1076252Y960001D02*
D03*
X1072502Y952501D02*
D03*
X1076252Y945001D02*
D03*
X1072502Y937501D02*
D03*
X1076252Y930001D02*
D03*
X1072502Y922501D02*
D03*
X1076252Y915001D02*
D03*
X822560Y835990D02*
D03*
X817560Y619328D02*
D03*
X834898D02*
D03*
X825246D02*
D03*
X839419Y563329D02*
D03*
X847560D02*
D03*
X858894Y619328D02*
D03*
X868680Y646176D02*
D03*
X873947Y619328D02*
D03*
X889000D02*
D03*
X1286510Y931279D02*
D03*
X1052830Y862960D02*
D03*
X976630Y812800D02*
D03*
X735330Y614680D02*
D03*
X755650Y969010D02*
D03*
X737870D02*
D03*
X1197610Y948420D02*
D03*
X762560Y605924D02*
D03*
X772560Y598924D02*
D03*
X777560Y591924D02*
D03*
X767560Y584924D02*
D03*
X734957Y681370D02*
D03*
X734060Y725170D02*
D03*
X727560Y808990D02*
D03*
X793473Y821600D02*
D03*
X800250Y815646D02*
D03*
X863600Y808990D02*
D03*
X795020Y631190D02*
D03*
X792560Y621030D02*
D03*
X732790Y633730D02*
D03*
X698500Y665480D02*
D03*
Y731520D02*
D03*
X678180Y851380D02*
D03*
X1156970Y661670D02*
D03*
X763700Y892810D02*
D03*
X785700D02*
D03*
X914400Y550060D02*
D03*
X928280Y492850D02*
D03*
X915520D02*
D03*
X652780Y514350D02*
D03*
X646430Y508638D02*
D03*
X678180Y897100D02*
D03*
Y805660D02*
D03*
X827560Y831850D02*
D03*
X842560Y825500D02*
D03*
X852560Y817880D02*
D03*
D71*
X1263650Y483870D02*
D03*
D72*
X1097280Y736086D02*
D03*
D73*
X678180Y759940D02*
D03*
M02*
