M48
;Layer_Color=9474304
;FILE_FORMAT=4:4
METRIC,LZ
;TYPE=PLATED
T1F00S00C0.3000
T2F00S00C0.4000
T3F00S00C0.5000
T4F00S00C0.6000
T5F00S00C0.7000
T6F00S00C0.8000
T7F00S00C0.9000
T8F00S00C1.0000
T9F00S00C1.1000
T10F00S00C1.5000
T11F00S00C2.3000
T12F00S00C3.7973
;TYPE=NON_PLATED
T13F00S00C2.3000
%
T01
X01260002Y00497001
X01267002
X01274002
X01263502Y00504001
X01260002Y00511001
X01267002
Y00528001
Y00535001
X01260002
Y00528001
Y00588001
X01267002
X01274002
X01263502Y00595001
X01260002Y00602001
X01267002
Y00619001
Y00626001
X01260002
Y00619001
Y00679001
X01267002
X01274002
X01263502Y00686001
X01260002Y00693001
X01267002
Y00710001
Y00717001
X01260002
Y00710001
Y00770001
X01267002
X01274002
X01263502Y00777001
X01260002Y00784001
X01267002
X013575Y0078
X01365Y00765
X01370001Y0074
X01390001
X01410001
X01400001Y0072
X01380001
X01360001
X01370001Y007
X01390001
X01410001
X01400001Y0068
X01380001
X01360001
X01340001
X01350001Y007
Y0064
X01370001
X01390001
X01410001
X01400001Y0062
X01380001
X01360001
X01370001Y006
X01390001
X01410001
X01400001Y0058
X01380001
X01360001
X01350001Y006
X0135Y00548
X01365
X013575Y00533
X0135Y00518
X01365
X013575Y00503
X0135Y00488
X01365
X01395
X01425
X0144
X01335
X01450001Y006
Y0064
X01440001Y0068
X01450001Y007
Y0074
X0115697Y0066167
X0085856Y0062992
X0079502Y0063119
X00800735Y0068468
X0083756Y00724918
Y0076439
X0079756Y0078867
X0082828Y0056642
X0084201
X009144Y0055006
X0091552Y0049285
X0092828
X0077756Y00591924
X0077256Y00598924
X0076256Y00605924
X0076756Y00584924
X0079256Y0062103
X0073533Y0061468
X0073279Y0063373
X00734957Y0068137
X0075961Y00682625
Y00718185
X0073406Y0072517
X006985Y0073152
Y0066548
X0074788Y0076439
X00770945Y00745863
X0065278Y0051435
X0064643Y00508638
X0067818Y0080566
Y0085138
Y008971
X007637Y0089281
X007857
X00774915Y0091709
X0075565Y0096901
X0073787
X0072756Y0080899
X00793473Y008216
X0078598Y0083213
X0080025Y00815646
X0082756Y0083185
X0082256Y008378
X0084256Y008255
X0085256Y0081788
X008636Y0080899
X0097663Y008128
X0098369Y0084836
X0105283Y0086296
X01085001Y00860001
X01095001
X01105001
X01115001
X01110001Y00850001
X01100001
X01105001Y00840001
X01115001
X01110001Y0083
X01100001
X0113778Y0083551
X01110001Y00910001
X01100001
X01090001
X01095001Y00920001
X01105001
X01100001Y00930001
X01090001
X01080001
X01070001
X01075001Y00940001
X01085001
X01095001
X01105001
X01100001Y00950001
X01090001
X01080001
X01070001
X01075001Y00960001
X01085001
X01095001
X01105001
X01115001
X01085001Y00920001
X01075001
X0104365Y0091709
X0097536Y0096159
X00932603
X00889847
X0084709
X0119761Y0094842
X01270502Y00966002
X01277502
X01284502
X01291502
X01298502
X01295002Y00973002
X01288002
X01281002
X01274002
X01267002
X01270502Y00980002
X01277502
X01284502
X01291502
X01298502
X0128651Y00931279
X01309002Y00906002
Y00899001
X01316002
Y00892001
Y00885001
Y00878001
Y00871001
Y00864001
Y00857001
X01309002
Y00864001
Y00871001
Y00878001
Y00885001
Y00892001
Y00850001
X01302002
Y00857001
X01295002
Y00850001
X01288002
Y00857001
X01281002
Y00850001
X01274002
Y00857001
X01267002
Y00850001
Y00808001
Y00801001
X01260002
Y00808001
X013575Y0081
X0135Y00825
X01365
X013725Y0084
X013875
X014025
X014175
X014325
X014475
X013575
X013425
X013275
X0135Y00795
X01365
T02
X0130358Y00470309
X01219609Y0057023
Y0066167
Y00753111
X010943Y00761486
X010883Y0066421
X0113284Y0067056
X0111597Y006227
X010943Y00578606
X01104039Y0048798
Y00420099
X00842645Y005529
X0084582Y006939
X0088797Y00724918
X00802005Y0076439
X0079756Y006604
X0073406Y006989
X0066256Y0069232
X0068802Y00653571
X0067818Y0075994
X00580121Y0074094
X0057948Y0078982
X00636529Y0058293
X00643631Y0055541
X0060678Y0051063
X00613819Y0046131
X0056273Y00496691
X0052974Y0051943
X0057948Y0083585
X0057356Y008891
X0054856Y00945741
X0058419Y0108459
X00985929Y0079411
X011049Y0079756
X0135291Y00865119
Y00906779
X0139192Y00853642
T03
X0114935Y00872147
T04
X009525Y0066421
T05
X0109728Y00736086
T06
X0126365Y0048387
X0101346Y0098059
X00970551
X0092793
X00884288
T07
X0080518Y0042926
X0083058
X0085598
X0099949Y0054991
Y0057531
Y0060071
Y0062611
Y0065151
Y0067691
Y0070231
Y0072771
Y0075311
X009525
Y0077851
X009271
Y0075311
Y0072771
X009525
Y0070231
X009271
X0077978Y0042926
X0075438
X0072898
X0070358
X0067818
X0065278
X0062738
X0072517Y00826382
Y00851782
X0066358Y010072
X0063818
X0061278
X0058738
Y010326
X0061278
X0063818
X0066358
X0076962Y0104095
Y0107315
X0079462
Y0104095
X0081534Y0085344
X0084074
X0086614
X0089154
X0091694
T08
X0127762Y0043307
Y0045847
X0128183Y0057023
X0130683
Y0066167
X0128183
Y00753111
X0130683
X0142558Y0070367
Y0067827
Y0064779
Y0062239
X0112255Y00511837
X0094755
X0087995Y0050038
X0085455
X0082915
X0080375
X0049467Y005119
Y004865
Y005373
Y005627
Y006008
Y006262
Y006516
Y00677
Y0072399
Y0074939
Y0077479
X0056783Y006989
X0059283
X0059261Y0061722
X0056761
X0049467Y0080019
Y008294
Y008548
Y008802
Y009056
Y0093481
Y0096021
Y0098561
Y0101101
Y0103641
Y0106181
X0077998Y009398
X0080498
X0091885Y0109474
X0094425
X0096965
X0099505
X0103505
X0106045
X0108585
X0111125
X0117412
X0119952
X01425702Y01042924
Y01017524
Y00992124
Y00966724
T09
X0102235Y0083947
Y0086487
Y0089027
X0104902Y0097155
Y0099695
Y0102235
X01129919Y0101252
Y0096252
X013208Y0093933
Y0098933
T10
X0125603Y0107924
X0130683
T11
X0072197Y0104555
X0078212Y0100145
Y0111335
X0084227Y0104555
T12
X0141911Y0043125
X0049911
Y0111125
X0141911
T13
X010718Y0062103
Y00649817
Y00678603
Y0070739
X0063373Y0065913
Y0062357
X0060198Y0075994
Y0080566
Y0085138
Y008971
X0057023Y0110109
X0084709Y0093591
X00889847
X00932603
X0097536
X0122536Y0098299
X0137668Y0086614
X0140716
M30
