G04*
G04 #@! TF.GenerationSoftware,Altium Limited,Altium Designer,22.8.2 (66)*
G04*
G04 Layer_Color=128*
%FSLAX44Y44*%
%MOMM*%
G71*
G04*
G04 #@! TF.SameCoordinates,4CF88A4D-708D-413D-9FA9-C7E86D45AB9B*
G04*
G04*
G04 #@! TF.FilePolarity,Positive*
G04*
G01*
G75*
%ADD76O,1.5000X0.6000*%
%ADD77R,2.7500X1.2500*%
%ADD78R,0.7000X0.9500*%
G04:AMPARAMS|DCode=79|XSize=4.3mm|YSize=4.8mm|CornerRadius=1.075mm|HoleSize=0mm|Usage=FLASHONLY|Rotation=0.000|XOffset=0mm|YOffset=0mm|HoleType=Round|Shape=RoundedRectangle|*
%AMROUNDEDRECTD79*
21,1,4.3000,2.6500,0,0,0.0*
21,1,2.1500,4.8000,0,0,0.0*
1,1,2.1500,1.0750,-1.3250*
1,1,2.1500,-1.0750,-1.3250*
1,1,2.1500,-1.0750,1.3250*
1,1,2.1500,1.0750,1.3250*
%
%ADD79ROUNDEDRECTD79*%
%ADD80R,1.2500X2.7500*%
%ADD81R,0.9500X0.7000*%
%ADD83R,5.6500X6.7000*%
%ADD84R,1.2000X2.9500*%
%ADD86R,0.6000X0.5000*%
%ADD87O,0.6000X1.5000*%
%ADD90R,1.4000X1.2000*%
%ADD91R,1.7500X2.4500*%
%ADD92R,2.4500X1.7500*%
%ADD93R,1.2500X1.7500*%
%ADD94R,0.6000X0.9000*%
%ADD97O,0.4000X1.2200*%
%ADD101R,0.9500X1.4000*%
%ADD102R,4.0000X2.0000*%
%ADD103R,0.5000X0.6000*%
%ADD104R,0.9000X0.6000*%
%ADD105R,1.7500X1.2500*%
%ADD137R,1.7100X2.7000*%
G36*
X578230Y1113590D02*
X576539Y1113588D01*
X576539Y1113588D01*
X575038Y1114239D01*
X571862Y1114995D01*
X568597Y1114996D01*
X565421Y1114240D01*
X563920Y1113590D01*
X562230Y1113590D01*
Y1121590D01*
X578230D01*
Y1113590D01*
D02*
G37*
G36*
Y1088590D02*
Y1080590D01*
X562230D01*
Y1088590D01*
X563920Y1088590D01*
X565421Y1087940D01*
X568597Y1087184D01*
X571862Y1087185D01*
X575038Y1087941D01*
X576539Y1088592D01*
X576539Y1088592D01*
X578230Y1088590D01*
D02*
G37*
G36*
X1245860Y974990D02*
X1237860D01*
X1237860Y976680D01*
X1238510Y978181D01*
X1239266Y981357D01*
X1239265Y984622D01*
X1238509Y987798D01*
X1237858Y989299D01*
X1237858Y989299D01*
X1237860Y990990D01*
X1245860D01*
Y974990D01*
D02*
G37*
G36*
X1212862Y989299D02*
X1212862Y989299D01*
X1212211Y987798D01*
X1211455Y984622D01*
X1211454Y981357D01*
X1212210Y978181D01*
X1212860Y976680D01*
X1212860Y974990D01*
X1204860D01*
Y990990D01*
X1212860D01*
X1212862Y989299D01*
D02*
G37*
G36*
X983360Y948410D02*
X981670Y948410D01*
X980169Y949060D01*
X976993Y949816D01*
X973728Y949815D01*
X970551Y949059D01*
X969051Y948408D01*
X969051Y948408D01*
X967360Y948410D01*
Y956410D01*
X983360D01*
Y948410D01*
D02*
G37*
G36*
X940603D02*
X938913Y948410D01*
X937413Y949060D01*
X934236Y949816D01*
X930971Y949815D01*
X927795Y949059D01*
X926294Y948408D01*
X926294Y948408D01*
X924603Y948410D01*
Y956410D01*
X940603D01*
Y948410D01*
D02*
G37*
G36*
X897847D02*
X896156Y948410D01*
X894656Y949060D01*
X891479Y949816D01*
X888214Y949815D01*
X885038Y949059D01*
X883538Y948408D01*
X883538Y948408D01*
X881847Y948410D01*
Y956410D01*
X897847D01*
Y948410D01*
D02*
G37*
G36*
X855090D02*
X853400Y948410D01*
X851899Y949060D01*
X848723Y949816D01*
X845458Y949815D01*
X842281Y949059D01*
X840781Y948408D01*
X840781Y948408D01*
X839090Y948410D01*
Y956410D01*
X855090D01*
Y948410D01*
D02*
G37*
G36*
X1348994Y946912D02*
X1344930Y940816D01*
X1340866Y946404D01*
Y948944D01*
X1348994D01*
Y946912D01*
D02*
G37*
G36*
Y934022D02*
X1340866D01*
Y943610D01*
X1344930Y938022D01*
X1348994Y944118D01*
Y934022D01*
D02*
G37*
G36*
X970551Y922761D02*
X973728Y922005D01*
X976993Y922004D01*
X980169Y922760D01*
X981670Y923410D01*
X983360Y923410D01*
Y915410D01*
X967360D01*
Y923410D01*
X969051Y923412D01*
X970551Y922761D01*
D02*
G37*
G36*
X927795D02*
X930971Y922005D01*
X934236Y922004D01*
X937413Y922760D01*
X938913Y923410D01*
X940603Y923410D01*
Y915410D01*
X924603D01*
Y923410D01*
X926294Y923412D01*
X927795Y922761D01*
D02*
G37*
G36*
X885038D02*
X888214Y922005D01*
X891479Y922004D01*
X894656Y922760D01*
X896156Y923410D01*
X897847Y923410D01*
Y915410D01*
X881847D01*
Y923410D01*
X883538Y923412D01*
X885038Y922761D01*
D02*
G37*
G36*
X842281D02*
X845458Y922005D01*
X848723Y922004D01*
X851899Y922760D01*
X853400Y923410D01*
X855090Y923410D01*
Y915410D01*
X839090D01*
Y923410D01*
X840781Y923412D01*
X842281Y922761D01*
D02*
G37*
G36*
X622480Y889100D02*
X614480D01*
X614478Y890791D01*
X614478Y890791D01*
X615129Y892291D01*
X615885Y895468D01*
X615886Y898733D01*
X615130Y901909D01*
X614480Y903410D01*
X614480Y905100D01*
X622480D01*
Y889100D01*
D02*
G37*
G36*
X589480Y903410D02*
X588830Y901909D01*
X588074Y898733D01*
X588075Y895468D01*
X588831Y892291D01*
X589482Y890791D01*
X589480Y889100D01*
X581480D01*
Y905100D01*
X589480D01*
X589480Y903410D01*
D02*
G37*
G36*
X1415160Y878640D02*
X1413469Y878638D01*
X1413469Y878638D01*
X1411969Y879289D01*
X1408792Y880045D01*
X1405527Y880046D01*
X1402351Y879290D01*
X1400850Y878640D01*
X1399160Y878640D01*
Y886640D01*
X1415160D01*
Y878640D01*
D02*
G37*
G36*
X1384680D02*
X1382989Y878638D01*
X1382989Y878638D01*
X1381488Y879289D01*
X1378312Y880045D01*
X1375047Y880046D01*
X1371871Y879290D01*
X1370370Y878640D01*
X1368680Y878640D01*
Y886640D01*
X1384680D01*
Y878640D01*
D02*
G37*
G36*
X1415160Y853640D02*
Y845640D01*
X1399160D01*
Y853640D01*
X1400850Y853640D01*
X1402351Y852990D01*
X1405527Y852234D01*
X1408792Y852235D01*
X1411969Y852991D01*
X1413469Y853642D01*
X1413469Y853642D01*
X1415160Y853640D01*
D02*
G37*
G36*
X1384680D02*
Y845640D01*
X1368680D01*
Y853640D01*
X1370370Y853640D01*
X1371871Y852990D01*
X1375047Y852234D01*
X1378312Y852235D01*
X1381488Y852991D01*
X1382989Y853642D01*
X1382989Y853642D01*
X1384680Y853640D01*
D02*
G37*
G36*
X622480Y843380D02*
X614480D01*
X614478Y845071D01*
X614478Y845071D01*
X615129Y846571D01*
X615885Y849748D01*
X615886Y853013D01*
X615130Y856189D01*
X614480Y857690D01*
X614480Y859380D01*
X622480D01*
Y843380D01*
D02*
G37*
G36*
X589480Y857690D02*
X588830Y856189D01*
X588074Y853013D01*
X588075Y849748D01*
X588831Y846571D01*
X589482Y845071D01*
X589480Y843380D01*
X581480D01*
Y859380D01*
X589480D01*
X589480Y857690D01*
D02*
G37*
G36*
X1331728Y821932D02*
X1331736Y821670D01*
X1331762Y821409D01*
X1331805Y821151D01*
X1331864Y820896D01*
X1331940Y820645D01*
X1332032Y820400D01*
X1332141Y820162D01*
X1332264Y819931D01*
X1332402Y819708D01*
X1332555Y819495D01*
X1332721Y819293D01*
X1332900Y819102D01*
X1333091Y818923D01*
X1333294Y818756D01*
X1333507Y818604D01*
X1333729Y818466D01*
X1333960Y818342D01*
X1334198Y818234D01*
X1334444Y818142D01*
X1334694Y818066D01*
X1334949Y818006D01*
X1335208Y817964D01*
X1335468Y817938D01*
X1335730Y817930D01*
X1339589D01*
X1339529Y817898D01*
X1339306Y817759D01*
X1339094Y817607D01*
X1338891Y817441D01*
X1338700Y817262D01*
X1338521Y817070D01*
X1338355Y816868D01*
X1338202Y816655D01*
X1338064Y816433D01*
X1337941Y816202D01*
X1337832Y815963D01*
X1337740Y815718D01*
X1337664Y815468D01*
X1337605Y815212D01*
X1337562Y814954D01*
X1337536Y814693D01*
X1337528Y814432D01*
Y808632D01*
X1337536Y808370D01*
X1337562Y808109D01*
X1337605Y807851D01*
X1337664Y807596D01*
X1337740Y807345D01*
X1337832Y807100D01*
X1337941Y806861D01*
X1338064Y806631D01*
X1338202Y806408D01*
X1338355Y806195D01*
X1338521Y805993D01*
X1338700Y805802D01*
X1338891Y805623D01*
X1339094Y805456D01*
X1339306Y805304D01*
X1339529Y805166D01*
X1339589Y805134D01*
X1302733D01*
Y822579D01*
X1308729D01*
Y821932D01*
X1308737Y821670D01*
X1308763Y821409D01*
X1308806Y821151D01*
X1308865Y820896D01*
X1308941Y820645D01*
X1309033Y820400D01*
X1309141Y820162D01*
X1309265Y819931D01*
X1309403Y819708D01*
X1309556Y819495D01*
X1309722Y819293D01*
X1309901Y819102D01*
X1310092Y818923D01*
X1310294Y818756D01*
X1310507Y818604D01*
X1310730Y818466D01*
X1310961Y818342D01*
X1311199Y818234D01*
X1311444Y818142D01*
X1311695Y818066D01*
X1311950Y818006D01*
X1312208Y817964D01*
X1312469Y817938D01*
X1312731Y817930D01*
X1321730D01*
X1321752Y817930D01*
X1321773Y817930D01*
X1321882Y817934D01*
X1321992Y817938D01*
X1322013Y817940D01*
X1322035Y817941D01*
X1322144Y817953D01*
X1322252Y817964D01*
X1322274Y817967D01*
X1322295Y817970D01*
X1322403Y817989D01*
X1322511Y818006D01*
X1322532Y818011D01*
X1322553Y818015D01*
X1322659Y818041D01*
X1322766Y818066D01*
X1322786Y818072D01*
X1322807Y818077D01*
X1322912Y818110D01*
X1323017Y818142D01*
X1323036Y818149D01*
X1323057Y818156D01*
X1323160Y818196D01*
X1323262Y818234D01*
X1323281Y818243D01*
X1323301Y818251D01*
X1323400Y818297D01*
X1323500Y818342D01*
X1323519Y818352D01*
X1323539Y818362D01*
X1323635Y818414D01*
X1323731Y818466D01*
X1323749Y818477D01*
X1323768Y818487D01*
X1323861Y818546D01*
X1323954Y818604D01*
X1323971Y818616D01*
X1323989Y818628D01*
X1324077Y818693D01*
X1324166Y818756D01*
X1324183Y818770D01*
X1324200Y818783D01*
X1324284Y818853D01*
X1324369Y818923D01*
X1324384Y818937D01*
X1324401Y818951D01*
X1324480Y819027D01*
X1324560Y819102D01*
X1324575Y819117D01*
X1324590Y819132D01*
X1324664Y819213D01*
X1324739Y819293D01*
X1324753Y819310D01*
X1324767Y819325D01*
X1324835Y819410D01*
X1324905Y819495D01*
X1324918Y819513D01*
X1324931Y819530D01*
X1324994Y819619D01*
X1325058Y819708D01*
X1325069Y819726D01*
X1325081Y819744D01*
X1325138Y819838D01*
X1325196Y819931D01*
X1325206Y819950D01*
X1325217Y819968D01*
X1325267Y820064D01*
X1325319Y820162D01*
X1325328Y820181D01*
X1325338Y820200D01*
X1325382Y820300D01*
X1325428Y820400D01*
X1325435Y820420D01*
X1325444Y820440D01*
X1325481Y820543D01*
X1325520Y820645D01*
X1325526Y820666D01*
X1325533Y820686D01*
X1325564Y820791D01*
X1325596Y820896D01*
X1325601Y820917D01*
X1325607Y820937D01*
X1325631Y821045D01*
X1325655Y821151D01*
X1325659Y821172D01*
X1325663Y821193D01*
X1325680Y821301D01*
X1325698Y821409D01*
X1325700Y821431D01*
X1325703Y821452D01*
X1325713Y821561D01*
X1325724Y821670D01*
X1325724Y821691D01*
X1325726Y821713D01*
X1325729Y821823D01*
X1325732Y821932D01*
X1325731Y821953D01*
X1325732Y821975D01*
X1325725Y822579D01*
X1331728D01*
Y821932D01*
D02*
G37*
G36*
X622480Y797660D02*
X614480D01*
X614478Y799351D01*
X614478Y799351D01*
X615129Y800851D01*
X615885Y804028D01*
X615886Y807293D01*
X615130Y810469D01*
X614480Y811970D01*
X614480Y813660D01*
X622480D01*
Y797660D01*
D02*
G37*
G36*
X589480Y811970D02*
X588830Y810469D01*
X588074Y807293D01*
X588075Y804028D01*
X588831Y800851D01*
X589482Y799351D01*
X589480Y797660D01*
X581480D01*
Y813660D01*
X589480D01*
X589480Y811970D01*
D02*
G37*
G36*
X1339525Y792496D02*
X1339303Y792358D01*
X1339090Y792205D01*
X1338887Y792039D01*
X1338696Y791860D01*
X1338517Y791669D01*
X1338351Y791466D01*
X1338198Y791254D01*
X1338060Y791031D01*
X1337937Y790800D01*
X1337829Y790562D01*
X1337736Y790316D01*
X1337660Y790066D01*
X1337601Y789811D01*
X1337558Y789552D01*
X1337533Y789292D01*
X1337524Y789030D01*
Y783230D01*
X1337533Y782968D01*
X1337558Y782708D01*
X1337601Y782449D01*
X1337660Y782194D01*
X1337736Y781944D01*
X1337829Y781699D01*
X1337937Y781460D01*
X1338060Y781229D01*
X1338198Y781006D01*
X1338351Y780794D01*
X1338517Y780591D01*
X1338696Y780400D01*
X1338887Y780221D01*
X1339090Y780055D01*
X1339303Y779902D01*
X1339525Y779764D01*
X1339585Y779732D01*
X1335726D01*
X1335464Y779724D01*
X1335204Y779698D01*
X1334945Y779655D01*
X1334690Y779596D01*
X1334440Y779520D01*
X1334194Y779427D01*
X1333956Y779319D01*
X1333725Y779196D01*
X1333503Y779058D01*
X1333290Y778905D01*
X1333087Y778739D01*
X1332896Y778560D01*
X1332717Y778369D01*
X1332551Y778166D01*
X1332398Y777953D01*
X1332260Y777731D01*
X1332137Y777500D01*
X1332029Y777262D01*
X1331936Y777016D01*
X1331860Y776766D01*
X1331801Y776511D01*
X1331758Y776252D01*
X1331732Y775992D01*
X1331724Y775730D01*
Y775082D01*
X1325721D01*
X1325728Y775687D01*
X1325727Y775708D01*
X1325728Y775730D01*
X1325725Y775839D01*
X1325722Y775949D01*
X1325720Y775970D01*
X1325720Y775992D01*
X1325709Y776101D01*
X1325699Y776210D01*
X1325696Y776231D01*
X1325694Y776252D01*
X1325676Y776360D01*
X1325659Y776469D01*
X1325655Y776490D01*
X1325651Y776511D01*
X1325627Y776617D01*
X1325603Y776724D01*
X1325597Y776745D01*
X1325592Y776766D01*
X1325560Y776871D01*
X1325529Y776976D01*
X1325522Y776996D01*
X1325516Y777016D01*
X1325477Y777119D01*
X1325440Y777222D01*
X1325431Y777241D01*
X1325423Y777262D01*
X1325378Y777362D01*
X1325334Y777461D01*
X1325324Y777480D01*
X1325315Y777500D01*
X1325263Y777598D01*
X1325213Y777694D01*
X1325202Y777712D01*
X1325192Y777731D01*
X1325134Y777824D01*
X1325077Y777917D01*
X1325065Y777935D01*
X1325054Y777953D01*
X1324990Y778043D01*
X1324927Y778132D01*
X1324914Y778149D01*
X1324901Y778166D01*
X1324831Y778252D01*
X1324763Y778336D01*
X1324749Y778352D01*
X1324735Y778369D01*
X1324660Y778449D01*
X1324586Y778529D01*
X1324571Y778544D01*
X1324556Y778560D01*
X1324476Y778635D01*
X1324397Y778710D01*
X1324380Y778724D01*
X1324365Y778739D01*
X1324280Y778808D01*
X1324196Y778879D01*
X1324179Y778891D01*
X1324162Y778905D01*
X1324073Y778969D01*
X1323985Y779034D01*
X1323967Y779045D01*
X1323949Y779058D01*
X1323857Y779115D01*
X1323764Y779174D01*
X1323745Y779185D01*
X1323727Y779196D01*
X1323631Y779248D01*
X1323535Y779300D01*
X1323515Y779309D01*
X1323496Y779319D01*
X1323396Y779365D01*
X1323297Y779411D01*
X1323277Y779419D01*
X1323258Y779427D01*
X1323156Y779466D01*
X1323053Y779506D01*
X1323032Y779512D01*
X1323013Y779520D01*
X1322908Y779551D01*
X1322803Y779584D01*
X1322782Y779589D01*
X1322762Y779596D01*
X1322655Y779621D01*
X1322549Y779647D01*
X1322528Y779650D01*
X1322507Y779655D01*
X1322399Y779673D01*
X1322291Y779692D01*
X1322269Y779694D01*
X1322248Y779698D01*
X1322140Y779709D01*
X1322031Y779721D01*
X1322009Y779722D01*
X1321988Y779724D01*
X1321878Y779727D01*
X1321769Y779732D01*
X1321747Y779731D01*
X1321726Y779732D01*
X1312727D01*
X1312465Y779724D01*
X1312204Y779698D01*
X1311946Y779655D01*
X1311691Y779596D01*
X1311440Y779520D01*
X1311195Y779427D01*
X1310957Y779319D01*
X1310726Y779196D01*
X1310503Y779058D01*
X1310291Y778905D01*
X1310088Y778739D01*
X1309897Y778560D01*
X1309718Y778369D01*
X1309552Y778166D01*
X1309399Y777953D01*
X1309261Y777731D01*
X1309137Y777500D01*
X1309029Y777262D01*
X1308937Y777016D01*
X1308861Y776766D01*
X1308802Y776511D01*
X1308759Y776252D01*
X1308733Y775992D01*
X1308725Y775730D01*
Y775082D01*
X1302729D01*
Y792528D01*
X1339585D01*
X1339525Y792496D01*
D02*
G37*
G36*
X622480Y751940D02*
X614480D01*
X614478Y753631D01*
X614478Y753631D01*
X615129Y755132D01*
X615885Y758308D01*
X615886Y761573D01*
X615130Y764749D01*
X614480Y766250D01*
X614480Y767940D01*
X622480D01*
Y751940D01*
D02*
G37*
G36*
X589480Y766250D02*
X588830Y764749D01*
X588074Y761573D01*
X588075Y758308D01*
X588831Y755132D01*
X589482Y753631D01*
X589480Y751940D01*
X581480D01*
Y767940D01*
X589480D01*
X589480Y766250D01*
D02*
G37*
G36*
X1181398Y749047D02*
X1171810D01*
X1177398Y753111D01*
X1171302Y757175D01*
X1181398D01*
Y749047D01*
D02*
G37*
G36*
X1174604Y753111D02*
X1169016Y749047D01*
X1166476D01*
Y757175D01*
X1168508D01*
X1174604Y753111D01*
D02*
G37*
G36*
X1331728Y730492D02*
X1331736Y730230D01*
X1331762Y729969D01*
X1331805Y729711D01*
X1331864Y729456D01*
X1331940Y729205D01*
X1332032Y728960D01*
X1332141Y728721D01*
X1332264Y728491D01*
X1332402Y728268D01*
X1332555Y728055D01*
X1332721Y727853D01*
X1332900Y727662D01*
X1333091Y727483D01*
X1333294Y727317D01*
X1333507Y727164D01*
X1333729Y727026D01*
X1333960Y726902D01*
X1334198Y726794D01*
X1334444Y726702D01*
X1334694Y726626D01*
X1334949Y726566D01*
X1335208Y726524D01*
X1335468Y726498D01*
X1335730Y726489D01*
X1339589D01*
X1339529Y726458D01*
X1339306Y726319D01*
X1339094Y726167D01*
X1338891Y726001D01*
X1338700Y725822D01*
X1338521Y725630D01*
X1338355Y725428D01*
X1338202Y725215D01*
X1338064Y724993D01*
X1337941Y724762D01*
X1337832Y724523D01*
X1337740Y724278D01*
X1337664Y724027D01*
X1337605Y723772D01*
X1337562Y723514D01*
X1337536Y723253D01*
X1337528Y722992D01*
Y717192D01*
X1337536Y716930D01*
X1337562Y716669D01*
X1337605Y716411D01*
X1337664Y716156D01*
X1337740Y715905D01*
X1337832Y715660D01*
X1337941Y715422D01*
X1338064Y715191D01*
X1338202Y714968D01*
X1338355Y714755D01*
X1338521Y714553D01*
X1338700Y714362D01*
X1338891Y714183D01*
X1339094Y714016D01*
X1339306Y713864D01*
X1339529Y713726D01*
X1339589Y713694D01*
X1302733D01*
Y731140D01*
X1308729D01*
Y730492D01*
X1308737Y730230D01*
X1308763Y729969D01*
X1308806Y729711D01*
X1308865Y729456D01*
X1308941Y729205D01*
X1309033Y728960D01*
X1309141Y728721D01*
X1309265Y728491D01*
X1309403Y728268D01*
X1309556Y728055D01*
X1309722Y727853D01*
X1309901Y727662D01*
X1310092Y727483D01*
X1310294Y727317D01*
X1310507Y727164D01*
X1310730Y727026D01*
X1310961Y726902D01*
X1311199Y726794D01*
X1311444Y726702D01*
X1311695Y726626D01*
X1311950Y726566D01*
X1312208Y726524D01*
X1312469Y726498D01*
X1312731Y726489D01*
X1321730D01*
X1321752Y726490D01*
X1321773Y726490D01*
X1321882Y726495D01*
X1321992Y726498D01*
X1322013Y726500D01*
X1322035Y726501D01*
X1322144Y726513D01*
X1322252Y726524D01*
X1322274Y726527D01*
X1322295Y726530D01*
X1322403Y726549D01*
X1322511Y726566D01*
X1322532Y726571D01*
X1322553Y726575D01*
X1322659Y726601D01*
X1322766Y726626D01*
X1322786Y726632D01*
X1322807Y726637D01*
X1322912Y726670D01*
X1323017Y726702D01*
X1323036Y726709D01*
X1323057Y726716D01*
X1323160Y726756D01*
X1323262Y726794D01*
X1323281Y726803D01*
X1323301Y726811D01*
X1323400Y726857D01*
X1323500Y726902D01*
X1323519Y726912D01*
X1323539Y726921D01*
X1323635Y726974D01*
X1323731Y727026D01*
X1323749Y727037D01*
X1323768Y727047D01*
X1323861Y727106D01*
X1323954Y727164D01*
X1323971Y727177D01*
X1323989Y727188D01*
X1324077Y727253D01*
X1324166Y727317D01*
X1324183Y727330D01*
X1324200Y727343D01*
X1324284Y727413D01*
X1324369Y727483D01*
X1324384Y727497D01*
X1324401Y727511D01*
X1324480Y727587D01*
X1324560Y727662D01*
X1324575Y727677D01*
X1324590Y727692D01*
X1324664Y727773D01*
X1324739Y727853D01*
X1324753Y727870D01*
X1324767Y727885D01*
X1324835Y727970D01*
X1324905Y728055D01*
X1324918Y728073D01*
X1324931Y728090D01*
X1324994Y728179D01*
X1325058Y728268D01*
X1325069Y728286D01*
X1325081Y728304D01*
X1325138Y728398D01*
X1325196Y728491D01*
X1325206Y728510D01*
X1325217Y728528D01*
X1325267Y728624D01*
X1325319Y728721D01*
X1325328Y728741D01*
X1325338Y728760D01*
X1325382Y728860D01*
X1325428Y728960D01*
X1325435Y728980D01*
X1325444Y729000D01*
X1325481Y729102D01*
X1325520Y729205D01*
X1325526Y729226D01*
X1325533Y729246D01*
X1325564Y729351D01*
X1325596Y729456D01*
X1325601Y729477D01*
X1325607Y729497D01*
X1325631Y729605D01*
X1325655Y729711D01*
X1325659Y729732D01*
X1325663Y729753D01*
X1325680Y729861D01*
X1325698Y729969D01*
X1325700Y729991D01*
X1325703Y730012D01*
X1325713Y730121D01*
X1325724Y730230D01*
X1325724Y730251D01*
X1325726Y730273D01*
X1325729Y730383D01*
X1325732Y730492D01*
X1325731Y730513D01*
X1325732Y730535D01*
X1325725Y731140D01*
X1331728D01*
Y730492D01*
D02*
G37*
G36*
X1128458Y716026D02*
X1118870D01*
X1124458Y720090D01*
X1118362Y724154D01*
X1128458D01*
Y716026D01*
D02*
G37*
G36*
X1121664Y720090D02*
X1116076Y716026D01*
X1113536D01*
Y724154D01*
X1115568D01*
X1121664Y720090D01*
D02*
G37*
G36*
X1092300Y699390D02*
X1084300D01*
X1084300Y701080D01*
X1084950Y702581D01*
X1085706Y705757D01*
X1085706Y709022D01*
X1084949Y712198D01*
X1084298Y713699D01*
X1084298Y713699D01*
X1084300Y715390D01*
X1092300D01*
Y699390D01*
D02*
G37*
G36*
X1059302Y713699D02*
X1059302Y713699D01*
X1058652Y712198D01*
X1057895Y709022D01*
X1057894Y705757D01*
X1058650Y702581D01*
X1059300Y701080D01*
X1059300Y699390D01*
X1051300D01*
Y715390D01*
X1059300D01*
X1059302Y713699D01*
D02*
G37*
G36*
X1339525Y701056D02*
X1339303Y700918D01*
X1339090Y700765D01*
X1338887Y700599D01*
X1338696Y700420D01*
X1338517Y700229D01*
X1338351Y700026D01*
X1338198Y699814D01*
X1338060Y699591D01*
X1337937Y699360D01*
X1337829Y699121D01*
X1337736Y698876D01*
X1337660Y698626D01*
X1337601Y698371D01*
X1337558Y698112D01*
X1337533Y697852D01*
X1337524Y697590D01*
Y691790D01*
X1337533Y691528D01*
X1337558Y691268D01*
X1337601Y691009D01*
X1337660Y690754D01*
X1337736Y690504D01*
X1337829Y690258D01*
X1337937Y690020D01*
X1338060Y689789D01*
X1338198Y689566D01*
X1338351Y689354D01*
X1338517Y689151D01*
X1338696Y688960D01*
X1338887Y688781D01*
X1339090Y688615D01*
X1339303Y688462D01*
X1339525Y688324D01*
X1339585Y688292D01*
X1335726D01*
X1335464Y688284D01*
X1335204Y688258D01*
X1334945Y688215D01*
X1334690Y688156D01*
X1334440Y688080D01*
X1334194Y687988D01*
X1333956Y687879D01*
X1333725Y687756D01*
X1333503Y687618D01*
X1333290Y687465D01*
X1333087Y687299D01*
X1332896Y687120D01*
X1332717Y686929D01*
X1332551Y686726D01*
X1332398Y686514D01*
X1332260Y686291D01*
X1332137Y686060D01*
X1332029Y685822D01*
X1331936Y685576D01*
X1331860Y685326D01*
X1331801Y685071D01*
X1331758Y684812D01*
X1331732Y684552D01*
X1331724Y684290D01*
Y683642D01*
X1325721D01*
X1325728Y684247D01*
X1325727Y684268D01*
X1325728Y684290D01*
X1325725Y684399D01*
X1325722Y684509D01*
X1325720Y684530D01*
X1325720Y684552D01*
X1325709Y684661D01*
X1325699Y684770D01*
X1325696Y684791D01*
X1325694Y684812D01*
X1325676Y684920D01*
X1325659Y685029D01*
X1325655Y685050D01*
X1325651Y685071D01*
X1325627Y685177D01*
X1325603Y685284D01*
X1325597Y685305D01*
X1325592Y685326D01*
X1325560Y685431D01*
X1325529Y685536D01*
X1325522Y685556D01*
X1325516Y685576D01*
X1325477Y685679D01*
X1325440Y685782D01*
X1325431Y685801D01*
X1325423Y685822D01*
X1325378Y685921D01*
X1325334Y686021D01*
X1325324Y686040D01*
X1325315Y686060D01*
X1325263Y686158D01*
X1325213Y686254D01*
X1325202Y686272D01*
X1325192Y686291D01*
X1325134Y686384D01*
X1325077Y686478D01*
X1325065Y686495D01*
X1325054Y686514D01*
X1324990Y686603D01*
X1324927Y686692D01*
X1324914Y686709D01*
X1324901Y686726D01*
X1324831Y686812D01*
X1324763Y686896D01*
X1324749Y686912D01*
X1324735Y686929D01*
X1324660Y687009D01*
X1324586Y687089D01*
X1324571Y687104D01*
X1324556Y687120D01*
X1324476Y687195D01*
X1324397Y687270D01*
X1324380Y687284D01*
X1324365Y687299D01*
X1324280Y687368D01*
X1324196Y687439D01*
X1324179Y687451D01*
X1324162Y687465D01*
X1324073Y687529D01*
X1323985Y687594D01*
X1323967Y687605D01*
X1323949Y687618D01*
X1323857Y687675D01*
X1323764Y687734D01*
X1323745Y687745D01*
X1323727Y687756D01*
X1323631Y687807D01*
X1323535Y687860D01*
X1323515Y687869D01*
X1323496Y687879D01*
X1323396Y687925D01*
X1323297Y687971D01*
X1323277Y687979D01*
X1323258Y687988D01*
X1323156Y688026D01*
X1323053Y688066D01*
X1323032Y688072D01*
X1323013Y688080D01*
X1322908Y688111D01*
X1322803Y688144D01*
X1322782Y688149D01*
X1322762Y688156D01*
X1322655Y688181D01*
X1322549Y688207D01*
X1322528Y688210D01*
X1322507Y688215D01*
X1322399Y688233D01*
X1322291Y688252D01*
X1322269Y688254D01*
X1322248Y688258D01*
X1322140Y688269D01*
X1322031Y688280D01*
X1322009Y688281D01*
X1321988Y688284D01*
X1321878Y688287D01*
X1321769Y688292D01*
X1321747Y688291D01*
X1321726Y688292D01*
X1312727D01*
X1312465Y688284D01*
X1312204Y688258D01*
X1311946Y688215D01*
X1311691Y688156D01*
X1311440Y688080D01*
X1311195Y687988D01*
X1310957Y687879D01*
X1310726Y687756D01*
X1310503Y687618D01*
X1310291Y687465D01*
X1310088Y687299D01*
X1309897Y687120D01*
X1309718Y686929D01*
X1309552Y686726D01*
X1309399Y686514D01*
X1309261Y686291D01*
X1309137Y686060D01*
X1309029Y685822D01*
X1308937Y685576D01*
X1308861Y685326D01*
X1308802Y685071D01*
X1308759Y684812D01*
X1308733Y684552D01*
X1308725Y684290D01*
Y683642D01*
X1302729D01*
Y701088D01*
X1339585D01*
X1339525Y701056D01*
D02*
G37*
G36*
X1092300Y670603D02*
X1084300D01*
X1084300Y672293D01*
X1084950Y673794D01*
X1085706Y676970D01*
X1085706Y680236D01*
X1084949Y683412D01*
X1084298Y684912D01*
X1084298Y684912D01*
X1084300Y686603D01*
X1092300D01*
Y670603D01*
D02*
G37*
G36*
X1059302Y684912D02*
X1059302Y684912D01*
X1058652Y683412D01*
X1057895Y680236D01*
X1057894Y676970D01*
X1058650Y673794D01*
X1059300Y672293D01*
X1059300Y670603D01*
X1051300D01*
Y686603D01*
X1059300D01*
X1059302Y684912D01*
D02*
G37*
G36*
X654230Y651130D02*
X646230D01*
X646228Y652821D01*
X646228Y652821D01*
X646879Y654321D01*
X647635Y657498D01*
X647636Y660763D01*
X646880Y663939D01*
X646230Y665440D01*
X646230Y667130D01*
X654230D01*
Y651130D01*
D02*
G37*
G36*
X621230Y665440D02*
X620580Y663939D01*
X619824Y660763D01*
X619825Y657498D01*
X620581Y654322D01*
X621232Y652821D01*
X621230Y651130D01*
X613230D01*
Y667130D01*
X621230D01*
X621230Y665440D01*
D02*
G37*
G36*
X1129284Y648973D02*
X1127252D01*
X1121156Y653037D01*
X1126744Y657101D01*
X1129284D01*
Y648973D01*
D02*
G37*
G36*
X1118362Y653037D02*
X1124458Y648973D01*
X1114362D01*
Y657101D01*
X1123950D01*
X1118362Y653037D01*
D02*
G37*
G36*
X1092300Y641817D02*
X1084300D01*
X1084300Y643507D01*
X1084950Y645007D01*
X1085706Y648184D01*
X1085706Y651449D01*
X1084949Y654625D01*
X1084298Y656125D01*
X1084298Y656125D01*
X1084300Y657817D01*
X1092300D01*
Y641817D01*
D02*
G37*
G36*
X1059302Y656125D02*
X1059302Y656125D01*
X1058652Y654625D01*
X1057895Y651449D01*
X1057894Y648184D01*
X1058650Y645007D01*
X1059300Y643507D01*
X1059300Y641817D01*
X1051300D01*
Y657817D01*
X1059300D01*
X1059302Y656125D01*
D02*
G37*
G36*
X1331728Y639052D02*
X1331736Y638790D01*
X1331762Y638529D01*
X1331805Y638271D01*
X1331864Y638016D01*
X1331940Y637765D01*
X1332032Y637520D01*
X1332141Y637281D01*
X1332264Y637051D01*
X1332402Y636828D01*
X1332555Y636615D01*
X1332721Y636413D01*
X1332900Y636222D01*
X1333091Y636043D01*
X1333294Y635877D01*
X1333507Y635724D01*
X1333729Y635586D01*
X1333960Y635462D01*
X1334198Y635354D01*
X1334444Y635262D01*
X1334694Y635186D01*
X1334949Y635126D01*
X1335208Y635084D01*
X1335468Y635058D01*
X1335730Y635050D01*
X1339589D01*
X1339529Y635018D01*
X1339306Y634879D01*
X1339094Y634727D01*
X1338891Y634561D01*
X1338700Y634382D01*
X1338521Y634190D01*
X1338355Y633988D01*
X1338202Y633775D01*
X1338064Y633553D01*
X1337941Y633322D01*
X1337832Y633083D01*
X1337740Y632838D01*
X1337664Y632588D01*
X1337605Y632332D01*
X1337562Y632074D01*
X1337536Y631813D01*
X1337528Y631552D01*
Y625752D01*
X1337536Y625490D01*
X1337562Y625229D01*
X1337605Y624971D01*
X1337664Y624716D01*
X1337740Y624465D01*
X1337832Y624220D01*
X1337941Y623982D01*
X1338064Y623751D01*
X1338202Y623528D01*
X1338355Y623315D01*
X1338521Y623113D01*
X1338700Y622922D01*
X1338891Y622743D01*
X1339094Y622576D01*
X1339306Y622424D01*
X1339529Y622286D01*
X1339589Y622254D01*
X1302733D01*
Y639700D01*
X1308729D01*
Y639052D01*
X1308737Y638790D01*
X1308763Y638529D01*
X1308806Y638271D01*
X1308865Y638016D01*
X1308941Y637765D01*
X1309033Y637520D01*
X1309141Y637281D01*
X1309265Y637051D01*
X1309403Y636828D01*
X1309556Y636615D01*
X1309722Y636413D01*
X1309901Y636222D01*
X1310092Y636043D01*
X1310294Y635877D01*
X1310507Y635724D01*
X1310730Y635586D01*
X1310961Y635462D01*
X1311199Y635354D01*
X1311444Y635262D01*
X1311695Y635186D01*
X1311950Y635126D01*
X1312208Y635084D01*
X1312469Y635058D01*
X1312731Y635050D01*
X1321730D01*
X1321752Y635050D01*
X1321773Y635050D01*
X1321882Y635055D01*
X1321992Y635058D01*
X1322013Y635060D01*
X1322035Y635061D01*
X1322144Y635073D01*
X1322252Y635084D01*
X1322274Y635087D01*
X1322295Y635090D01*
X1322403Y635109D01*
X1322511Y635126D01*
X1322532Y635131D01*
X1322553Y635135D01*
X1322659Y635161D01*
X1322766Y635186D01*
X1322786Y635192D01*
X1322807Y635197D01*
X1322912Y635230D01*
X1323017Y635262D01*
X1323036Y635269D01*
X1323057Y635276D01*
X1323160Y635316D01*
X1323262Y635354D01*
X1323281Y635363D01*
X1323301Y635371D01*
X1323400Y635417D01*
X1323500Y635462D01*
X1323519Y635472D01*
X1323539Y635481D01*
X1323635Y635534D01*
X1323731Y635586D01*
X1323749Y635597D01*
X1323768Y635607D01*
X1323861Y635666D01*
X1323954Y635724D01*
X1323971Y635737D01*
X1323989Y635748D01*
X1324077Y635813D01*
X1324166Y635877D01*
X1324183Y635890D01*
X1324200Y635903D01*
X1324284Y635973D01*
X1324369Y636043D01*
X1324384Y636057D01*
X1324401Y636071D01*
X1324480Y636147D01*
X1324560Y636222D01*
X1324575Y636237D01*
X1324590Y636252D01*
X1324664Y636333D01*
X1324739Y636413D01*
X1324753Y636430D01*
X1324767Y636445D01*
X1324835Y636530D01*
X1324905Y636615D01*
X1324918Y636633D01*
X1324931Y636650D01*
X1324994Y636739D01*
X1325058Y636828D01*
X1325069Y636846D01*
X1325081Y636864D01*
X1325138Y636958D01*
X1325196Y637051D01*
X1325206Y637070D01*
X1325217Y637088D01*
X1325267Y637184D01*
X1325319Y637281D01*
X1325328Y637301D01*
X1325338Y637320D01*
X1325382Y637420D01*
X1325428Y637520D01*
X1325435Y637540D01*
X1325444Y637560D01*
X1325481Y637663D01*
X1325520Y637765D01*
X1325526Y637786D01*
X1325533Y637806D01*
X1325564Y637911D01*
X1325596Y638016D01*
X1325601Y638037D01*
X1325607Y638057D01*
X1325631Y638165D01*
X1325655Y638271D01*
X1325659Y638292D01*
X1325663Y638313D01*
X1325680Y638421D01*
X1325698Y638529D01*
X1325700Y638551D01*
X1325703Y638572D01*
X1325713Y638681D01*
X1325724Y638790D01*
X1325724Y638811D01*
X1325726Y638833D01*
X1325729Y638943D01*
X1325732Y639052D01*
X1325731Y639073D01*
X1325732Y639095D01*
X1325725Y639700D01*
X1331728D01*
Y639052D01*
D02*
G37*
G36*
X654230Y615570D02*
X646230D01*
X646228Y617261D01*
X646228Y617261D01*
X646879Y618761D01*
X647635Y621938D01*
X647636Y625203D01*
X646880Y628379D01*
X646230Y629880D01*
X646230Y631570D01*
X654230D01*
Y615570D01*
D02*
G37*
G36*
X621230Y629880D02*
X620580Y628379D01*
X619824Y625203D01*
X619825Y621938D01*
X620581Y618761D01*
X621232Y617261D01*
X621230Y615570D01*
X613230D01*
Y631570D01*
X621230D01*
X621230Y629880D01*
D02*
G37*
G36*
X550758Y613156D02*
X541170D01*
X546758Y617220D01*
X540662Y621284D01*
X550758D01*
Y613156D01*
D02*
G37*
G36*
X543964Y617220D02*
X538376Y613156D01*
X535836D01*
Y621284D01*
X537868D01*
X543964Y617220D01*
D02*
G37*
G36*
X1092300Y613030D02*
X1084300D01*
X1084300Y614720D01*
X1084950Y616221D01*
X1085706Y619397D01*
X1085706Y622662D01*
X1084949Y625839D01*
X1084298Y627339D01*
X1084298Y627339D01*
X1084300Y629030D01*
X1092300D01*
Y613030D01*
D02*
G37*
G36*
X1059302Y627339D02*
X1059302Y627339D01*
X1058652Y625839D01*
X1057895Y622662D01*
X1057894Y619397D01*
X1058650Y616221D01*
X1059300Y614720D01*
X1059300Y613030D01*
X1051300D01*
Y629030D01*
X1059300D01*
X1059302Y627339D01*
D02*
G37*
G36*
X550758Y596646D02*
X541170D01*
X546758Y600710D01*
X540662Y604774D01*
X550758D01*
Y596646D01*
D02*
G37*
G36*
X543964Y600710D02*
X538376Y596646D01*
X535836D01*
Y604774D01*
X537868D01*
X543964Y600710D01*
D02*
G37*
G36*
X1339525Y609616D02*
X1339303Y609478D01*
X1339090Y609325D01*
X1338887Y609159D01*
X1338696Y608980D01*
X1338517Y608789D01*
X1338351Y608586D01*
X1338198Y608373D01*
X1338060Y608151D01*
X1337937Y607920D01*
X1337829Y607682D01*
X1337736Y607436D01*
X1337660Y607186D01*
X1337601Y606931D01*
X1337558Y606672D01*
X1337533Y606412D01*
X1337524Y606150D01*
Y600350D01*
X1337533Y600088D01*
X1337558Y599828D01*
X1337601Y599569D01*
X1337660Y599314D01*
X1337736Y599064D01*
X1337829Y598819D01*
X1337937Y598580D01*
X1338060Y598349D01*
X1338198Y598126D01*
X1338351Y597914D01*
X1338517Y597711D01*
X1338696Y597520D01*
X1338887Y597341D01*
X1339090Y597175D01*
X1339303Y597022D01*
X1339525Y596884D01*
X1339585Y596852D01*
X1335726D01*
X1335464Y596844D01*
X1335204Y596818D01*
X1334945Y596775D01*
X1334690Y596716D01*
X1334440Y596640D01*
X1334194Y596548D01*
X1333956Y596439D01*
X1333725Y596316D01*
X1333503Y596178D01*
X1333290Y596025D01*
X1333087Y595859D01*
X1332896Y595680D01*
X1332717Y595489D01*
X1332551Y595286D01*
X1332398Y595074D01*
X1332260Y594851D01*
X1332137Y594620D01*
X1332029Y594381D01*
X1331936Y594136D01*
X1331860Y593886D01*
X1331801Y593631D01*
X1331758Y593372D01*
X1331732Y593112D01*
X1331724Y592850D01*
Y592202D01*
X1325721D01*
X1325728Y592807D01*
X1325727Y592828D01*
X1325728Y592850D01*
X1325725Y592959D01*
X1325722Y593069D01*
X1325720Y593090D01*
X1325720Y593112D01*
X1325709Y593221D01*
X1325699Y593330D01*
X1325696Y593351D01*
X1325694Y593372D01*
X1325676Y593480D01*
X1325659Y593588D01*
X1325655Y593610D01*
X1325651Y593631D01*
X1325627Y593737D01*
X1325603Y593844D01*
X1325597Y593865D01*
X1325592Y593886D01*
X1325560Y593991D01*
X1325529Y594096D01*
X1325522Y594116D01*
X1325516Y594136D01*
X1325477Y594239D01*
X1325440Y594342D01*
X1325431Y594361D01*
X1325423Y594381D01*
X1325378Y594482D01*
X1325334Y594581D01*
X1325324Y594600D01*
X1325315Y594620D01*
X1325263Y594717D01*
X1325213Y594814D01*
X1325202Y594832D01*
X1325192Y594851D01*
X1325134Y594944D01*
X1325077Y595037D01*
X1325065Y595055D01*
X1325054Y595074D01*
X1324990Y595163D01*
X1324927Y595252D01*
X1324914Y595269D01*
X1324901Y595286D01*
X1324831Y595372D01*
X1324763Y595456D01*
X1324749Y595472D01*
X1324735Y595489D01*
X1324660Y595569D01*
X1324586Y595649D01*
X1324571Y595664D01*
X1324556Y595680D01*
X1324476Y595755D01*
X1324397Y595830D01*
X1324380Y595844D01*
X1324365Y595859D01*
X1324280Y595928D01*
X1324196Y595999D01*
X1324179Y596011D01*
X1324162Y596025D01*
X1324073Y596089D01*
X1323985Y596153D01*
X1323967Y596165D01*
X1323949Y596178D01*
X1323857Y596235D01*
X1323764Y596294D01*
X1323745Y596305D01*
X1323727Y596316D01*
X1323631Y596367D01*
X1323535Y596420D01*
X1323515Y596429D01*
X1323496Y596439D01*
X1323396Y596485D01*
X1323297Y596531D01*
X1323277Y596539D01*
X1323258Y596548D01*
X1323156Y596586D01*
X1323053Y596626D01*
X1323032Y596632D01*
X1323013Y596640D01*
X1322908Y596671D01*
X1322803Y596704D01*
X1322782Y596710D01*
X1322762Y596716D01*
X1322655Y596741D01*
X1322549Y596767D01*
X1322528Y596770D01*
X1322507Y596775D01*
X1322399Y596793D01*
X1322291Y596812D01*
X1322269Y596814D01*
X1322248Y596818D01*
X1322140Y596829D01*
X1322031Y596841D01*
X1322009Y596842D01*
X1321988Y596844D01*
X1321878Y596847D01*
X1321769Y596852D01*
X1321747Y596851D01*
X1321726Y596852D01*
X1312727D01*
X1312465Y596844D01*
X1312204Y596818D01*
X1311946Y596775D01*
X1311691Y596716D01*
X1311440Y596640D01*
X1311195Y596548D01*
X1310957Y596439D01*
X1310726Y596316D01*
X1310503Y596178D01*
X1310291Y596025D01*
X1310088Y595859D01*
X1309897Y595680D01*
X1309718Y595489D01*
X1309552Y595286D01*
X1309399Y595074D01*
X1309261Y594851D01*
X1309137Y594620D01*
X1309029Y594381D01*
X1308937Y594136D01*
X1308861Y593886D01*
X1308802Y593631D01*
X1308759Y593372D01*
X1308733Y593112D01*
X1308725Y592850D01*
Y592202D01*
X1302729D01*
Y609648D01*
X1339585D01*
X1339525Y609616D01*
D02*
G37*
G36*
X1180918Y566167D02*
X1171330D01*
X1176918Y570231D01*
X1170822Y574295D01*
X1180918D01*
Y566167D01*
D02*
G37*
G36*
X1174124Y570231D02*
X1168536Y566167D01*
X1165996D01*
Y574295D01*
X1168028D01*
X1174124Y570231D01*
D02*
G37*
G36*
X1331728Y547612D02*
X1331736Y547350D01*
X1331762Y547089D01*
X1331805Y546831D01*
X1331864Y546576D01*
X1331940Y546325D01*
X1332032Y546080D01*
X1332141Y545841D01*
X1332264Y545611D01*
X1332402Y545388D01*
X1332555Y545175D01*
X1332721Y544973D01*
X1332900Y544782D01*
X1333091Y544603D01*
X1333294Y544436D01*
X1333507Y544284D01*
X1333729Y544146D01*
X1333960Y544022D01*
X1334198Y543914D01*
X1334444Y543822D01*
X1334694Y543746D01*
X1334949Y543686D01*
X1335208Y543644D01*
X1335468Y543618D01*
X1335730Y543610D01*
X1339589D01*
X1339529Y543578D01*
X1339306Y543439D01*
X1339094Y543287D01*
X1338891Y543121D01*
X1338700Y542942D01*
X1338521Y542750D01*
X1338355Y542548D01*
X1338202Y542335D01*
X1338064Y542113D01*
X1337941Y541882D01*
X1337832Y541643D01*
X1337740Y541398D01*
X1337664Y541147D01*
X1337605Y540892D01*
X1337562Y540634D01*
X1337536Y540373D01*
X1337528Y540112D01*
Y534312D01*
X1337536Y534050D01*
X1337562Y533789D01*
X1337605Y533531D01*
X1337664Y533276D01*
X1337740Y533025D01*
X1337832Y532780D01*
X1337941Y532542D01*
X1338064Y532311D01*
X1338202Y532088D01*
X1338355Y531875D01*
X1338521Y531673D01*
X1338700Y531482D01*
X1338891Y531303D01*
X1339094Y531137D01*
X1339306Y530984D01*
X1339529Y530846D01*
X1339589Y530814D01*
X1302733D01*
Y548260D01*
X1308729D01*
Y547612D01*
X1308737Y547350D01*
X1308763Y547089D01*
X1308806Y546831D01*
X1308865Y546576D01*
X1308941Y546325D01*
X1309033Y546080D01*
X1309141Y545841D01*
X1309265Y545611D01*
X1309403Y545388D01*
X1309556Y545175D01*
X1309722Y544973D01*
X1309901Y544782D01*
X1310092Y544603D01*
X1310294Y544436D01*
X1310507Y544284D01*
X1310730Y544146D01*
X1310961Y544022D01*
X1311199Y543914D01*
X1311444Y543822D01*
X1311695Y543746D01*
X1311950Y543686D01*
X1312208Y543644D01*
X1312469Y543618D01*
X1312731Y543610D01*
X1321730D01*
X1321752Y543610D01*
X1321773Y543610D01*
X1321882Y543615D01*
X1321992Y543618D01*
X1322013Y543620D01*
X1322035Y543621D01*
X1322144Y543633D01*
X1322252Y543644D01*
X1322274Y543647D01*
X1322295Y543650D01*
X1322403Y543669D01*
X1322511Y543686D01*
X1322532Y543691D01*
X1322553Y543695D01*
X1322659Y543721D01*
X1322766Y543746D01*
X1322786Y543752D01*
X1322807Y543757D01*
X1322912Y543790D01*
X1323017Y543822D01*
X1323036Y543829D01*
X1323057Y543836D01*
X1323160Y543876D01*
X1323262Y543914D01*
X1323281Y543923D01*
X1323301Y543931D01*
X1323400Y543977D01*
X1323500Y544022D01*
X1323519Y544032D01*
X1323539Y544041D01*
X1323635Y544094D01*
X1323731Y544146D01*
X1323749Y544157D01*
X1323768Y544167D01*
X1323861Y544226D01*
X1323954Y544284D01*
X1323971Y544296D01*
X1323989Y544308D01*
X1324077Y544373D01*
X1324166Y544436D01*
X1324183Y544450D01*
X1324200Y544463D01*
X1324284Y544533D01*
X1324369Y544603D01*
X1324384Y544617D01*
X1324401Y544631D01*
X1324480Y544707D01*
X1324560Y544782D01*
X1324575Y544797D01*
X1324590Y544812D01*
X1324664Y544893D01*
X1324739Y544973D01*
X1324753Y544990D01*
X1324767Y545005D01*
X1324835Y545090D01*
X1324905Y545175D01*
X1324918Y545193D01*
X1324931Y545210D01*
X1324994Y545299D01*
X1325058Y545388D01*
X1325069Y545406D01*
X1325081Y545424D01*
X1325138Y545518D01*
X1325196Y545611D01*
X1325206Y545630D01*
X1325217Y545648D01*
X1325267Y545744D01*
X1325319Y545841D01*
X1325328Y545861D01*
X1325338Y545880D01*
X1325382Y545980D01*
X1325428Y546080D01*
X1325435Y546100D01*
X1325444Y546120D01*
X1325481Y546222D01*
X1325520Y546325D01*
X1325526Y546346D01*
X1325533Y546366D01*
X1325564Y546471D01*
X1325596Y546576D01*
X1325601Y546597D01*
X1325607Y546617D01*
X1325631Y546725D01*
X1325655Y546831D01*
X1325659Y546852D01*
X1325663Y546873D01*
X1325680Y546981D01*
X1325698Y547089D01*
X1325700Y547111D01*
X1325703Y547132D01*
X1325713Y547241D01*
X1325724Y547350D01*
X1325724Y547371D01*
X1325726Y547393D01*
X1325729Y547503D01*
X1325732Y547612D01*
X1325731Y547633D01*
X1325732Y547655D01*
X1325725Y548260D01*
X1331728D01*
Y547612D01*
D02*
G37*
G36*
X1339525Y518176D02*
X1339303Y518038D01*
X1339090Y517885D01*
X1338887Y517719D01*
X1338696Y517540D01*
X1338517Y517349D01*
X1338351Y517146D01*
X1338198Y516934D01*
X1338060Y516711D01*
X1337937Y516480D01*
X1337829Y516241D01*
X1337736Y515996D01*
X1337660Y515746D01*
X1337601Y515491D01*
X1337558Y515232D01*
X1337533Y514972D01*
X1337524Y514710D01*
Y508910D01*
X1337533Y508648D01*
X1337558Y508388D01*
X1337601Y508129D01*
X1337660Y507874D01*
X1337736Y507624D01*
X1337829Y507379D01*
X1337937Y507140D01*
X1338060Y506909D01*
X1338198Y506687D01*
X1338351Y506474D01*
X1338517Y506271D01*
X1338696Y506080D01*
X1338887Y505901D01*
X1339090Y505735D01*
X1339303Y505582D01*
X1339525Y505444D01*
X1339585Y505412D01*
X1335726D01*
X1335464Y505404D01*
X1335204Y505378D01*
X1334945Y505335D01*
X1334690Y505276D01*
X1334440Y505200D01*
X1334194Y505107D01*
X1333956Y504999D01*
X1333725Y504876D01*
X1333503Y504738D01*
X1333290Y504585D01*
X1333087Y504419D01*
X1332896Y504240D01*
X1332717Y504049D01*
X1332551Y503846D01*
X1332398Y503633D01*
X1332260Y503411D01*
X1332137Y503180D01*
X1332029Y502942D01*
X1331936Y502696D01*
X1331860Y502446D01*
X1331801Y502191D01*
X1331758Y501932D01*
X1331732Y501672D01*
X1331724Y501410D01*
Y500762D01*
X1325721D01*
X1325728Y501367D01*
X1325727Y501389D01*
X1325728Y501410D01*
X1325725Y501519D01*
X1325722Y501629D01*
X1325720Y501650D01*
X1325720Y501672D01*
X1325709Y501781D01*
X1325699Y501890D01*
X1325696Y501911D01*
X1325694Y501932D01*
X1325676Y502040D01*
X1325659Y502149D01*
X1325655Y502170D01*
X1325651Y502191D01*
X1325627Y502297D01*
X1325603Y502404D01*
X1325597Y502425D01*
X1325592Y502446D01*
X1325560Y502551D01*
X1325529Y502656D01*
X1325522Y502676D01*
X1325516Y502696D01*
X1325477Y502799D01*
X1325440Y502902D01*
X1325431Y502921D01*
X1325423Y502942D01*
X1325378Y503041D01*
X1325334Y503141D01*
X1325324Y503160D01*
X1325315Y503180D01*
X1325263Y503278D01*
X1325213Y503374D01*
X1325202Y503392D01*
X1325192Y503411D01*
X1325134Y503504D01*
X1325077Y503597D01*
X1325065Y503615D01*
X1325054Y503633D01*
X1324990Y503723D01*
X1324927Y503812D01*
X1324914Y503829D01*
X1324901Y503846D01*
X1324831Y503932D01*
X1324763Y504016D01*
X1324749Y504032D01*
X1324735Y504049D01*
X1324660Y504129D01*
X1324586Y504209D01*
X1324571Y504224D01*
X1324556Y504240D01*
X1324476Y504315D01*
X1324397Y504390D01*
X1324380Y504404D01*
X1324365Y504419D01*
X1324280Y504488D01*
X1324196Y504559D01*
X1324179Y504571D01*
X1324162Y504585D01*
X1324073Y504649D01*
X1323985Y504714D01*
X1323967Y504725D01*
X1323949Y504738D01*
X1323857Y504795D01*
X1323764Y504854D01*
X1323745Y504865D01*
X1323727Y504876D01*
X1323631Y504927D01*
X1323535Y504980D01*
X1323515Y504989D01*
X1323496Y504999D01*
X1323396Y505045D01*
X1323297Y505091D01*
X1323277Y505099D01*
X1323258Y505107D01*
X1323156Y505146D01*
X1323053Y505186D01*
X1323032Y505192D01*
X1323013Y505200D01*
X1322908Y505231D01*
X1322803Y505264D01*
X1322782Y505270D01*
X1322762Y505276D01*
X1322655Y505301D01*
X1322549Y505327D01*
X1322528Y505330D01*
X1322507Y505335D01*
X1322399Y505353D01*
X1322291Y505372D01*
X1322269Y505374D01*
X1322248Y505378D01*
X1322140Y505389D01*
X1322031Y505401D01*
X1322009Y505401D01*
X1321988Y505404D01*
X1321878Y505407D01*
X1321769Y505412D01*
X1321747Y505411D01*
X1321726Y505412D01*
X1312727D01*
X1312465Y505404D01*
X1312204Y505378D01*
X1311946Y505335D01*
X1311691Y505276D01*
X1311440Y505200D01*
X1311195Y505107D01*
X1310957Y504999D01*
X1310726Y504876D01*
X1310503Y504738D01*
X1310291Y504585D01*
X1310088Y504419D01*
X1309897Y504240D01*
X1309718Y504049D01*
X1309552Y503846D01*
X1309399Y503633D01*
X1309261Y503411D01*
X1309137Y503180D01*
X1309029Y502942D01*
X1308937Y502696D01*
X1308861Y502446D01*
X1308802Y502191D01*
X1308759Y501932D01*
X1308733Y501672D01*
X1308725Y501410D01*
Y500762D01*
X1302729D01*
Y518208D01*
X1339585D01*
X1339525Y518176D01*
D02*
G37*
D76*
X1286230Y530860D02*
D03*
Y518160D02*
D03*
Y505460D02*
D03*
Y543560D02*
D03*
Y622300D02*
D03*
Y609600D02*
D03*
Y596900D02*
D03*
Y635000D02*
D03*
Y713740D02*
D03*
Y701040D02*
D03*
Y688340D02*
D03*
Y726440D02*
D03*
Y805180D02*
D03*
Y792480D02*
D03*
Y779780D02*
D03*
Y817880D02*
D03*
X1078670Y736086D02*
D03*
Y748786D02*
D03*
Y761486D02*
D03*
Y774186D02*
D03*
X1133670Y736086D02*
D03*
Y748786D02*
D03*
Y761486D02*
D03*
Y774186D02*
D03*
X626550Y679620D02*
D03*
Y692320D02*
D03*
Y705020D02*
D03*
Y717720D02*
D03*
X681550Y679620D02*
D03*
Y692320D02*
D03*
Y705020D02*
D03*
Y717720D02*
D03*
X1073600Y866140D02*
D03*
Y878840D02*
D03*
Y891540D02*
D03*
Y904240D02*
D03*
X1128600Y866140D02*
D03*
Y878840D02*
D03*
Y891540D02*
D03*
Y904240D02*
D03*
X1133670Y591306D02*
D03*
Y578606D02*
D03*
Y565906D02*
D03*
Y553206D02*
D03*
X1078670Y591306D02*
D03*
Y578606D02*
D03*
Y565906D02*
D03*
Y553206D02*
D03*
D77*
X1438100Y538761D02*
D03*
Y510261D02*
D03*
Y784581D02*
D03*
Y813081D02*
D03*
X530860Y648500D02*
D03*
Y677000D02*
D03*
D78*
X1248920Y753111D02*
D03*
X1235920D02*
D03*
X1337160Y895498D02*
D03*
X1350160D02*
D03*
X1118720Y611590D02*
D03*
X1131720D02*
D03*
X1118720Y633810D02*
D03*
X1131720D02*
D03*
X1337160Y918060D02*
D03*
X1350160D02*
D03*
X1287122Y481076D02*
D03*
X1300122D02*
D03*
X1118720Y797560D02*
D03*
X1131720D02*
D03*
X1118720Y817880D02*
D03*
X1131720D02*
D03*
X1114600Y921207D02*
D03*
X1127600D02*
D03*
X1114600Y941447D02*
D03*
X1127600D02*
D03*
X601130Y575310D02*
D03*
X588130D02*
D03*
X849480Y519880D02*
D03*
X862480D02*
D03*
X849480Y536390D02*
D03*
X862480D02*
D03*
X988170Y902970D02*
D03*
X975170D02*
D03*
X902847D02*
D03*
X889847D02*
D03*
X860090D02*
D03*
X847090D02*
D03*
X945413D02*
D03*
X932413D02*
D03*
X647426Y759940D02*
D03*
X634426D02*
D03*
X647426Y897100D02*
D03*
X634426D02*
D03*
X647426Y851380D02*
D03*
X634426D02*
D03*
X647426Y805660D02*
D03*
X634426D02*
D03*
X1028550Y676910D02*
D03*
X1041550D02*
D03*
X1028550Y635000D02*
D03*
X1041550D02*
D03*
X1028550Y693420D02*
D03*
X1041550D02*
D03*
X1028550Y651510D02*
D03*
X1041550D02*
D03*
X677060Y623570D02*
D03*
X664060D02*
D03*
X677060Y659130D02*
D03*
X664060D02*
D03*
X630070Y555410D02*
D03*
X617070D02*
D03*
X946300Y801150D02*
D03*
X933300D02*
D03*
X759610Y674370D02*
D03*
X746610D02*
D03*
X759665Y745863D02*
D03*
X746665D02*
D03*
X759610Y708660D02*
D03*
X746610D02*
D03*
X759610Y690880D02*
D03*
X746610D02*
D03*
X759610Y726440D02*
D03*
X746610D02*
D03*
X985370Y812800D02*
D03*
X998370D02*
D03*
X548560Y932180D02*
D03*
X561560D02*
D03*
X608480Y919480D02*
D03*
X595480D02*
D03*
X608480Y873760D02*
D03*
X595480D02*
D03*
X548560Y880110D02*
D03*
X561560D02*
D03*
X650090Y582930D02*
D03*
X663090D02*
D03*
X608480Y782320D02*
D03*
X595480D02*
D03*
X548560Y775970D02*
D03*
X561560D02*
D03*
X608480Y828350D02*
D03*
X595480D02*
D03*
X548560D02*
D03*
X561560D02*
D03*
X837560Y733173D02*
D03*
X850560D02*
D03*
X837560Y716663D02*
D03*
X850560D02*
D03*
X570350Y649950D02*
D03*
X557350D02*
D03*
X617070Y501650D02*
D03*
X630070D02*
D03*
X617070Y482830D02*
D03*
X630070D02*
D03*
X557350Y675350D02*
D03*
X570350D02*
D03*
X617070Y519430D02*
D03*
X630070D02*
D03*
X516740Y553810D02*
D03*
X529740D02*
D03*
X516740Y537300D02*
D03*
X529740D02*
D03*
X529740Y502920D02*
D03*
X516740D02*
D03*
X529740Y486500D02*
D03*
X516740D02*
D03*
X561310Y462280D02*
D03*
X574310D02*
D03*
X617070Y538130D02*
D03*
X630070D02*
D03*
X588130Y558800D02*
D03*
X601130D02*
D03*
X587830Y445770D02*
D03*
X600830D02*
D03*
X587830Y462280D02*
D03*
X600830D02*
D03*
X574460Y558800D02*
D03*
X561460D02*
D03*
X1058800Y817880D02*
D03*
X1071800D02*
D03*
X785980Y840740D02*
D03*
X798980D02*
D03*
X1028550Y748786D02*
D03*
X1041550D02*
D03*
X1028550Y774186D02*
D03*
X1041550D02*
D03*
X928520Y481330D02*
D03*
X915520D02*
D03*
X1204290Y681990D02*
D03*
X1217290D02*
D03*
X1176350D02*
D03*
X1189350D02*
D03*
X1204290Y716280D02*
D03*
X1217290D02*
D03*
X1176350Y732790D02*
D03*
X1189350D02*
D03*
X1176350Y698500D02*
D03*
X1189350D02*
D03*
X1204290D02*
D03*
X1217290D02*
D03*
X1176350Y716280D02*
D03*
X1189350D02*
D03*
X1204290Y732790D02*
D03*
X1217290D02*
D03*
X1204290Y789940D02*
D03*
X1217290D02*
D03*
X1204290Y773430D02*
D03*
X1217290D02*
D03*
X1204290Y807720D02*
D03*
X1217290D02*
D03*
X1204290Y824230D02*
D03*
X1217290D02*
D03*
X1176350D02*
D03*
X1189350D02*
D03*
X1176350Y789940D02*
D03*
X1189350D02*
D03*
X1176350Y773430D02*
D03*
X1189350D02*
D03*
X1176350Y807720D02*
D03*
X1189350D02*
D03*
X1337500Y743308D02*
D03*
X1350500D02*
D03*
X1337500Y580033D02*
D03*
X1350500D02*
D03*
X1337500Y560427D02*
D03*
X1350500D02*
D03*
X1203810Y533400D02*
D03*
X1216810D02*
D03*
X1175870D02*
D03*
X1188870D02*
D03*
X1203810Y641350D02*
D03*
X1216810D02*
D03*
X1175870D02*
D03*
X1188870D02*
D03*
X1203810Y624840D02*
D03*
X1216810D02*
D03*
X1175870Y549910D02*
D03*
X1188870D02*
D03*
X1203810D02*
D03*
X1216810D02*
D03*
X1189350Y661670D02*
D03*
X1176350D02*
D03*
X1143970Y652780D02*
D03*
X1156970D02*
D03*
Y670560D02*
D03*
X1143970D02*
D03*
X1175870Y607060D02*
D03*
X1188870D02*
D03*
X1028550Y565906D02*
D03*
X1041550D02*
D03*
X1028550Y591306D02*
D03*
X1041550D02*
D03*
X1203810Y499110D02*
D03*
X1216810D02*
D03*
X1175870Y515620D02*
D03*
X1188870D02*
D03*
X1203810D02*
D03*
X1216810D02*
D03*
X1175870Y499110D02*
D03*
X1188870D02*
D03*
X1203810Y607060D02*
D03*
X1216810D02*
D03*
X1203810Y590550D02*
D03*
X1216810D02*
D03*
X1175870D02*
D03*
X1188870D02*
D03*
X1175870Y624840D02*
D03*
X1188870D02*
D03*
X1337500Y762914D02*
D03*
X1350500D02*
D03*
X822810Y552900D02*
D03*
X835810D02*
D03*
X835810Y536390D02*
D03*
X822810D02*
D03*
X835810Y519880D02*
D03*
X822810D02*
D03*
X862480Y552900D02*
D03*
X849480D02*
D03*
D79*
X1186170Y887690D02*
D03*
X1280170D02*
D03*
D80*
X1382670Y817880D02*
D03*
X1411170D02*
D03*
Y779780D02*
D03*
X1382670D02*
D03*
X1411170Y543560D02*
D03*
X1382670D02*
D03*
X1411170Y505460D02*
D03*
X1382670D02*
D03*
D81*
X813736Y597512D02*
D03*
Y610512D02*
D03*
X828789Y597512D02*
D03*
Y610512D02*
D03*
X843842Y597512D02*
D03*
Y610512D02*
D03*
X858894Y597512D02*
D03*
Y610512D02*
D03*
X873947Y597512D02*
D03*
Y610512D02*
D03*
X889000Y597512D02*
D03*
Y610512D02*
D03*
X999490Y778360D02*
D03*
Y791360D02*
D03*
X792480Y671680D02*
D03*
X808990D02*
D03*
X1225360Y961420D02*
D03*
Y948420D02*
D03*
X1241870Y961420D02*
D03*
Y948420D02*
D03*
X1208850Y961420D02*
D03*
Y948420D02*
D03*
X1059180Y558370D02*
D03*
Y571370D02*
D03*
Y599590D02*
D03*
Y586590D02*
D03*
X608180Y679320D02*
D03*
Y692320D02*
D03*
Y717720D02*
D03*
Y704720D02*
D03*
X566420Y1013310D02*
D03*
Y1026310D02*
D03*
X1117600Y474980D02*
D03*
Y487980D02*
D03*
X548640Y1094590D02*
D03*
Y1107590D02*
D03*
X1407160Y912010D02*
D03*
Y899010D02*
D03*
X1376680Y912010D02*
D03*
Y899010D02*
D03*
X789940Y764390D02*
D03*
Y777390D02*
D03*
X792480Y684680D02*
D03*
X759460Y764390D02*
D03*
Y777390D02*
D03*
X814070Y764390D02*
D03*
Y777390D02*
D03*
X848360Y777390D02*
D03*
Y764390D02*
D03*
X845820Y684680D02*
D03*
Y671680D02*
D03*
X808990Y684680D02*
D03*
X627380Y461310D02*
D03*
Y448310D02*
D03*
X786130Y904090D02*
D03*
Y917090D02*
D03*
X763700Y904090D02*
D03*
Y917090D02*
D03*
X1052830Y917090D02*
D03*
Y904090D02*
D03*
X701040Y704720D02*
D03*
Y717720D02*
D03*
Y692620D02*
D03*
Y679620D02*
D03*
X737870Y979020D02*
D03*
Y992020D02*
D03*
X755650Y978870D02*
D03*
Y991870D02*
D03*
X868680Y929490D02*
D03*
Y942490D02*
D03*
X911437Y929410D02*
D03*
Y942410D02*
D03*
X868680Y980590D02*
D03*
Y967590D02*
D03*
X911437Y980590D02*
D03*
Y967590D02*
D03*
X996950Y980590D02*
D03*
Y967590D02*
D03*
X954193Y980590D02*
D03*
Y967590D02*
D03*
X954193Y929410D02*
D03*
Y942410D02*
D03*
X996950Y929480D02*
D03*
Y942480D02*
D03*
X955040Y550060D02*
D03*
Y537060D02*
D03*
X938530Y550060D02*
D03*
Y537060D02*
D03*
X1300480Y931060D02*
D03*
Y918060D02*
D03*
X1052830Y848510D02*
D03*
Y835510D02*
D03*
Y890410D02*
D03*
Y877410D02*
D03*
X1128600Y835510D02*
D03*
Y848510D02*
D03*
X1085350Y835510D02*
D03*
Y848510D02*
D03*
X1069340Y835510D02*
D03*
Y848510D02*
D03*
X1059180Y753536D02*
D03*
Y740536D02*
D03*
Y769436D02*
D03*
Y782436D02*
D03*
X1149350Y904390D02*
D03*
Y891390D02*
D03*
X930910Y463700D02*
D03*
Y450700D02*
D03*
X1117600Y461359D02*
D03*
Y448359D02*
D03*
X913130Y463700D02*
D03*
Y450700D02*
D03*
X1233650Y686920D02*
D03*
Y699920D02*
D03*
Y728010D02*
D03*
Y715010D02*
D03*
Y819300D02*
D03*
Y806300D02*
D03*
Y778360D02*
D03*
Y791360D02*
D03*
X1233170Y545130D02*
D03*
Y532130D02*
D03*
Y636570D02*
D03*
Y623570D02*
D03*
Y504040D02*
D03*
Y517040D02*
D03*
Y595330D02*
D03*
Y608330D02*
D03*
X1117600Y433099D02*
D03*
Y420099D02*
D03*
D83*
X708660Y506590D02*
D03*
D84*
X731560Y571090D02*
D03*
X685760D02*
D03*
D86*
X939050Y1117600D02*
D03*
X924050D02*
D03*
X1106050D02*
D03*
X1091050D02*
D03*
X989850D02*
D03*
X974850D02*
D03*
X1055250D02*
D03*
X1040250D02*
D03*
D87*
X1296670Y954540D02*
D03*
X1283970D02*
D03*
X1271270D02*
D03*
X1258570D02*
D03*
X1296670Y1009540D02*
D03*
X1283970D02*
D03*
X1271270D02*
D03*
X1258570D02*
D03*
X562730Y538130D02*
D03*
X575430D02*
D03*
X588130D02*
D03*
X600830D02*
D03*
X562730Y483130D02*
D03*
X575430D02*
D03*
X588130D02*
D03*
X600830D02*
D03*
D90*
X785700Y879220D02*
D03*
Y863220D02*
D03*
X763700Y879220D02*
D03*
Y863220D02*
D03*
D91*
X932180Y671740D02*
D03*
Y628740D02*
D03*
X1159510Y972730D02*
D03*
Y929730D02*
D03*
X1003300Y472440D02*
D03*
Y429440D02*
D03*
X1041400D02*
D03*
Y472440D02*
D03*
X965200Y472350D02*
D03*
Y429350D02*
D03*
X1079500Y429440D02*
D03*
Y472440D02*
D03*
D92*
X1329780Y1042760D02*
D03*
X1372780D02*
D03*
X1013550Y511810D02*
D03*
X1056550D02*
D03*
X862240Y1097280D02*
D03*
X819240D02*
D03*
D93*
X968600Y1069340D02*
D03*
X996100D02*
D03*
X917800D02*
D03*
X945300D02*
D03*
X1084800D02*
D03*
X1112300D02*
D03*
X1034000D02*
D03*
X1061500D02*
D03*
D94*
X900820Y1024600D02*
D03*
X891320Y1001600D02*
D03*
X910320D02*
D03*
X937430Y1024600D02*
D03*
X927930Y1001600D02*
D03*
X946930D02*
D03*
X974190Y1024600D02*
D03*
X964690Y1001600D02*
D03*
X983690D02*
D03*
X1010800Y1024600D02*
D03*
X1001300Y1001600D02*
D03*
X1020300D02*
D03*
D97*
X990190Y834860D02*
D03*
X983690D02*
D03*
X977190D02*
D03*
X970690D02*
D03*
X990190Y861860D02*
D03*
X983690D02*
D03*
X977190D02*
D03*
X970690D02*
D03*
D101*
X1251670Y661670D02*
D03*
X1233170D02*
D03*
X1251670Y570230D02*
D03*
X1233170D02*
D03*
X1334410Y876596D02*
D03*
X1352910D02*
D03*
X1334410Y853642D02*
D03*
X1352910D02*
D03*
D102*
X1219910Y460770D02*
D03*
Y430770D02*
D03*
X1149910Y460770D02*
D03*
Y430770D02*
D03*
D103*
X1248890Y701040D02*
D03*
Y686040D02*
D03*
X1161260Y701040D02*
D03*
Y686040D02*
D03*
X1248890Y713860D02*
D03*
Y728860D02*
D03*
X1161260Y728740D02*
D03*
Y713740D02*
D03*
X1248890Y805180D02*
D03*
Y820180D02*
D03*
Y792480D02*
D03*
Y777480D02*
D03*
X1162530Y820180D02*
D03*
Y805180D02*
D03*
Y792480D02*
D03*
Y777480D02*
D03*
X1248410Y622300D02*
D03*
Y637300D02*
D03*
Y530860D02*
D03*
Y545860D02*
D03*
X1160780D02*
D03*
Y530860D02*
D03*
Y518160D02*
D03*
Y503160D02*
D03*
X1248410Y609600D02*
D03*
Y594600D02*
D03*
Y518160D02*
D03*
Y503160D02*
D03*
X1160780Y637300D02*
D03*
Y622300D02*
D03*
Y609600D02*
D03*
Y594600D02*
D03*
D104*
X566560Y759940D02*
D03*
Y740940D02*
D03*
X543560Y750440D02*
D03*
X566560Y916100D02*
D03*
Y897100D02*
D03*
X543560Y906600D02*
D03*
X566560Y864047D02*
D03*
Y845047D02*
D03*
X543560Y854547D02*
D03*
X566560Y811993D02*
D03*
Y792993D02*
D03*
X543560Y802493D02*
D03*
D105*
X521880Y750440D02*
D03*
Y722940D02*
D03*
Y906650D02*
D03*
Y879150D02*
D03*
Y855850D02*
D03*
Y828350D02*
D03*
Y801240D02*
D03*
Y773740D02*
D03*
D137*
X1101100Y885190D02*
D03*
M02*
