G04*
G04 #@! TF.GenerationSoftware,Altium Limited,Altium Designer,22.8.2 (66)*
G04*
G04 Layer_Color=8388736*
%FSLAX44Y44*%
%MOMM*%
G71*
G04*
G04 #@! TF.SameCoordinates,4CF88A4D-708D-413D-9FA9-C7E86D45AB9B*
G04*
G04*
G04 #@! TF.FilePolarity,Negative*
G04*
G01*
G75*
%ADD18O,0.5032X1.6532*%
%ADD19O,1.6532X0.5032*%
%ADD20C,2.0032*%
%ADD21C,1.8032*%
%ADD22C,3.7032*%
%ADD23C,1.7032*%
%ADD24R,1.7032X1.7032*%
%ADD25C,6.2032*%
%ADD26C,2.5032*%
%ADD27C,2.2032*%
%ADD28R,1.7032X1.7032*%
%ADD29C,1.9532*%
%ADD30C,2.9032*%
%ADD31C,0.7032*%
%ADD32C,0.6932*%
%ADD33C,0.9032*%
%ADD34C,0.8032*%
%ADD35C,1.2032*%
%ADD36C,1.0032*%
%ADD37C,1.4732*%
D18*
X782560Y646650D02*
D03*
X777560D02*
D03*
X767560D02*
D03*
X772560D02*
D03*
X762560D02*
D03*
X802560D02*
D03*
X807560D02*
D03*
X812560D02*
D03*
X857560D02*
D03*
X852560D02*
D03*
X847560D02*
D03*
X842560D02*
D03*
X837560D02*
D03*
X832560D02*
D03*
X827560D02*
D03*
X822560D02*
D03*
X817560D02*
D03*
X797560D02*
D03*
X792560D02*
D03*
X787560D02*
D03*
X757560D02*
D03*
X752560D02*
D03*
X747560D02*
D03*
X742560D02*
D03*
X737560D02*
D03*
Y801150D02*
D03*
X742560D02*
D03*
X747560D02*
D03*
X752560D02*
D03*
X757560D02*
D03*
X762560D02*
D03*
X767560D02*
D03*
X772560D02*
D03*
X777560D02*
D03*
X782560D02*
D03*
X787560D02*
D03*
X792560D02*
D03*
X797560D02*
D03*
X802560D02*
D03*
X807560D02*
D03*
X812560D02*
D03*
X817560D02*
D03*
X822560D02*
D03*
X827560D02*
D03*
X832560D02*
D03*
X837560D02*
D03*
X842560D02*
D03*
X847560D02*
D03*
X852560D02*
D03*
X857560D02*
D03*
D19*
X720310Y663900D02*
D03*
Y668900D02*
D03*
Y673900D02*
D03*
Y678900D02*
D03*
Y683900D02*
D03*
Y688900D02*
D03*
Y693900D02*
D03*
Y698900D02*
D03*
Y703900D02*
D03*
Y708900D02*
D03*
Y713900D02*
D03*
Y718900D02*
D03*
Y723900D02*
D03*
Y728900D02*
D03*
Y733900D02*
D03*
Y738900D02*
D03*
Y743900D02*
D03*
Y748900D02*
D03*
Y753900D02*
D03*
Y758900D02*
D03*
Y763900D02*
D03*
Y768900D02*
D03*
Y773900D02*
D03*
Y778900D02*
D03*
Y783900D02*
D03*
X874810D02*
D03*
Y778900D02*
D03*
Y773900D02*
D03*
Y768900D02*
D03*
Y763900D02*
D03*
Y758900D02*
D03*
Y753900D02*
D03*
Y748900D02*
D03*
Y743900D02*
D03*
Y738900D02*
D03*
Y733900D02*
D03*
Y728900D02*
D03*
Y723900D02*
D03*
Y718900D02*
D03*
Y713900D02*
D03*
Y708900D02*
D03*
Y703900D02*
D03*
Y698900D02*
D03*
Y693900D02*
D03*
Y688900D02*
D03*
Y683900D02*
D03*
Y678900D02*
D03*
Y673900D02*
D03*
Y668900D02*
D03*
Y663900D02*
D03*
D20*
X1281830Y570230D02*
D03*
X1306830D02*
D03*
X1281830Y753111D02*
D03*
X1306830D02*
D03*
X567830Y698900D02*
D03*
X592830D02*
D03*
X592610Y617220D02*
D03*
X567610D02*
D03*
X1306830Y661670D02*
D03*
X1281830D02*
D03*
X779980Y939800D02*
D03*
X804980D02*
D03*
D21*
X794620Y1040950D02*
D03*
X769620D02*
D03*
Y1073150D02*
D03*
X794620D02*
D03*
D22*
X721970Y1045550D02*
D03*
X842270D02*
D03*
X782120Y1113350D02*
D03*
Y1001450D02*
D03*
D23*
X916940Y853440D02*
D03*
X891540D02*
D03*
X866140D02*
D03*
X840740D02*
D03*
X999490Y702310D02*
D03*
Y676910D02*
D03*
Y651510D02*
D03*
Y626110D02*
D03*
Y600710D02*
D03*
Y575310D02*
D03*
Y549910D02*
D03*
Y727710D02*
D03*
X587380Y1032600D02*
D03*
X612780Y1007200D02*
D03*
Y1032600D02*
D03*
X638180Y1007200D02*
D03*
Y1032600D02*
D03*
X663580Y1007200D02*
D03*
Y1032600D02*
D03*
X952500Y778510D02*
D03*
X927100Y753110D02*
D03*
X952500D02*
D03*
X927100Y727710D02*
D03*
X952500D02*
D03*
X927100Y702310D02*
D03*
X952500D02*
D03*
X725170Y851782D02*
D03*
X805180Y429260D02*
D03*
X627380D02*
D03*
X652780D02*
D03*
X678180D02*
D03*
X703580D02*
D03*
X728980D02*
D03*
X754380D02*
D03*
X779780D02*
D03*
X830580D02*
D03*
D24*
X815340Y853440D02*
D03*
X587380Y1007200D02*
D03*
X855980Y429260D02*
D03*
D25*
X1419110Y431250D02*
D03*
X499110D02*
D03*
Y1111250D02*
D03*
X1419110D02*
D03*
D26*
X601980Y759940D02*
D03*
X847090Y935910D02*
D03*
X975360D02*
D03*
X932603D02*
D03*
X889847D02*
D03*
X570230Y1101090D02*
D03*
X1225360Y982990D02*
D03*
X1407160Y866140D02*
D03*
X1376680D02*
D03*
X1071800Y707390D02*
D03*
Y621030D02*
D03*
Y649817D02*
D03*
Y678603D02*
D03*
X633730Y659130D02*
D03*
Y623570D02*
D03*
X601980Y897100D02*
D03*
Y851380D02*
D03*
Y805660D02*
D03*
D27*
X1174120Y1094740D02*
D03*
X1199520D02*
D03*
X494670Y829400D02*
D03*
Y854800D02*
D03*
Y774790D02*
D03*
Y800190D02*
D03*
Y723990D02*
D03*
Y749390D02*
D03*
X1425702Y966724D02*
D03*
Y992124D02*
D03*
Y1017524D02*
D03*
Y1042924D02*
D03*
X1129919Y1012520D02*
D03*
Y962520D02*
D03*
X918850Y1094740D02*
D03*
X944250D02*
D03*
X969650D02*
D03*
X995050D02*
D03*
X1060450D02*
D03*
X1035050D02*
D03*
X1085850D02*
D03*
X1111250D02*
D03*
X1320800Y939330D02*
D03*
Y989330D02*
D03*
X1049020Y1022350D02*
D03*
Y996950D02*
D03*
Y971550D02*
D03*
X1022350Y890270D02*
D03*
Y864870D02*
D03*
Y839470D02*
D03*
X1277620Y458470D02*
D03*
Y433070D02*
D03*
X494670Y905600D02*
D03*
Y880200D02*
D03*
Y486500D02*
D03*
Y511900D02*
D03*
Y537300D02*
D03*
Y562700D02*
D03*
Y600800D02*
D03*
Y626200D02*
D03*
Y651600D02*
D03*
Y677000D02*
D03*
X879950Y500380D02*
D03*
X854550D02*
D03*
X829150D02*
D03*
X803750D02*
D03*
X1425580Y622390D02*
D03*
Y647790D02*
D03*
Y678270D02*
D03*
Y703670D02*
D03*
X494670Y934810D02*
D03*
Y1061810D02*
D03*
Y1036410D02*
D03*
Y1011010D02*
D03*
Y985610D02*
D03*
Y960210D02*
D03*
D28*
X999490Y753110D02*
D03*
X927100Y778510D02*
D03*
X725170Y826382D02*
D03*
D29*
X947550Y511837D02*
D03*
X1122550D02*
D03*
D30*
X1256030Y1079240D02*
D03*
X1306830D02*
D03*
D31*
X1312502Y907501D02*
D03*
Y900001D02*
D03*
Y892501D02*
D03*
Y885001D02*
D03*
Y877501D02*
D03*
Y870001D02*
D03*
Y862501D02*
D03*
Y855001D02*
D03*
X1305002Y907501D02*
D03*
Y870001D02*
D03*
Y862501D02*
D03*
Y855001D02*
D03*
X1297502D02*
D03*
Y847501D02*
D03*
X1290002Y855001D02*
D03*
Y847501D02*
D03*
X1282502Y855001D02*
D03*
Y847501D02*
D03*
X1275002Y855001D02*
D03*
Y847501D02*
D03*
X1267502Y855001D02*
D03*
Y847501D02*
D03*
X1273502Y536501D02*
D03*
Y529001D02*
D03*
X1266002Y536501D02*
D03*
Y529001D02*
D03*
X1258502Y536501D02*
D03*
Y529001D02*
D03*
X1273002Y628001D02*
D03*
Y620501D02*
D03*
X1265502Y628001D02*
D03*
Y620501D02*
D03*
X1258002Y628001D02*
D03*
Y620501D02*
D03*
X1275002Y720001D02*
D03*
Y712501D02*
D03*
X1267502Y720001D02*
D03*
Y712501D02*
D03*
X1260002Y720001D02*
D03*
Y712501D02*
D03*
X1257002Y802501D02*
D03*
X1264502D02*
D03*
X1272002D02*
D03*
Y810001D02*
D03*
X1264502D02*
D03*
X1257002D02*
D03*
X1272502Y783751D02*
D03*
Y776251D02*
D03*
X1265002Y783751D02*
D03*
Y776251D02*
D03*
X1257502Y783751D02*
D03*
Y776251D02*
D03*
X1272502Y692001D02*
D03*
Y684501D02*
D03*
X1265002Y692001D02*
D03*
Y684501D02*
D03*
X1257502Y692001D02*
D03*
Y684501D02*
D03*
X1273002Y600001D02*
D03*
Y592501D02*
D03*
X1265502Y600001D02*
D03*
Y592501D02*
D03*
X1258002Y600001D02*
D03*
Y592501D02*
D03*
X1273002Y510001D02*
D03*
Y502501D02*
D03*
X1265502Y510001D02*
D03*
Y502501D02*
D03*
X1258002Y510001D02*
D03*
Y502501D02*
D03*
D32*
X822560Y835990D02*
D03*
X817560Y619328D02*
D03*
X834898D02*
D03*
X825246D02*
D03*
X839419Y563329D02*
D03*
X847560D02*
D03*
X858894Y619328D02*
D03*
X868680Y646176D02*
D03*
X873947Y619328D02*
D03*
X889000D02*
D03*
X1137780Y835510D02*
D03*
X1043650Y917090D02*
D03*
X983690Y848360D02*
D03*
X975360Y961590D02*
D03*
X932603D02*
D03*
X847090D02*
D03*
X889847D02*
D03*
X774915Y917090D02*
D03*
X797560Y788670D02*
D03*
X785980Y832130D02*
D03*
X1286510Y931279D02*
D03*
X1052830Y862960D02*
D03*
X976630Y812800D02*
D03*
X735330Y614680D02*
D03*
X755650Y969010D02*
D03*
X737870D02*
D03*
X1197610Y948420D02*
D03*
X762560Y605924D02*
D03*
X772560Y598924D02*
D03*
X777560Y591924D02*
D03*
X767560Y584924D02*
D03*
X734957Y681370D02*
D03*
X734060Y725170D02*
D03*
X727560Y808990D02*
D03*
X793473Y821600D02*
D03*
X800250Y815646D02*
D03*
X863600Y808990D02*
D03*
X795020Y631190D02*
D03*
X792560Y621030D02*
D03*
X732790Y633730D02*
D03*
X698500Y665480D02*
D03*
Y731520D02*
D03*
X678180Y851380D02*
D03*
X1156970Y661670D02*
D03*
X763700Y892810D02*
D03*
X785700D02*
D03*
X914400Y550060D02*
D03*
X928280Y492850D02*
D03*
X915520D02*
D03*
X652780Y514350D02*
D03*
X646430Y508638D02*
D03*
X678180Y897100D02*
D03*
Y805660D02*
D03*
X827560Y831850D02*
D03*
X842560Y825500D02*
D03*
X852560Y817880D02*
D03*
D33*
X901446Y599948D02*
D03*
X584190Y1084590D02*
D03*
X842645Y552900D02*
D03*
X1391920Y853642D02*
D03*
X1352910Y865119D02*
D03*
Y906779D02*
D03*
X797560Y660400D02*
D03*
X734060Y698900D02*
D03*
X887970Y724918D02*
D03*
X802005Y764390D02*
D03*
X845820Y693900D02*
D03*
X985929Y794110D02*
D03*
X1303580Y470309D02*
D03*
X1219609Y753111D02*
D03*
Y661670D02*
D03*
Y570230D02*
D03*
X548560Y945741D02*
D03*
X573560Y889100D02*
D03*
X579480Y835850D02*
D03*
Y789820D02*
D03*
X580121Y740940D02*
D03*
X662560Y692320D02*
D03*
X688020Y653571D02*
D03*
X613819Y461310D02*
D03*
X529740Y519430D02*
D03*
X636529Y582930D02*
D03*
X643631Y555410D02*
D03*
X606780Y510630D02*
D03*
X562730Y496691D02*
D03*
X1104039Y487980D02*
D03*
Y420099D02*
D03*
X1088300Y664210D02*
D03*
X1132840Y670560D02*
D03*
X1115970Y622700D02*
D03*
X1094300Y578606D02*
D03*
Y761486D02*
D03*
X1104900Y797560D02*
D03*
X678180Y759940D02*
D03*
D34*
X837560Y764390D02*
D03*
X747880D02*
D03*
X770945Y745863D02*
D03*
X837560Y724918D02*
D03*
X800735Y684680D02*
D03*
X759610Y718185D02*
D03*
Y682625D02*
D03*
D35*
X952500Y664210D02*
D03*
D36*
X1149350Y872147D02*
D03*
D37*
X1013460Y980590D02*
D03*
X884288D02*
D03*
X970551D02*
D03*
X927930D02*
D03*
X1263650Y483870D02*
D03*
X1097280Y736086D02*
D03*
M02*
