G04*
G04 #@! TF.GenerationSoftware,Altium Limited,Altium Designer,22.8.2 (66)*
G04*
G04 Layer_Physical_Order=1*
G04 Layer_Color=255*
%FSLAX44Y44*%
%MOMM*%
G71*
G04*
G04 #@! TF.SameCoordinates,5F540E87-1B0C-4F24-9FDC-59AD78F45D3A*
G04*
G04*
G04 #@! TF.FilePolarity,Positive*
G04*
G01*
G75*
%ADD10C,0.2000*%
%ADD12C,0.2500*%
%ADD15C,0.3000*%
%ADD16O,0.3000X1.4500*%
%ADD17O,1.4500X0.3000*%
%ADD38C,0.9000*%
%ADD39C,1.0000*%
%ADD40C,0.3810*%
%ADD41C,2.3000*%
%ADD42C,2.0000*%
%ADD43C,1.8000*%
%ADD44R,1.5000X1.5000*%
%ADD45C,1.5000*%
%ADD46R,1.5000X1.5000*%
%ADD47C,1.7500*%
%ADD48C,2.7000*%
%ADD49C,3.5000*%
%ADD50C,1.6000*%
%ADD51R,6.3500X6.3500*%
%ADD52C,0.5000*%
%ADD53C,0.7000*%
%ADD54C,0.6000*%
%ADD55C,1.0000*%
%ADD56C,0.4900*%
%ADD57C,0.8000*%
%ADD58C,1.2700*%
G36*
X1456520Y938530D02*
X1332320D01*
Y940847D01*
X1331535Y943777D01*
X1330018Y946404D01*
X1327874Y948548D01*
X1325247Y950065D01*
X1322317Y950850D01*
X1319283D01*
X1316353Y950065D01*
X1313727Y948548D01*
X1311582Y946404D01*
X1310065Y943777D01*
X1309280Y940847D01*
Y938530D01*
X1258892D01*
X1252624Y932262D01*
X1251360Y932387D01*
X1251163Y932682D01*
X1232873Y950972D01*
X1231702Y951755D01*
X1230321Y952029D01*
X1201058D01*
X1200437Y952650D01*
X1198603Y953410D01*
X1196617D01*
X1194783Y952650D01*
X1193380Y951247D01*
X1192620Y949413D01*
Y947427D01*
X1193380Y945593D01*
X1194783Y944190D01*
X1196617Y943430D01*
X1198603D01*
X1200437Y944190D01*
X1201058Y944811D01*
X1228826D01*
X1245001Y928635D01*
Y924640D01*
X1244390Y924028D01*
Y839470D01*
X1225220Y820300D01*
X1088500D01*
X1065540Y843260D01*
Y1056630D01*
X1052830Y1069340D01*
X891580Y1069340D01*
X878840Y1082080D01*
Y1143000D01*
X886500Y1150660D01*
X1456520D01*
Y938530D01*
D02*
G37*
G36*
X1310065Y934883D02*
X1311582Y932256D01*
X1313727Y930112D01*
X1316353Y928595D01*
X1319283Y927810D01*
X1320800D01*
Y455930D01*
X1289909D01*
X1289136Y456938D01*
X1289140Y456953D01*
Y459987D01*
X1288355Y462917D01*
X1286838Y465544D01*
X1284693Y467688D01*
X1282067Y469205D01*
X1279137Y469990D01*
X1276103D01*
X1273173Y469205D01*
X1270546Y467688D01*
X1268402Y465544D01*
X1266885Y462917D01*
X1266100Y459987D01*
Y456953D01*
X1266104Y456938D01*
X1265331Y455930D01*
X1219910D01*
X1210310Y465530D01*
Y804111D01*
X1230843D01*
X1232224Y804385D01*
X1233395Y805168D01*
X1258582Y830355D01*
X1259365Y831526D01*
X1259639Y832907D01*
Y925488D01*
X1261822Y927670D01*
X1283062D01*
X1283683Y927049D01*
X1285517Y926289D01*
X1287503D01*
X1289337Y927049D01*
X1290740Y928453D01*
X1291500Y930287D01*
Y932272D01*
X1290740Y934106D01*
X1290176Y934670D01*
X1290702Y935940D01*
X1309280D01*
X1309756Y936035D01*
X1310065Y934883D01*
D02*
G37*
G36*
X1456520Y755701D02*
X1323390D01*
Y844551D01*
X1456520D01*
Y755701D01*
D02*
G37*
G36*
Y664260D02*
X1323390D01*
Y753111D01*
X1456520D01*
Y664260D01*
D02*
G37*
G36*
Y572820D02*
X1323390D01*
Y661670D01*
X1456520D01*
Y572820D01*
D02*
G37*
G36*
Y478790D02*
X1323390D01*
Y570230D01*
X1456520D01*
Y478790D01*
D02*
G37*
%LPC*%
G36*
X1201171Y1107280D02*
X1200790D01*
Y1096010D01*
X1212060D01*
Y1096391D01*
X1211205Y1099580D01*
X1209555Y1102440D01*
X1207220Y1104774D01*
X1204360Y1106425D01*
X1201171Y1107280D01*
D02*
G37*
G36*
X1198250D02*
X1197869D01*
X1194680Y1106425D01*
X1191820Y1104774D01*
X1189485Y1102440D01*
X1187835Y1099580D01*
X1186980Y1096391D01*
Y1096010D01*
X1198250D01*
Y1107280D01*
D02*
G37*
G36*
X1087501D02*
X1087120D01*
Y1096010D01*
X1098390D01*
Y1096391D01*
X1097535Y1099580D01*
X1095884Y1102440D01*
X1093550Y1104774D01*
X1090690Y1106425D01*
X1087501Y1107280D01*
D02*
G37*
G36*
X1084580D02*
X1084199D01*
X1081010Y1106425D01*
X1078150Y1104774D01*
X1075816Y1102440D01*
X1074165Y1099580D01*
X1073310Y1096391D01*
Y1096010D01*
X1084580D01*
Y1107280D01*
D02*
G37*
G36*
X1036701D02*
X1036320D01*
Y1096010D01*
X1047590D01*
Y1096391D01*
X1046735Y1099580D01*
X1045085Y1102440D01*
X1042750Y1104774D01*
X1039890Y1106425D01*
X1036701Y1107280D01*
D02*
G37*
G36*
X1033780D02*
X1033399D01*
X1030210Y1106425D01*
X1027350Y1104774D01*
X1025015Y1102440D01*
X1023365Y1099580D01*
X1022510Y1096391D01*
Y1096010D01*
X1033780D01*
Y1107280D01*
D02*
G37*
G36*
X971301D02*
X970920D01*
Y1096010D01*
X982190D01*
Y1096391D01*
X981335Y1099580D01*
X979685Y1102440D01*
X977350Y1104774D01*
X974490Y1106425D01*
X971301Y1107280D01*
D02*
G37*
G36*
X968380D02*
X967999D01*
X964810Y1106425D01*
X961950Y1104774D01*
X959615Y1102440D01*
X957965Y1099580D01*
X957110Y1096391D01*
Y1096010D01*
X968380D01*
Y1107280D01*
D02*
G37*
G36*
X920501D02*
X920120D01*
Y1096010D01*
X931390D01*
Y1096391D01*
X930535Y1099580D01*
X928885Y1102440D01*
X926550Y1104774D01*
X923690Y1106425D01*
X920501Y1107280D01*
D02*
G37*
G36*
X917580D02*
X917199D01*
X914010Y1106425D01*
X911150Y1104774D01*
X908816Y1102440D01*
X907165Y1099580D01*
X906310Y1096391D01*
Y1096010D01*
X917580D01*
Y1107280D01*
D02*
G37*
G36*
X1175637Y1106260D02*
X1172603D01*
X1169673Y1105475D01*
X1167047Y1103958D01*
X1164902Y1101814D01*
X1163385Y1099187D01*
X1162600Y1096257D01*
Y1093223D01*
X1163385Y1090293D01*
X1164902Y1087666D01*
X1167047Y1085522D01*
X1169673Y1084005D01*
X1172603Y1083220D01*
X1175637D01*
X1178567Y1084005D01*
X1181193Y1085522D01*
X1183338Y1087666D01*
X1184855Y1090293D01*
X1185640Y1093223D01*
Y1096257D01*
X1184855Y1099187D01*
X1183338Y1101814D01*
X1181193Y1103958D01*
X1178567Y1105475D01*
X1175637Y1106260D01*
D02*
G37*
G36*
X1112767D02*
X1109733D01*
X1106803Y1105475D01*
X1104176Y1103958D01*
X1102032Y1101814D01*
X1100515Y1099187D01*
X1099730Y1096257D01*
Y1093223D01*
X1100515Y1090293D01*
X1102032Y1087666D01*
X1104176Y1085522D01*
X1106803Y1084005D01*
X1109733Y1083220D01*
X1112767D01*
X1115697Y1084005D01*
X1118324Y1085522D01*
X1120468Y1087666D01*
X1121985Y1090293D01*
X1122770Y1093223D01*
Y1096257D01*
X1121985Y1099187D01*
X1120468Y1101814D01*
X1118324Y1103958D01*
X1115697Y1105475D01*
X1112767Y1106260D01*
D02*
G37*
G36*
X1061967D02*
X1058933D01*
X1056003Y1105475D01*
X1053376Y1103958D01*
X1051232Y1101814D01*
X1049715Y1099187D01*
X1048930Y1096257D01*
Y1093223D01*
X1049715Y1090293D01*
X1051232Y1087666D01*
X1053376Y1085522D01*
X1056003Y1084005D01*
X1058933Y1083220D01*
X1061967D01*
X1064897Y1084005D01*
X1067523Y1085522D01*
X1069668Y1087666D01*
X1071185Y1090293D01*
X1071970Y1093223D01*
Y1096257D01*
X1071185Y1099187D01*
X1069668Y1101814D01*
X1067523Y1103958D01*
X1064897Y1105475D01*
X1061967Y1106260D01*
D02*
G37*
G36*
X996567D02*
X993533D01*
X990603Y1105475D01*
X987977Y1103958D01*
X985832Y1101814D01*
X984315Y1099187D01*
X983530Y1096257D01*
Y1093223D01*
X984315Y1090293D01*
X985832Y1087666D01*
X987977Y1085522D01*
X990603Y1084005D01*
X993533Y1083220D01*
X996567D01*
X999497Y1084005D01*
X1002123Y1085522D01*
X1004268Y1087666D01*
X1005785Y1090293D01*
X1006570Y1093223D01*
Y1096257D01*
X1005785Y1099187D01*
X1004268Y1101814D01*
X1002123Y1103958D01*
X999497Y1105475D01*
X996567Y1106260D01*
D02*
G37*
G36*
X945767D02*
X942733D01*
X939803Y1105475D01*
X937177Y1103958D01*
X935032Y1101814D01*
X933515Y1099187D01*
X932730Y1096257D01*
Y1093223D01*
X933515Y1090293D01*
X935032Y1087666D01*
X937177Y1085522D01*
X939803Y1084005D01*
X942733Y1083220D01*
X945767D01*
X948697Y1084005D01*
X951323Y1085522D01*
X953468Y1087666D01*
X954985Y1090293D01*
X955770Y1093223D01*
Y1096257D01*
X954985Y1099187D01*
X953468Y1101814D01*
X951323Y1103958D01*
X948697Y1105475D01*
X945767Y1106260D01*
D02*
G37*
G36*
X1212060Y1093470D02*
X1200790D01*
Y1082200D01*
X1201171D01*
X1204360Y1083055D01*
X1207220Y1084706D01*
X1209555Y1087040D01*
X1211205Y1089900D01*
X1212060Y1093089D01*
Y1093470D01*
D02*
G37*
G36*
X1198250D02*
X1186980D01*
Y1093089D01*
X1187835Y1089900D01*
X1189485Y1087040D01*
X1191820Y1084706D01*
X1194680Y1083055D01*
X1197869Y1082200D01*
X1198250D01*
Y1093470D01*
D02*
G37*
G36*
X1098390D02*
X1087120D01*
Y1082200D01*
X1087501D01*
X1090690Y1083055D01*
X1093550Y1084706D01*
X1095884Y1087040D01*
X1097535Y1089900D01*
X1098390Y1093089D01*
Y1093470D01*
D02*
G37*
G36*
X1084580D02*
X1073310D01*
Y1093089D01*
X1074165Y1089900D01*
X1075816Y1087040D01*
X1078150Y1084706D01*
X1081010Y1083055D01*
X1084199Y1082200D01*
X1084580D01*
Y1093470D01*
D02*
G37*
G36*
X1047590D02*
X1036320D01*
Y1082200D01*
X1036701D01*
X1039890Y1083055D01*
X1042750Y1084706D01*
X1045085Y1087040D01*
X1046735Y1089900D01*
X1047590Y1093089D01*
Y1093470D01*
D02*
G37*
G36*
X1033780D02*
X1022510D01*
Y1093089D01*
X1023365Y1089900D01*
X1025015Y1087040D01*
X1027350Y1084706D01*
X1030210Y1083055D01*
X1033399Y1082200D01*
X1033780D01*
Y1093470D01*
D02*
G37*
G36*
X982190D02*
X970920D01*
Y1082200D01*
X971301D01*
X974490Y1083055D01*
X977350Y1084706D01*
X979685Y1087040D01*
X981335Y1089900D01*
X982190Y1093089D01*
Y1093470D01*
D02*
G37*
G36*
X968380D02*
X957110D01*
Y1093089D01*
X957965Y1089900D01*
X959615Y1087040D01*
X961950Y1084706D01*
X964810Y1083055D01*
X967999Y1082200D01*
X968380D01*
Y1093470D01*
D02*
G37*
G36*
X931390D02*
X920120D01*
Y1082200D01*
X920501D01*
X923690Y1083055D01*
X926550Y1084706D01*
X928885Y1087040D01*
X930535Y1089900D01*
X931390Y1093089D01*
Y1093470D01*
D02*
G37*
G36*
X917580D02*
X906310D01*
Y1093089D01*
X907165Y1089900D01*
X908816Y1087040D01*
X911150Y1084706D01*
X914010Y1083055D01*
X917199Y1082200D01*
X917580D01*
Y1093470D01*
D02*
G37*
G36*
X1308410Y1095280D02*
X1308100D01*
Y1080510D01*
X1322870D01*
Y1080820D01*
X1322254Y1083919D01*
X1321044Y1086838D01*
X1319289Y1089465D01*
X1317055Y1091699D01*
X1314428Y1093455D01*
X1311509Y1094664D01*
X1308410Y1095280D01*
D02*
G37*
G36*
X1305560D02*
X1305250D01*
X1302151Y1094664D01*
X1299232Y1093455D01*
X1296605Y1091699D01*
X1294371Y1089465D01*
X1292616Y1086838D01*
X1291406Y1083919D01*
X1290790Y1080820D01*
Y1080510D01*
X1305560D01*
Y1095280D01*
D02*
G37*
G36*
X1452380Y1144520D02*
X1385840D01*
Y1077980D01*
X1452380D01*
Y1144520D01*
D02*
G37*
G36*
X1257509Y1094260D02*
X1254551D01*
X1251649Y1093683D01*
X1248915Y1092551D01*
X1246455Y1090907D01*
X1244363Y1088815D01*
X1242719Y1086355D01*
X1241587Y1083621D01*
X1241010Y1080719D01*
Y1077761D01*
X1241587Y1074859D01*
X1242719Y1072125D01*
X1244363Y1069665D01*
X1246455Y1067573D01*
X1248915Y1065929D01*
X1251649Y1064797D01*
X1254551Y1064220D01*
X1257509D01*
X1260411Y1064797D01*
X1263145Y1065929D01*
X1265605Y1067573D01*
X1267697Y1069665D01*
X1269341Y1072125D01*
X1270473Y1074859D01*
X1271050Y1077761D01*
Y1080719D01*
X1270473Y1083621D01*
X1269341Y1086355D01*
X1267697Y1088815D01*
X1265605Y1090907D01*
X1263145Y1092551D01*
X1260411Y1093683D01*
X1257509Y1094260D01*
D02*
G37*
G36*
X1322870Y1077970D02*
X1308100D01*
Y1063200D01*
X1308410D01*
X1311509Y1063816D01*
X1314428Y1065025D01*
X1317055Y1066781D01*
X1319289Y1069015D01*
X1321044Y1071642D01*
X1322254Y1074561D01*
X1322870Y1077660D01*
Y1077970D01*
D02*
G37*
G36*
X1305560D02*
X1290790D01*
Y1077660D01*
X1291406Y1074561D01*
X1292616Y1071642D01*
X1294371Y1069015D01*
X1296605Y1066781D01*
X1299232Y1065025D01*
X1302151Y1063816D01*
X1305250Y1063200D01*
X1305560D01*
Y1077970D01*
D02*
G37*
G36*
X1427353Y1055464D02*
X1426972D01*
Y1044194D01*
X1438242D01*
Y1044575D01*
X1437387Y1047764D01*
X1435737Y1050624D01*
X1433402Y1052959D01*
X1430542Y1054609D01*
X1427353Y1055464D01*
D02*
G37*
G36*
X1424432D02*
X1424051D01*
X1420862Y1054609D01*
X1418002Y1052959D01*
X1415668Y1050624D01*
X1414017Y1047764D01*
X1413162Y1044575D01*
Y1044194D01*
X1424432D01*
Y1055464D01*
D02*
G37*
G36*
X1438242Y1041654D02*
X1425702D01*
X1413162D01*
Y1041273D01*
X1414017Y1038084D01*
X1415668Y1035224D01*
X1418002Y1032889D01*
X1420862Y1031239D01*
X1422195Y1030881D01*
Y1029567D01*
X1420862Y1029209D01*
X1418002Y1027559D01*
X1415668Y1025224D01*
X1414017Y1022364D01*
X1413162Y1019175D01*
Y1018794D01*
X1425702D01*
X1438242D01*
Y1019175D01*
X1437387Y1022364D01*
X1435737Y1025224D01*
X1433402Y1027559D01*
X1430542Y1029209D01*
X1429209Y1029567D01*
Y1030881D01*
X1430542Y1031239D01*
X1433402Y1032889D01*
X1435737Y1035224D01*
X1437387Y1038084D01*
X1438242Y1041273D01*
Y1041654D01*
D02*
G37*
G36*
X1131570Y1025060D02*
X1131189D01*
Y1013790D01*
X1142459D01*
Y1014171D01*
X1141605Y1017360D01*
X1139954Y1020220D01*
X1137619Y1022554D01*
X1134759Y1024205D01*
X1131570Y1025060D01*
D02*
G37*
G36*
X1128649D02*
X1128268D01*
X1125079Y1024205D01*
X1122219Y1022554D01*
X1119885Y1020220D01*
X1118234Y1017360D01*
X1117379Y1014171D01*
Y1013790D01*
X1128649D01*
Y1025060D01*
D02*
G37*
G36*
X1438242Y1016254D02*
X1426972D01*
Y1004984D01*
X1427353D01*
X1430542Y1005839D01*
X1433402Y1007489D01*
X1435737Y1009824D01*
X1437387Y1012684D01*
X1438242Y1015873D01*
Y1016254D01*
D02*
G37*
G36*
X1424432D02*
X1413162D01*
Y1015873D01*
X1414017Y1012684D01*
X1415668Y1009824D01*
X1418002Y1007489D01*
X1420862Y1005839D01*
X1424051Y1004984D01*
X1424432D01*
Y1016254D01*
D02*
G37*
G36*
X1142459Y1011250D02*
X1131189D01*
Y999980D01*
X1131570D01*
X1134759Y1000835D01*
X1137619Y1002486D01*
X1139954Y1004820D01*
X1141605Y1007680D01*
X1142459Y1010869D01*
Y1011250D01*
D02*
G37*
G36*
X1128649D02*
X1117379D01*
Y1010869D01*
X1118234Y1007680D01*
X1119885Y1004820D01*
X1122219Y1002486D01*
X1125079Y1000835D01*
X1128268Y999980D01*
X1128649D01*
Y1011250D01*
D02*
G37*
G36*
X1322451Y1001870D02*
X1322070D01*
Y990600D01*
X1333340D01*
Y990981D01*
X1332485Y994170D01*
X1330835Y997030D01*
X1328500Y999364D01*
X1325640Y1001015D01*
X1322451Y1001870D01*
D02*
G37*
G36*
X1319530D02*
X1319149D01*
X1315960Y1001015D01*
X1313100Y999364D01*
X1310766Y997030D01*
X1309115Y994170D01*
X1308260Y990981D01*
Y990600D01*
X1319530D01*
Y1001870D01*
D02*
G37*
G36*
X1299505Y985042D02*
X1297500D01*
X1295647Y984274D01*
X1295002Y983629D01*
X1294357Y984274D01*
X1292505Y985042D01*
X1290500D01*
X1288647Y984274D01*
X1288002Y983629D01*
X1287357Y984274D01*
X1285505Y985042D01*
X1283500D01*
X1281647Y984274D01*
X1281002Y983629D01*
X1280357Y984274D01*
X1278505Y985042D01*
X1276500D01*
X1274647Y984274D01*
X1274002Y983629D01*
X1273357Y984274D01*
X1271505Y985042D01*
X1269500D01*
X1267647Y984274D01*
X1266229Y982857D01*
X1265462Y981004D01*
Y978999D01*
X1265879Y977992D01*
X1264147Y977274D01*
X1262729Y975856D01*
X1261962Y974004D01*
Y971999D01*
X1262729Y970147D01*
X1264147Y968729D01*
X1265879Y968011D01*
X1265462Y967004D01*
Y964999D01*
X1266229Y963147D01*
X1267647Y961729D01*
X1269500Y960962D01*
X1271505D01*
X1273357Y961729D01*
X1274002Y962374D01*
X1274647Y961729D01*
X1276500Y960962D01*
X1278505D01*
X1280357Y961729D01*
X1281002Y962374D01*
X1281647Y961729D01*
X1283500Y960962D01*
X1285505D01*
X1287357Y961729D01*
X1288002Y962374D01*
X1288647Y961729D01*
X1290500Y960962D01*
X1292505D01*
X1294357Y961729D01*
X1295002Y962374D01*
X1295647Y961729D01*
X1297500Y960962D01*
X1299505D01*
X1301357Y961729D01*
X1302775Y963147D01*
X1303542Y964999D01*
Y967004D01*
X1302775Y968857D01*
X1301357Y970274D01*
X1299625Y970992D01*
X1300042Y971999D01*
Y974004D01*
X1299625Y975011D01*
X1301357Y975729D01*
X1302775Y977147D01*
X1303542Y978999D01*
Y981004D01*
X1302775Y982857D01*
X1301357Y984274D01*
X1299505Y985042D01*
D02*
G37*
G36*
X1427219Y1003644D02*
X1424185D01*
X1421255Y1002859D01*
X1418629Y1001342D01*
X1416484Y999197D01*
X1414967Y996571D01*
X1414182Y993641D01*
Y990607D01*
X1414967Y987677D01*
X1416484Y985051D01*
X1418629Y982906D01*
X1421255Y981389D01*
X1424185Y980604D01*
X1427219D01*
X1430149Y981389D01*
X1432776Y982906D01*
X1434920Y985051D01*
X1436437Y987677D01*
X1437222Y990607D01*
Y993641D01*
X1436437Y996571D01*
X1434920Y999197D01*
X1432776Y1001342D01*
X1430149Y1002859D01*
X1427219Y1003644D01*
D02*
G37*
G36*
X1333340Y988060D02*
X1322070D01*
Y976790D01*
X1322451D01*
X1325640Y977645D01*
X1328500Y979296D01*
X1330835Y981630D01*
X1332485Y984490D01*
X1333340Y987679D01*
Y988060D01*
D02*
G37*
G36*
X1319530D02*
X1308260D01*
Y987679D01*
X1309115Y984490D01*
X1310766Y981630D01*
X1313100Y979296D01*
X1315960Y977645D01*
X1319149Y976790D01*
X1319530D01*
Y988060D01*
D02*
G37*
G36*
X1227074Y996010D02*
X1223646D01*
X1220334Y995123D01*
X1217365Y993409D01*
X1214941Y990984D01*
X1213227Y988016D01*
X1212340Y984704D01*
Y981276D01*
X1213227Y977964D01*
X1214941Y974995D01*
X1217365Y972571D01*
X1220334Y970857D01*
X1223646Y969970D01*
X1227074D01*
X1230386Y970857D01*
X1233354Y972571D01*
X1235779Y974995D01*
X1237493Y977964D01*
X1238380Y981276D01*
Y984704D01*
X1237493Y988016D01*
X1235779Y990984D01*
X1233354Y993409D01*
X1230386Y995123D01*
X1227074Y996010D01*
D02*
G37*
G36*
X1427219Y978244D02*
X1424185D01*
X1421255Y977459D01*
X1418629Y975942D01*
X1416484Y973798D01*
X1414967Y971171D01*
X1414182Y968241D01*
Y965207D01*
X1414967Y962277D01*
X1416484Y959650D01*
X1418629Y957506D01*
X1421255Y955989D01*
X1424185Y955204D01*
X1427219D01*
X1430149Y955989D01*
X1432776Y957506D01*
X1434920Y959650D01*
X1436437Y962277D01*
X1437222Y965207D01*
Y968241D01*
X1436437Y971171D01*
X1434920Y973798D01*
X1432776Y975942D01*
X1430149Y977459D01*
X1427219Y978244D01*
D02*
G37*
G36*
X1131436Y974040D02*
X1128402D01*
X1125472Y973255D01*
X1122846Y971738D01*
X1120701Y969594D01*
X1119184Y966967D01*
X1118399Y964037D01*
Y961003D01*
X1119184Y958073D01*
X1120701Y955446D01*
X1122846Y953302D01*
X1125472Y951785D01*
X1128402Y951000D01*
X1131436D01*
X1134366Y951785D01*
X1136993Y953302D01*
X1139137Y955446D01*
X1140654Y958073D01*
X1141439Y961003D01*
Y964037D01*
X1140654Y966967D01*
X1139137Y969594D01*
X1136993Y971738D01*
X1134366Y973255D01*
X1131436Y974040D01*
D02*
G37*
G36*
X1150211Y878687D02*
X1148489D01*
X1146826Y878241D01*
X1145334Y877380D01*
X1144117Y876162D01*
X1143256Y874671D01*
X1142810Y873008D01*
Y871286D01*
X1143256Y869622D01*
X1144117Y868131D01*
X1145334Y866914D01*
X1146826Y866052D01*
X1148489Y865607D01*
X1150211D01*
X1151874Y866052D01*
X1153366Y866914D01*
X1154583Y868131D01*
X1155444Y869622D01*
X1155890Y871286D01*
Y873008D01*
X1155444Y874671D01*
X1154583Y876162D01*
X1153366Y877380D01*
X1151874Y878241D01*
X1150211Y878687D01*
D02*
G37*
G36*
X1138773Y840500D02*
X1136787D01*
X1134954Y839740D01*
X1133550Y838337D01*
X1132790Y836503D01*
Y834517D01*
X1133550Y832683D01*
X1134954Y831280D01*
X1136787Y830520D01*
X1138773D01*
X1140607Y831280D01*
X1142010Y832683D01*
X1142770Y834517D01*
Y836503D01*
X1142010Y838337D01*
X1140607Y839740D01*
X1138773Y840500D01*
D02*
G37*
G36*
X1268005Y789041D02*
X1266000D01*
X1264147Y788274D01*
X1263502Y787629D01*
X1262857Y788274D01*
X1261005Y789041D01*
X1258999D01*
X1257147Y788274D01*
X1255729Y786856D01*
X1254962Y785004D01*
Y782999D01*
X1255729Y781146D01*
X1257147Y779729D01*
X1258879Y779011D01*
X1258462Y778004D01*
Y775999D01*
X1258879Y774991D01*
X1257147Y774274D01*
X1255729Y772856D01*
X1254962Y771004D01*
Y768999D01*
X1255729Y767146D01*
X1257147Y765729D01*
X1258999Y764961D01*
X1261005D01*
X1262857Y765729D01*
X1263502Y766374D01*
X1264147Y765729D01*
X1266000Y764961D01*
X1268005D01*
X1269857Y765729D01*
X1270502Y766374D01*
X1271147Y765729D01*
X1273000Y764961D01*
X1275005D01*
X1276857Y765729D01*
X1278275Y767146D01*
X1279042Y768999D01*
Y771004D01*
X1278275Y772856D01*
X1276857Y774274D01*
X1275005Y775041D01*
X1273000D01*
X1271147Y774274D01*
X1270502Y773629D01*
X1269857Y774274D01*
X1268125Y774991D01*
X1268542Y775999D01*
Y778004D01*
X1268125Y779011D01*
X1269857Y779729D01*
X1271275Y781146D01*
X1272042Y782999D01*
Y785004D01*
X1271275Y786856D01*
X1269857Y788274D01*
X1268005Y789041D01*
D02*
G37*
G36*
X1220810Y759151D02*
X1218407D01*
X1216187Y758231D01*
X1214488Y756532D01*
X1213569Y754312D01*
Y751909D01*
X1214488Y749689D01*
X1216187Y747990D01*
X1218407Y747071D01*
X1220810D01*
X1223030Y747990D01*
X1224729Y749689D01*
X1225649Y751909D01*
Y754312D01*
X1224729Y756532D01*
X1223030Y758231D01*
X1220810Y759151D01*
D02*
G37*
G36*
X1308215Y763631D02*
X1305445D01*
X1302769Y762914D01*
X1300370Y761529D01*
X1298412Y759570D01*
X1297027Y757171D01*
X1296310Y754496D01*
Y751726D01*
X1297027Y749050D01*
X1298412Y746651D01*
X1300370Y744693D01*
X1302769Y743308D01*
X1305445Y742591D01*
X1308215D01*
X1310891Y743308D01*
X1313289Y744693D01*
X1315248Y746651D01*
X1316633Y749050D01*
X1317350Y751726D01*
Y754496D01*
X1316633Y757171D01*
X1315248Y759570D01*
X1313289Y761529D01*
X1310891Y762914D01*
X1308215Y763631D01*
D02*
G37*
G36*
X1268005Y698041D02*
X1266000D01*
X1264147Y697274D01*
X1263502Y696629D01*
X1262857Y697274D01*
X1261005Y698041D01*
X1258999D01*
X1257147Y697274D01*
X1255729Y695856D01*
X1254962Y694004D01*
Y691999D01*
X1255729Y690146D01*
X1257147Y688728D01*
X1258879Y688011D01*
X1258462Y687004D01*
Y684999D01*
X1258879Y683991D01*
X1257147Y683274D01*
X1255729Y681856D01*
X1254962Y680004D01*
Y677999D01*
X1255729Y676146D01*
X1257147Y674728D01*
X1258999Y673961D01*
X1261005D01*
X1262857Y674728D01*
X1263502Y675374D01*
X1264147Y674728D01*
X1266000Y673961D01*
X1268005D01*
X1269857Y674728D01*
X1270502Y675374D01*
X1271147Y674728D01*
X1273000Y673961D01*
X1275005D01*
X1276857Y674728D01*
X1278275Y676146D01*
X1279042Y677999D01*
Y680004D01*
X1278275Y681856D01*
X1276857Y683274D01*
X1275005Y684041D01*
X1273000D01*
X1271147Y683274D01*
X1270502Y682629D01*
X1269857Y683274D01*
X1268125Y683991D01*
X1268542Y684999D01*
Y687004D01*
X1268125Y688011D01*
X1269857Y688728D01*
X1271275Y690146D01*
X1272042Y691999D01*
Y694004D01*
X1271275Y695856D01*
X1269857Y697274D01*
X1268005Y698041D01*
D02*
G37*
G36*
X1220810Y667710D02*
X1218407D01*
X1216187Y666790D01*
X1214488Y665091D01*
X1213569Y662871D01*
Y660469D01*
X1214488Y658249D01*
X1216187Y656550D01*
X1218407Y655630D01*
X1220810D01*
X1223030Y656550D01*
X1224729Y658249D01*
X1225649Y660469D01*
Y662871D01*
X1224729Y665091D01*
X1223030Y666790D01*
X1220810Y667710D01*
D02*
G37*
G36*
X1308215Y672190D02*
X1305445D01*
X1302769Y671473D01*
X1300370Y670088D01*
X1298412Y668129D01*
X1297027Y665731D01*
X1296310Y663055D01*
Y660285D01*
X1297027Y657609D01*
X1298412Y655211D01*
X1300370Y653252D01*
X1302769Y651867D01*
X1305445Y651150D01*
X1308215D01*
X1310891Y651867D01*
X1313289Y653252D01*
X1315248Y655211D01*
X1316633Y657609D01*
X1317350Y660285D01*
Y663055D01*
X1316633Y665731D01*
X1315248Y668129D01*
X1313289Y670088D01*
X1310891Y671473D01*
X1308215Y672190D01*
D02*
G37*
G36*
X1268005Y607041D02*
X1266000D01*
X1264147Y606274D01*
X1263502Y605629D01*
X1262857Y606274D01*
X1261005Y607041D01*
X1258999D01*
X1257147Y606274D01*
X1255729Y604856D01*
X1254962Y603004D01*
Y600998D01*
X1255729Y599146D01*
X1257147Y597728D01*
X1258879Y597011D01*
X1258462Y596003D01*
Y593998D01*
X1258879Y592991D01*
X1257147Y592274D01*
X1255729Y590856D01*
X1254962Y589003D01*
Y586998D01*
X1255729Y585146D01*
X1257147Y583728D01*
X1258999Y582961D01*
X1261005D01*
X1262857Y583728D01*
X1263502Y584373D01*
X1264147Y583728D01*
X1266000Y582961D01*
X1268005D01*
X1269857Y583728D01*
X1270502Y584373D01*
X1271147Y583728D01*
X1273000Y582961D01*
X1275005D01*
X1276857Y583728D01*
X1278275Y585146D01*
X1279042Y586998D01*
Y589003D01*
X1278275Y590856D01*
X1276857Y592274D01*
X1275005Y593041D01*
X1273000D01*
X1271147Y592274D01*
X1270502Y591629D01*
X1269857Y592274D01*
X1268125Y592991D01*
X1268542Y593998D01*
Y596003D01*
X1268125Y597011D01*
X1269857Y597728D01*
X1271275Y599146D01*
X1272042Y600998D01*
Y603004D01*
X1271275Y604856D01*
X1269857Y606274D01*
X1268005Y607041D01*
D02*
G37*
G36*
X1220810Y576270D02*
X1218407D01*
X1216187Y575350D01*
X1214488Y573651D01*
X1213569Y571431D01*
Y569029D01*
X1214488Y566809D01*
X1216187Y565109D01*
X1218407Y564190D01*
X1220810D01*
X1223030Y565109D01*
X1224729Y566809D01*
X1225649Y569029D01*
Y571431D01*
X1224729Y573651D01*
X1223030Y575350D01*
X1220810Y576270D01*
D02*
G37*
G36*
X1308215Y580750D02*
X1305445D01*
X1302769Y580033D01*
X1300370Y578648D01*
X1298412Y576689D01*
X1297027Y574291D01*
X1296310Y571615D01*
Y568845D01*
X1297027Y566169D01*
X1298412Y563771D01*
X1300370Y561812D01*
X1302769Y560427D01*
X1305445Y559710D01*
X1308215D01*
X1310891Y560427D01*
X1313289Y561812D01*
X1315248Y563771D01*
X1316633Y566169D01*
X1317350Y568845D01*
Y571615D01*
X1316633Y574291D01*
X1315248Y576689D01*
X1313289Y578648D01*
X1310891Y580033D01*
X1308215Y580750D01*
D02*
G37*
G36*
X1268005Y516041D02*
X1266000D01*
X1264147Y515274D01*
X1263502Y514628D01*
X1262857Y515274D01*
X1261005Y516041D01*
X1258999D01*
X1257147Y515274D01*
X1255729Y513856D01*
X1254962Y512003D01*
Y509998D01*
X1255729Y508146D01*
X1257147Y506728D01*
X1258879Y506011D01*
X1258462Y505003D01*
Y502998D01*
X1258879Y501991D01*
X1257147Y501273D01*
X1255729Y499856D01*
X1254962Y498003D01*
Y495998D01*
X1255729Y494146D01*
X1257147Y492728D01*
X1258999Y491961D01*
X1261005D01*
X1262857Y492728D01*
X1263502Y493373D01*
X1264147Y492728D01*
X1266000Y491961D01*
X1268005D01*
X1269857Y492728D01*
X1270502Y493373D01*
X1271147Y492728D01*
X1273000Y491961D01*
X1275005D01*
X1276857Y492728D01*
X1278275Y494146D01*
X1279042Y495998D01*
Y498003D01*
X1278275Y499856D01*
X1276857Y501273D01*
X1275005Y502041D01*
X1273000D01*
X1271147Y501273D01*
X1270502Y500628D01*
X1269857Y501273D01*
X1268125Y501991D01*
X1268542Y502998D01*
Y505003D01*
X1268125Y506011D01*
X1269857Y506728D01*
X1271275Y508146D01*
X1272042Y509998D01*
Y512003D01*
X1271275Y513856D01*
X1269857Y515274D01*
X1268005Y516041D01*
D02*
G37*
G36*
X1304781Y476349D02*
X1302379D01*
X1300159Y475429D01*
X1298459Y473730D01*
X1297540Y471510D01*
Y469107D01*
X1298459Y466887D01*
X1300159Y465188D01*
X1302379Y464269D01*
X1304781D01*
X1307001Y465188D01*
X1308700Y466887D01*
X1309620Y469107D01*
Y471510D01*
X1308700Y473730D01*
X1307001Y475429D01*
X1304781Y476349D01*
D02*
G37*
G36*
X1427097Y715190D02*
X1424063D01*
X1421133Y714405D01*
X1418506Y712888D01*
X1416362Y710743D01*
X1414845Y708117D01*
X1414060Y705187D01*
Y702153D01*
X1414845Y699223D01*
X1416362Y696597D01*
X1418506Y694452D01*
X1421133Y692935D01*
X1424063Y692150D01*
X1427097D01*
X1430027Y692935D01*
X1432654Y694452D01*
X1434798Y696597D01*
X1436315Y699223D01*
X1437100Y702153D01*
Y705187D01*
X1436315Y708117D01*
X1434798Y710743D01*
X1432654Y712888D01*
X1430027Y714405D01*
X1427097Y715190D01*
D02*
G37*
G36*
Y633910D02*
X1424063D01*
X1421133Y633125D01*
X1418506Y631608D01*
X1416362Y629464D01*
X1414845Y626837D01*
X1414060Y623907D01*
Y620873D01*
X1414845Y617943D01*
X1416362Y615317D01*
X1418506Y613172D01*
X1421133Y611655D01*
X1424063Y610870D01*
X1427097D01*
X1430027Y611655D01*
X1432654Y613172D01*
X1434798Y615317D01*
X1436315Y617943D01*
X1437100Y620873D01*
Y623907D01*
X1436315Y626837D01*
X1434798Y629464D01*
X1432654Y631608D01*
X1430027Y633125D01*
X1427097Y633910D01*
D02*
G37*
%LPD*%
D10*
X1256030Y926983D02*
X1260327Y931279D01*
X1286510D01*
X1256030Y832907D02*
Y926983D01*
X999490Y575310D02*
X1015210D01*
X1027050Y587150D01*
Y728090D01*
X1013460Y741680D02*
X1027050Y728090D01*
X938530Y741680D02*
X1013460D01*
X927100Y753110D02*
X938530Y741680D01*
X927100Y727710D02*
X937260Y737870D01*
X1011396D02*
X1022550Y726716D01*
X937260Y737870D02*
X1011396D01*
X1022550Y607918D02*
Y726716D01*
X1015342Y600710D02*
X1022550Y607918D01*
X999490Y600710D02*
X1015342D01*
X1078230Y807720D02*
X1230843D01*
X1256030Y832907D01*
X1248611Y834479D02*
Y930130D01*
X1230321Y948420D02*
X1248611Y930130D01*
X1228201Y814070D02*
X1248611Y834479D01*
X1083310Y814070D02*
X1228201D01*
X1052830Y833120D02*
X1078230Y807720D01*
X1052830Y833120D02*
Y862960D01*
X1059180Y838200D02*
Y867410D01*
X867506Y877570D02*
X1049020D01*
X1059180Y867410D01*
Y838200D02*
X1083310Y814070D01*
X852456Y862520D02*
X867506Y877570D01*
X832560Y828040D02*
Y828654D01*
X839280Y835374D01*
X832560Y801150D02*
Y828040D01*
X839280Y835374D02*
X846100D01*
X852456Y841730D02*
Y862520D01*
X846100Y835374D02*
X852456Y841730D01*
X943610Y821690D02*
X1019810D01*
X1033780Y751840D02*
Y807720D01*
X1019810Y821690D02*
X1033780Y807720D01*
X933450Y831850D02*
X943610Y821690D01*
X847560Y831850D02*
X855980Y840270D01*
Y861060D01*
X840740Y831850D02*
X847560D01*
X1197610Y948420D02*
X1230321D01*
X1117600Y661670D02*
X1156970D01*
X1109980Y669290D02*
X1117600Y661670D01*
X1109980Y669290D02*
Y741680D01*
X1104900Y746760D02*
X1109980Y741680D01*
X1038860Y746760D02*
X1104900D01*
X1033780Y751840D02*
X1038860Y746760D01*
X933450Y831850D02*
Y858520D01*
X749300Y962660D02*
X755650Y969010D01*
X749300Y917661D02*
Y962660D01*
X737870Y969010D02*
X744300Y962580D01*
Y915590D02*
Y962580D01*
Y915590D02*
X754380Y905510D01*
X749300Y917661D02*
X757916Y909046D01*
X793476D01*
X754380Y905510D02*
X789940D01*
X793476Y909046D02*
X800100Y902421D01*
X789940Y905510D02*
X795100Y900350D01*
Y836850D02*
Y900350D01*
Y836850D02*
X807560Y824390D01*
X800100Y838921D02*
Y902421D01*
Y838921D02*
X812560Y826461D01*
Y801150D02*
Y826461D01*
X807560Y801150D02*
Y824390D01*
X762560Y605924D02*
Y646650D01*
Y569520D02*
Y605924D01*
X767560Y584924D02*
Y646650D01*
Y567449D02*
Y584924D01*
X693740Y500700D02*
X762560Y569520D01*
X652780Y429260D02*
X693740Y470220D01*
Y500700D01*
X703740Y496558D02*
X772560Y565378D01*
Y646650D01*
X703580Y429260D02*
X703740Y429420D01*
Y496558D01*
X698740Y498629D02*
X767560Y567449D01*
X698740Y449820D02*
Y498629D01*
X678180Y429260D02*
X698740Y449820D01*
X777560Y563307D02*
Y646650D01*
X708740Y494487D02*
X777560Y563307D01*
X708740Y449500D02*
X728980Y429260D01*
X708740Y449500D02*
Y494487D01*
X677950Y758900D02*
X720310D01*
X692150Y821690D02*
Y859790D01*
X685800Y866140D02*
Y896620D01*
Y866140D02*
X692150Y859790D01*
Y869950D02*
Y901700D01*
X698500Y826220D02*
Y863600D01*
X692150Y869950D02*
X698500Y863600D01*
X692150Y821690D02*
X697230Y816610D01*
X698500Y826220D02*
X703580Y821140D01*
X689130Y763900D02*
X720310D01*
X678180Y774850D02*
Y805660D01*
Y774850D02*
X689130Y763900D01*
X684530Y780054D02*
Y808990D01*
X695684Y768900D02*
X720310D01*
X684530Y780054D02*
X695684Y768900D01*
X690880Y783590D02*
X700570Y773900D01*
X720310D01*
X690880Y783590D02*
Y812800D01*
X704460Y778900D02*
X720310D01*
X697230Y786130D02*
X704460Y778900D01*
X697230Y786130D02*
Y816610D01*
X703580Y789940D02*
X709620Y783900D01*
X720310D01*
X703580Y789940D02*
Y821140D01*
X692150Y901700D02*
Y1004030D01*
X663580Y1032600D02*
X692150Y1004030D01*
X685800Y817880D02*
X690880Y812800D01*
X685800Y817880D02*
Y855980D01*
X678180Y863600D02*
X685800Y855980D01*
X678180Y815340D02*
X684530Y808990D01*
X678180Y815340D02*
Y851380D01*
Y863600D02*
Y897100D01*
X677950Y759710D02*
X678180Y759940D01*
X677950Y758900D02*
Y759710D01*
X837560Y570870D02*
Y646650D01*
Y570870D02*
X842010Y566420D01*
X828280D02*
X832560Y570700D01*
Y646650D01*
X925830Y866140D02*
X933450Y858520D01*
X861060Y866140D02*
X925830D01*
X855980Y861060D02*
X861060Y866140D01*
X847560Y801150D02*
Y831850D01*
X837560Y828670D02*
X840740Y831850D01*
X837560Y801150D02*
Y828670D01*
X738588Y826382D02*
X747560Y817410D01*
Y801150D02*
Y817410D01*
X725170Y826382D02*
X738588D01*
X777560Y801150D02*
Y884670D01*
X785700Y892810D01*
X772560Y801150D02*
Y883950D01*
X763700Y892810D02*
X772560Y883950D01*
X914400Y550060D02*
Y640080D01*
X924400Y496730D02*
X928280Y492850D01*
X915520D02*
X919400Y496730D01*
Y642151D01*
X924400Y496730D02*
Y644222D01*
X892651Y668900D02*
X919400Y642151D01*
X890580Y663900D02*
X914400Y640080D01*
X894722Y673900D02*
X924400Y644222D01*
X874810Y673900D02*
X894722D01*
X874810Y668900D02*
X892651D01*
X874810Y663900D02*
X890580D01*
X655409Y508638D02*
X674370Y527599D01*
X646430Y508638D02*
X655409D01*
X652780Y514350D02*
X654050D01*
X674370Y527599D02*
Y671463D01*
X654050Y514350D02*
X669370Y529670D01*
Y671463D01*
X681807Y683900D01*
X674370Y671463D02*
X681807Y678900D01*
Y683900D02*
X720310D01*
X681807Y678900D02*
X720310D01*
X582210Y1047750D02*
X664940D01*
X563880Y1029420D02*
X582210Y1047750D01*
X494670Y985610D02*
X561810Y1052750D01*
X667011D01*
X541410Y1057750D02*
X669082D01*
X494670Y1011010D02*
X541410Y1057750D01*
X521010Y1062750D02*
X671153D01*
X494670Y1036410D02*
X521010Y1062750D01*
X507546Y973086D02*
X563880Y1029420D01*
X494670Y960210D02*
X507546Y973086D01*
X664940Y1047750D02*
X710170Y1002520D01*
X671153Y1062750D02*
X725170Y1008733D01*
X669082Y1057750D02*
X720170Y1006662D01*
X667011Y1052750D02*
X715170Y1004591D01*
X710170Y890030D02*
Y1002520D01*
Y890030D02*
X752560Y847640D01*
X715170Y892101D02*
Y1004591D01*
Y892101D02*
X757560Y849711D01*
X720170Y894172D02*
Y1006662D01*
Y894172D02*
X762560Y851782D01*
X725170Y896243D02*
Y1008733D01*
Y896243D02*
X767560Y853853D01*
Y801150D02*
Y853853D01*
X762560Y801150D02*
Y851782D01*
X757560Y801150D02*
Y849711D01*
X752560Y801150D02*
Y847640D01*
X660560Y717218D02*
Y967580D01*
X665560Y719289D02*
Y979820D01*
X670560Y721360D02*
Y983710D01*
X655560Y715147D02*
Y964420D01*
X685800Y896620D02*
Y984980D01*
X612780Y1032600D02*
X624840Y1020540D01*
Y1003300D02*
X660560Y967580D01*
X624840Y1003300D02*
Y1020540D01*
X646716Y998664D02*
X665560Y979820D01*
X650240Y1004030D02*
X670560Y983710D01*
X650240Y1004030D02*
Y1020540D01*
X638180Y1007200D02*
X646716Y998664D01*
X612780Y1007200D02*
X655560Y964420D01*
X638180Y1032600D02*
X650240Y1020540D01*
X663580Y1007200D02*
X685800Y984980D01*
X655560Y715147D02*
X681807Y688900D01*
X660560Y717218D02*
X683878Y693900D01*
X670560Y721360D02*
X688020Y703900D01*
X720310D01*
X665560Y719289D02*
X685949Y698900D01*
X720310D01*
X683878Y693900D02*
X720310D01*
X681807Y688900D02*
X720310D01*
X713740Y469900D02*
X754380Y429260D01*
X713740Y469900D02*
Y492416D01*
X782560Y561236D01*
Y646650D01*
X783590Y476250D02*
Y520528D01*
Y476250D02*
X786828Y473012D01*
X830580Y429260D01*
X802640D02*
X805180D01*
X778590Y453310D02*
Y522599D01*
Y453310D02*
X802640Y429260D01*
X773590Y435450D02*
X779780Y429260D01*
X773590Y435450D02*
Y524670D01*
X783590Y520528D02*
X812560Y549498D01*
Y646650D01*
X778590Y522599D02*
X807560Y551569D01*
Y646650D01*
X773590Y524670D02*
X802560Y553640D01*
Y646650D01*
X822560Y801150D02*
Y837800D01*
X827560Y801150D02*
Y831850D01*
X963930Y612140D02*
X1012190D01*
X897170Y678900D02*
X963930Y612140D01*
X874810Y678900D02*
X897170D01*
X965200Y615950D02*
X1007110D01*
X897250Y683900D02*
X965200Y615950D01*
X874810Y683900D02*
X897250D01*
X1012190Y612140D02*
X1017270Y617220D01*
X1007110Y615950D02*
X1012190Y621030D01*
X1017270Y617220D02*
Y713740D01*
X1014730Y716280D02*
X1017270Y713740D01*
X963930Y716280D02*
X1014730D01*
X952500Y727710D02*
X963930Y716280D01*
X1009650Y712470D02*
X1012190Y709930D01*
X979170Y702310D02*
X989330Y712470D01*
X1009650D01*
X952500Y702310D02*
X979170D01*
X1012190Y621030D02*
Y709930D01*
D12*
X842560Y801150D02*
Y825500D01*
X852560Y801150D02*
Y817490D01*
X899480Y688900D02*
X962270Y626110D01*
X999490D01*
X874810Y688900D02*
X899480D01*
X943610Y651510D02*
X999490D01*
X901220Y693900D02*
X943610Y651510D01*
X874810Y693900D02*
X901220D01*
X903184Y698900D02*
X925174Y676910D01*
X999490D01*
X874810Y698900D02*
X903184D01*
X905014Y703900D02*
X921844Y687070D01*
X984250D01*
X874810Y703900D02*
X905014D01*
X984250Y687070D02*
X999490Y702310D01*
D15*
X795020Y660400D02*
X797560D01*
X792560Y657940D02*
X795020Y660400D01*
X792560Y646650D02*
Y657940D01*
X734060Y698900D02*
Y703900D01*
X729060Y708900D02*
X734060Y703900D01*
X720310Y708900D02*
X729060D01*
X709375Y718900D02*
X720310D01*
X706920Y716445D02*
X709375Y718900D01*
X706920Y711670D02*
Y716445D01*
Y711670D02*
X709690Y708900D01*
X720310D01*
X874810Y723900D02*
Y728900D01*
Y718900D02*
Y723900D01*
X887970Y711200D02*
Y724918D01*
X885670Y708900D02*
X887970Y711200D01*
X874810Y708900D02*
X885670D01*
X883988Y728900D02*
X887970Y724918D01*
X874810Y728900D02*
X883988D01*
X797560Y788670D02*
Y801150D01*
X744220Y614680D02*
X757560Y628020D01*
X735330Y614680D02*
X744220D01*
X734957Y666836D02*
Y681370D01*
X732021Y663900D02*
X734957Y666836D01*
X720310Y663900D02*
X732021D01*
X734060Y716823D02*
Y725170D01*
X731137Y713900D02*
X734060Y716823D01*
X720310Y713900D02*
X731137D01*
X727560Y808990D02*
X735330D01*
X737560Y806760D01*
Y801150D02*
Y806760D01*
X792560Y820687D02*
X793473Y821600D01*
X792560Y801150D02*
Y820687D01*
X800250Y815646D02*
X802560Y813336D01*
Y801150D02*
Y813336D01*
X859790Y808990D02*
X863600D01*
X857560Y806760D02*
X859790Y808990D01*
X857560Y801150D02*
Y806760D01*
Y630920D02*
X858560Y629920D01*
X857560Y630920D02*
Y646650D01*
X795020Y631190D02*
X797560Y633730D01*
Y646650D01*
X787560Y626030D02*
X792560Y621030D01*
X787560Y626030D02*
Y646650D01*
X732790Y633730D02*
X737560Y638500D01*
Y646650D01*
X698500Y665480D02*
X706920Y673900D01*
X720310D01*
X698500Y731520D02*
X706120Y723900D01*
X720310D01*
X757560Y628020D02*
Y646650D01*
X874810Y753900D02*
X910910D01*
X922820Y765810D02*
X939800D01*
X910910Y753900D02*
X922820Y765810D01*
X939800D02*
X952500Y753110D01*
X874810Y748900D02*
X922890D01*
X927100Y753110D01*
X910910Y743900D02*
X927100Y727710D01*
X874810Y743900D02*
X910910D01*
X874810Y738900D02*
X887970D01*
X924560Y702310D01*
X927100D01*
X859790Y784860D02*
X875030Y800100D01*
X866140Y853440D02*
X875030Y844550D01*
Y800100D02*
Y844550D01*
X901700Y769620D02*
Y838200D01*
X916940Y853440D01*
X890980Y758900D02*
X901700Y769620D01*
X874810Y758900D02*
X890980D01*
X891540Y769620D02*
Y853440D01*
X885820Y763900D02*
X891540Y769620D01*
X874810Y763900D02*
X885820D01*
X859790Y736600D02*
Y784860D01*
Y736600D02*
X862490Y733900D01*
X874810D01*
D16*
X782560Y646650D02*
D03*
X777560D02*
D03*
X767560D02*
D03*
X772560D02*
D03*
X762560D02*
D03*
X802560D02*
D03*
X807560D02*
D03*
X812560D02*
D03*
X857560D02*
D03*
X852560D02*
D03*
X847560D02*
D03*
X842560D02*
D03*
X837560D02*
D03*
X832560D02*
D03*
X827560D02*
D03*
X822560D02*
D03*
X817560D02*
D03*
X797560D02*
D03*
X792560D02*
D03*
X787560D02*
D03*
X757560D02*
D03*
X752560D02*
D03*
X747560D02*
D03*
X742560D02*
D03*
X737560D02*
D03*
Y801150D02*
D03*
X742560D02*
D03*
X747560D02*
D03*
X752560D02*
D03*
X757560D02*
D03*
X762560D02*
D03*
X767560D02*
D03*
X772560D02*
D03*
X777560D02*
D03*
X782560D02*
D03*
X787560D02*
D03*
X792560D02*
D03*
X797560D02*
D03*
X802560D02*
D03*
X807560D02*
D03*
X812560D02*
D03*
X817560D02*
D03*
X822560D02*
D03*
X827560D02*
D03*
X832560D02*
D03*
X837560D02*
D03*
X842560D02*
D03*
X847560D02*
D03*
X852560D02*
D03*
X857560D02*
D03*
D17*
X720310Y663900D02*
D03*
Y668900D02*
D03*
Y673900D02*
D03*
Y678900D02*
D03*
Y683900D02*
D03*
Y688900D02*
D03*
Y693900D02*
D03*
Y698900D02*
D03*
Y703900D02*
D03*
Y708900D02*
D03*
Y713900D02*
D03*
Y718900D02*
D03*
Y723900D02*
D03*
Y728900D02*
D03*
Y733900D02*
D03*
Y738900D02*
D03*
Y743900D02*
D03*
Y748900D02*
D03*
Y753900D02*
D03*
Y758900D02*
D03*
Y763900D02*
D03*
Y768900D02*
D03*
Y773900D02*
D03*
Y778900D02*
D03*
Y783900D02*
D03*
X874810D02*
D03*
Y778900D02*
D03*
Y773900D02*
D03*
Y768900D02*
D03*
Y763900D02*
D03*
Y758900D02*
D03*
Y753900D02*
D03*
Y748900D02*
D03*
Y743900D02*
D03*
Y738900D02*
D03*
Y733900D02*
D03*
Y728900D02*
D03*
Y723900D02*
D03*
Y718900D02*
D03*
Y713900D02*
D03*
Y708900D02*
D03*
Y703900D02*
D03*
Y698900D02*
D03*
Y693900D02*
D03*
Y688900D02*
D03*
Y683900D02*
D03*
Y678900D02*
D03*
Y673900D02*
D03*
Y668900D02*
D03*
Y663900D02*
D03*
D38*
X544830Y464820D02*
Y556260D01*
Y464820D02*
X580390Y429260D01*
X519430Y581660D02*
X544830Y556260D01*
X485140Y581660D02*
X519430D01*
X580390Y429260D02*
X627380D01*
X476250Y590550D02*
X485140Y581660D01*
X476250Y590550D02*
Y736600D01*
X489040Y749390D01*
X494670D01*
D39*
X976630Y812800D02*
X1013460D01*
X943610D02*
X976630D01*
X1031754Y736086D02*
X1097280D01*
X1023620Y744220D02*
X1031754Y736086D01*
X1023620Y744220D02*
Y802640D01*
X1013460Y812800D02*
X1023620Y802640D01*
X927100Y796290D02*
X943610Y812800D01*
X927100Y778510D02*
Y796290D01*
D40*
X852170Y817880D02*
X852560Y817490D01*
D41*
X601980Y759940D02*
D03*
X847090Y935910D02*
D03*
X975360D02*
D03*
X932603D02*
D03*
X889847D02*
D03*
X570230Y1101090D02*
D03*
X1225360Y982990D02*
D03*
X1407160Y866140D02*
D03*
X1376680D02*
D03*
X1071800Y707390D02*
D03*
Y621030D02*
D03*
Y649817D02*
D03*
Y678603D02*
D03*
X633730Y659130D02*
D03*
Y623570D02*
D03*
X601980Y897100D02*
D03*
Y851380D02*
D03*
Y805660D02*
D03*
D42*
X1174120Y1094740D02*
D03*
X1199520D02*
D03*
X494670Y829400D02*
D03*
Y854800D02*
D03*
Y774790D02*
D03*
Y800190D02*
D03*
Y723990D02*
D03*
Y749390D02*
D03*
X1425702Y966724D02*
D03*
Y992124D02*
D03*
Y1017524D02*
D03*
Y1042924D02*
D03*
X1129919Y1012520D02*
D03*
Y962520D02*
D03*
X918850Y1094740D02*
D03*
X944250D02*
D03*
X969650D02*
D03*
X995050D02*
D03*
X1060450D02*
D03*
X1035050D02*
D03*
X1085850D02*
D03*
X1111250D02*
D03*
X1320800Y939330D02*
D03*
Y989330D02*
D03*
X1049020Y1022350D02*
D03*
Y996950D02*
D03*
Y971550D02*
D03*
X1022350Y890270D02*
D03*
Y864870D02*
D03*
Y839470D02*
D03*
X1277620Y458470D02*
D03*
Y433070D02*
D03*
X494670Y905600D02*
D03*
Y880200D02*
D03*
Y486500D02*
D03*
Y511900D02*
D03*
Y537300D02*
D03*
Y562700D02*
D03*
Y600800D02*
D03*
Y626200D02*
D03*
Y651600D02*
D03*
Y677000D02*
D03*
X879950Y500380D02*
D03*
X854550D02*
D03*
X829150D02*
D03*
X803750D02*
D03*
X1425580Y622390D02*
D03*
Y647790D02*
D03*
Y678270D02*
D03*
Y703670D02*
D03*
X494670Y934810D02*
D03*
Y1061810D02*
D03*
Y1036410D02*
D03*
Y1011010D02*
D03*
Y985610D02*
D03*
Y960210D02*
D03*
D43*
X567830Y698900D02*
D03*
X592830D02*
D03*
X592610Y617220D02*
D03*
X567610D02*
D03*
X1306830Y661670D02*
D03*
X1281830D02*
D03*
X1306830Y570230D02*
D03*
X1281830D02*
D03*
X1306830Y753111D02*
D03*
X1281830D02*
D03*
X779980Y939800D02*
D03*
X804980D02*
D03*
D44*
X999490Y753110D02*
D03*
X927100Y778510D02*
D03*
X725170Y826382D02*
D03*
D45*
X999490Y702310D02*
D03*
Y676910D02*
D03*
Y651510D02*
D03*
Y626110D02*
D03*
Y600710D02*
D03*
Y575310D02*
D03*
Y549910D02*
D03*
Y727710D02*
D03*
X587380Y1032600D02*
D03*
X612780Y1007200D02*
D03*
Y1032600D02*
D03*
X638180Y1007200D02*
D03*
Y1032600D02*
D03*
X663580Y1007200D02*
D03*
Y1032600D02*
D03*
X952500Y778510D02*
D03*
X927100Y753110D02*
D03*
X952500D02*
D03*
X927100Y727710D02*
D03*
X952500D02*
D03*
X927100Y702310D02*
D03*
X952500D02*
D03*
X840740Y853440D02*
D03*
X866140D02*
D03*
X891540D02*
D03*
X916940D02*
D03*
X725170Y851782D02*
D03*
X805180Y429260D02*
D03*
X627380D02*
D03*
X652780D02*
D03*
X678180D02*
D03*
X703580D02*
D03*
X728980D02*
D03*
X754380D02*
D03*
X779780D02*
D03*
X830580D02*
D03*
D46*
X587380Y1007200D02*
D03*
X815340Y853440D02*
D03*
X855980Y429260D02*
D03*
D47*
X947550Y511837D02*
D03*
X1122550D02*
D03*
D48*
X1256030Y1079240D02*
D03*
X1306830D02*
D03*
D49*
X782120Y1001450D02*
D03*
Y1113350D02*
D03*
X842270Y1045550D02*
D03*
X721970D02*
D03*
D50*
X794620Y1073150D02*
D03*
X769620D02*
D03*
Y1040950D02*
D03*
X794620D02*
D03*
D51*
X1419110Y431250D02*
D03*
Y1111250D02*
D03*
X499110Y431250D02*
D03*
Y1111250D02*
D03*
D52*
X1115001Y960001D02*
D03*
X1110001Y910001D02*
D03*
X1115001Y860001D02*
D03*
X1110001Y850001D02*
D03*
X1115001Y840001D02*
D03*
X1110001Y830000D02*
D03*
X1105001Y960001D02*
D03*
X1100001Y950001D02*
D03*
X1105001Y940001D02*
D03*
X1100001Y930001D02*
D03*
X1105001Y920001D02*
D03*
X1100001Y910001D02*
D03*
X1105001Y860001D02*
D03*
X1100001Y850001D02*
D03*
X1105001Y840001D02*
D03*
X1100001Y830000D02*
D03*
X1095001Y960001D02*
D03*
X1090001Y950001D02*
D03*
X1095001Y940001D02*
D03*
X1090001Y930001D02*
D03*
X1095001Y920001D02*
D03*
X1090001Y910001D02*
D03*
X1095001Y860001D02*
D03*
X1085001Y960001D02*
D03*
X1080001Y950001D02*
D03*
X1085001Y940001D02*
D03*
X1080001Y930001D02*
D03*
X1085001Y920001D02*
D03*
Y860001D02*
D03*
X1075001Y960001D02*
D03*
X1070001Y950001D02*
D03*
X1075001Y940001D02*
D03*
X1070001Y930001D02*
D03*
X1075001Y920001D02*
D03*
X1298502Y980002D02*
D03*
X1295002Y973002D02*
D03*
X1298502Y966002D02*
D03*
X1291502Y980002D02*
D03*
X1288002Y973002D02*
D03*
X1291502Y966002D02*
D03*
X1284502Y980002D02*
D03*
X1281002Y973002D02*
D03*
X1284502Y966002D02*
D03*
X1277502Y980002D02*
D03*
X1274002Y973002D02*
D03*
X1277502Y966002D02*
D03*
X1270502Y980002D02*
D03*
X1267002Y973002D02*
D03*
X1270502Y966002D02*
D03*
X1274002Y497001D02*
D03*
X1267002Y511001D02*
D03*
Y497001D02*
D03*
X1260002Y511001D02*
D03*
X1263502Y504001D02*
D03*
X1260002Y497001D02*
D03*
X1274002Y588001D02*
D03*
X1267002Y602001D02*
D03*
Y588001D02*
D03*
X1260002Y602001D02*
D03*
X1263502Y595001D02*
D03*
X1260002Y588001D02*
D03*
X1274002Y679001D02*
D03*
X1267002Y693001D02*
D03*
Y679001D02*
D03*
X1260002Y693001D02*
D03*
X1263502Y686001D02*
D03*
X1260002Y679001D02*
D03*
X1274002Y770001D02*
D03*
X1267002Y784001D02*
D03*
Y770001D02*
D03*
X1260002Y784001D02*
D03*
X1263502Y777001D02*
D03*
X1260002Y770001D02*
D03*
X1316002Y899001D02*
D03*
Y892001D02*
D03*
Y885001D02*
D03*
Y878001D02*
D03*
Y871001D02*
D03*
Y864001D02*
D03*
Y857001D02*
D03*
X1309002Y906002D02*
D03*
Y899001D02*
D03*
Y892001D02*
D03*
Y885001D02*
D03*
Y878001D02*
D03*
Y871001D02*
D03*
Y864001D02*
D03*
Y857001D02*
D03*
Y850001D02*
D03*
X1302002Y857001D02*
D03*
Y850001D02*
D03*
X1295002Y857001D02*
D03*
Y850001D02*
D03*
X1288002Y857001D02*
D03*
Y850001D02*
D03*
X1281002Y857001D02*
D03*
Y850001D02*
D03*
X1274002Y857001D02*
D03*
Y850001D02*
D03*
X1267002Y857001D02*
D03*
Y850001D02*
D03*
Y808001D02*
D03*
Y801001D02*
D03*
Y717001D02*
D03*
Y710001D02*
D03*
Y626001D02*
D03*
Y619001D02*
D03*
Y535001D02*
D03*
Y528001D02*
D03*
X1260002Y808001D02*
D03*
Y801001D02*
D03*
Y717001D02*
D03*
Y710001D02*
D03*
Y626001D02*
D03*
Y619001D02*
D03*
Y535001D02*
D03*
Y528001D02*
D03*
X1440000Y488000D02*
D03*
X1425000D02*
D03*
X1395000D02*
D03*
X1365000Y548000D02*
D03*
Y518000D02*
D03*
Y488000D02*
D03*
X1350000Y548000D02*
D03*
X1357500Y533000D02*
D03*
X1350000Y518000D02*
D03*
X1357500Y503000D02*
D03*
X1350000Y488000D02*
D03*
X1335000D02*
D03*
X1450001Y640000D02*
D03*
Y600000D02*
D03*
X1410001Y640000D02*
D03*
X1400001Y620000D02*
D03*
X1410001Y600000D02*
D03*
X1400001Y580000D02*
D03*
X1390001Y640000D02*
D03*
X1380001Y620000D02*
D03*
X1390001Y600000D02*
D03*
X1380001Y580000D02*
D03*
X1370001Y640000D02*
D03*
X1360001Y620000D02*
D03*
X1370001Y600000D02*
D03*
X1360001Y580000D02*
D03*
X1350001Y640000D02*
D03*
Y600000D02*
D03*
X1450001Y740000D02*
D03*
Y700000D02*
D03*
X1440001Y680000D02*
D03*
X1410001Y740000D02*
D03*
X1400001Y720000D02*
D03*
X1410001Y700000D02*
D03*
X1400001Y680000D02*
D03*
X1390001Y740000D02*
D03*
X1380001Y720000D02*
D03*
X1390001Y700000D02*
D03*
X1380001Y680000D02*
D03*
X1370001Y740000D02*
D03*
X1360001Y720000D02*
D03*
X1370001Y700000D02*
D03*
X1360001Y680000D02*
D03*
X1350001Y700000D02*
D03*
X1340001Y680000D02*
D03*
X1447500Y840000D02*
D03*
X1432500D02*
D03*
X1417500D02*
D03*
X1402500D02*
D03*
X1387500D02*
D03*
X1372500D02*
D03*
X1365000Y825000D02*
D03*
Y795000D02*
D03*
Y765000D02*
D03*
X1357500Y840000D02*
D03*
X1350000Y825000D02*
D03*
X1357500Y810000D02*
D03*
X1350000Y795000D02*
D03*
X1357500Y780000D02*
D03*
X1342500Y840000D02*
D03*
X1327500D02*
D03*
D53*
X584190Y1084590D02*
D03*
X842645Y552900D02*
D03*
X1391920Y853642D02*
D03*
X1352910Y865119D02*
D03*
Y906779D02*
D03*
X797560Y660400D02*
D03*
X734060Y698900D02*
D03*
X887970Y724918D02*
D03*
X802005Y764390D02*
D03*
X845820Y693900D02*
D03*
X985929Y794110D02*
D03*
X1303580Y470309D02*
D03*
X1219609Y753111D02*
D03*
Y661670D02*
D03*
Y570230D02*
D03*
X548560Y945741D02*
D03*
X573560Y889100D02*
D03*
X579480Y835850D02*
D03*
Y789820D02*
D03*
X580121Y740940D02*
D03*
X662560Y692320D02*
D03*
X688020Y653571D02*
D03*
X613819Y461310D02*
D03*
X529740Y519430D02*
D03*
X636529Y582930D02*
D03*
X643631Y555410D02*
D03*
X606780Y510630D02*
D03*
X562730Y496691D02*
D03*
X1104039Y487980D02*
D03*
Y420099D02*
D03*
X1088300Y664210D02*
D03*
X1132840Y670560D02*
D03*
X1115970Y622700D02*
D03*
X1094300Y578606D02*
D03*
Y761486D02*
D03*
X1104900Y797560D02*
D03*
X678180Y759940D02*
D03*
D54*
X837560Y764390D02*
D03*
X747880D02*
D03*
X770945Y745863D02*
D03*
X837560Y724918D02*
D03*
X800735Y684680D02*
D03*
X759610Y718185D02*
D03*
Y682625D02*
D03*
D55*
X952500Y664210D02*
D03*
D56*
X1137780Y835510D02*
D03*
X1043650Y917090D02*
D03*
X983690Y848360D02*
D03*
X975360Y961590D02*
D03*
X932603D02*
D03*
X847090D02*
D03*
X889847D02*
D03*
X774915Y917090D02*
D03*
X797560Y788670D02*
D03*
X785980Y832130D02*
D03*
X1286510Y931279D02*
D03*
X1052830Y862960D02*
D03*
X976630Y812800D02*
D03*
X735330Y614680D02*
D03*
X755650Y969010D02*
D03*
X737870D02*
D03*
X1197610Y948420D02*
D03*
X762560Y605924D02*
D03*
X772560Y598924D02*
D03*
X777560Y591924D02*
D03*
X767560Y584924D02*
D03*
X734957Y681370D02*
D03*
X734060Y725170D02*
D03*
X727560Y808990D02*
D03*
X793473Y821600D02*
D03*
X800250Y815646D02*
D03*
X863600Y808990D02*
D03*
X858560Y629920D02*
D03*
X795020Y631190D02*
D03*
X792560Y621030D02*
D03*
X732790Y633730D02*
D03*
X698500Y665480D02*
D03*
Y731520D02*
D03*
X678180Y851380D02*
D03*
X842010Y566420D02*
D03*
X828280D02*
D03*
X1156970Y661670D02*
D03*
X763700Y892810D02*
D03*
X785700D02*
D03*
X914400Y550060D02*
D03*
X928280Y492850D02*
D03*
X915520D02*
D03*
X652780Y514350D02*
D03*
X646430Y508638D02*
D03*
X678180Y897100D02*
D03*
Y805660D02*
D03*
X822560Y837800D02*
D03*
X827560Y831850D02*
D03*
X842560Y825500D02*
D03*
X852560Y817880D02*
D03*
D57*
X1149350Y872147D02*
D03*
D58*
X1013460Y980590D02*
D03*
X884288D02*
D03*
X970551D02*
D03*
X927930D02*
D03*
X1263650Y483870D02*
D03*
X1097280Y736086D02*
D03*
M02*
