G04*
G04 #@! TF.GenerationSoftware,Altium Limited,Altium Designer,22.8.2 (66)*
G04*
G04 Layer_Physical_Order=2*
G04 Layer_Color=32768*
%FSLAX44Y44*%
%MOMM*%
G71*
G04*
G04 #@! TF.SameCoordinates,5F540E87-1B0C-4F24-9FDC-59AD78F45D3A*
G04*
G04*
G04 #@! TF.FilePolarity,Negative*
G04*
G01*
G75*
%ADD59C,1.0160*%
%ADD60C,3.3160*%
%ADD61C,2.0160*%
G04:AMPARAMS|DCode=62|XSize=2.524mm|YSize=2.524mm|CornerRadius=0mm|HoleSize=0mm|Usage=FLASHONLY|Rotation=0.000|XOffset=0mm|YOffset=0mm|HoleType=Round|Shape=Relief|Width=0.254mm|Gap=0.254mm|Entries=4|*
%AMTHD62*
7,0,0,2.5240,2.0160,0.2540,45*
%
%ADD62THD62*%
%ADD63C,2.1160*%
G04:AMPARAMS|DCode=64|XSize=2.624mm|YSize=2.624mm|CornerRadius=0mm|HoleSize=0mm|Usage=FLASHONLY|Rotation=0.000|XOffset=0mm|YOffset=0mm|HoleType=Round|Shape=Relief|Width=0.254mm|Gap=0.254mm|Entries=4|*
%AMTHD64*
7,0,0,2.6240,2.1160,0.2540,45*
%
%ADD64THD64*%
%ADD65C,1.9160*%
G04:AMPARAMS|DCode=66|XSize=2.424mm|YSize=2.424mm|CornerRadius=0mm|HoleSize=0mm|Usage=FLASHONLY|Rotation=0.000|XOffset=0mm|YOffset=0mm|HoleType=Round|Shape=Relief|Width=0.254mm|Gap=0.254mm|Entries=4|*
%AMTHD66*
7,0,0,2.4240,1.9160,0.2540,45*
%
%ADD66THD66*%
%ADD67C,2.5160*%
G04:AMPARAMS|DCode=68|XSize=3.824mm|YSize=3.824mm|CornerRadius=0mm|HoleSize=0mm|Usage=FLASHONLY|Rotation=0.000|XOffset=0mm|YOffset=0mm|HoleType=Round|Shape=Relief|Width=0.254mm|Gap=0.254mm|Entries=4|*
%AMTHD68*
7,0,0,3.8240,3.3160,0.2540,45*
%
%ADD68THD68*%
%ADD69C,4.8133*%
%ADD70C,1.3160*%
%ADD71C,1.8160*%
%ADD72C,1.7160*%
%ADD73C,1.4160*%
D59*
X459110Y391250D02*
X1459110D01*
Y1153250D01*
X459110D02*
X1459110D01*
X459110Y391250D02*
Y1153250D01*
D60*
X601980Y759940D02*
D03*
X847090Y935910D02*
D03*
X975360D02*
D03*
X932603D02*
D03*
X889847D02*
D03*
X570230Y1101090D02*
D03*
X1225360Y982990D02*
D03*
X1407160Y866140D02*
D03*
X1376680D02*
D03*
X1071800Y707390D02*
D03*
Y621030D02*
D03*
Y649817D02*
D03*
Y678603D02*
D03*
X633730Y659130D02*
D03*
Y623570D02*
D03*
X601980Y897100D02*
D03*
Y851380D02*
D03*
Y805660D02*
D03*
D61*
X1174120Y1094740D02*
D03*
X1199520D02*
D03*
X567830Y698900D02*
D03*
X567610Y617220D02*
D03*
X494670Y829400D02*
D03*
Y854800D02*
D03*
Y774790D02*
D03*
Y800190D02*
D03*
Y723990D02*
D03*
Y749390D02*
D03*
X1425702Y1017524D02*
D03*
Y1042924D02*
D03*
X918850Y1094740D02*
D03*
X944250D02*
D03*
X969650D02*
D03*
X995050D02*
D03*
X1060450D02*
D03*
X1035050D02*
D03*
X1085850D02*
D03*
X1111250D02*
D03*
X1281830Y661670D02*
D03*
Y570230D02*
D03*
Y753111D02*
D03*
X804980Y939800D02*
D03*
X1122550Y511837D02*
D03*
X1277620Y458470D02*
D03*
Y433070D02*
D03*
X494670Y905600D02*
D03*
Y880200D02*
D03*
Y486500D02*
D03*
Y511900D02*
D03*
Y537300D02*
D03*
Y562700D02*
D03*
Y600800D02*
D03*
Y626200D02*
D03*
Y651600D02*
D03*
X879950Y500380D02*
D03*
X829150D02*
D03*
X1425580Y622390D02*
D03*
Y647790D02*
D03*
Y678270D02*
D03*
Y703670D02*
D03*
X494670Y1061810D02*
D03*
Y1036410D02*
D03*
Y1011010D02*
D03*
Y985610D02*
D03*
Y960210D02*
D03*
D62*
X592830Y698900D02*
D03*
X592610Y617220D02*
D03*
X1425702Y966724D02*
D03*
Y992124D02*
D03*
X1306830Y661670D02*
D03*
Y570230D02*
D03*
Y753111D02*
D03*
X779980Y939800D02*
D03*
X947550Y511837D02*
D03*
X494670Y677000D02*
D03*
X854550Y500380D02*
D03*
X803750D02*
D03*
X494670Y934810D02*
D03*
D63*
X1129919Y1012520D02*
D03*
X1320800Y989330D02*
D03*
X1049020Y1022350D02*
D03*
Y971550D02*
D03*
X1022350Y890270D02*
D03*
D64*
X1129919Y962520D02*
D03*
X1320800Y939330D02*
D03*
X1049020Y996950D02*
D03*
X1022350Y864870D02*
D03*
Y839470D02*
D03*
D65*
X999490Y753110D02*
D03*
Y702310D02*
D03*
Y676910D02*
D03*
Y651510D02*
D03*
Y626110D02*
D03*
Y600710D02*
D03*
Y575310D02*
D03*
Y549910D02*
D03*
X587380Y1007200D02*
D03*
X612780D02*
D03*
Y1032600D02*
D03*
X638180Y1007200D02*
D03*
Y1032600D02*
D03*
X663580Y1007200D02*
D03*
Y1032600D02*
D03*
X927100Y778510D02*
D03*
Y753110D02*
D03*
X952500D02*
D03*
X927100Y727710D02*
D03*
X952500D02*
D03*
X927100Y702310D02*
D03*
X952500D02*
D03*
X815340Y853440D02*
D03*
X866140D02*
D03*
X891540D02*
D03*
X916940D02*
D03*
X794620Y1073150D02*
D03*
X769620D02*
D03*
Y1040950D02*
D03*
X725170Y826382D02*
D03*
X805180Y429260D02*
D03*
X627380D02*
D03*
X652780D02*
D03*
X678180D02*
D03*
X703580D02*
D03*
X728980D02*
D03*
X754380D02*
D03*
X779780D02*
D03*
X830580D02*
D03*
D66*
X999490Y727710D02*
D03*
X587380Y1032600D02*
D03*
X952500Y778510D02*
D03*
X840740Y853440D02*
D03*
X794620Y1040950D02*
D03*
X725170Y851782D02*
D03*
X855980Y429260D02*
D03*
D67*
X1256030Y1079240D02*
D03*
X1306830D02*
D03*
D68*
X782120Y1001450D02*
D03*
Y1113350D02*
D03*
X842270Y1045550D02*
D03*
X721970D02*
D03*
D69*
X1419110Y431250D02*
D03*
Y1111250D02*
D03*
X499110Y431250D02*
D03*
Y1111250D02*
D03*
D70*
X1115001Y960001D02*
D03*
X1110001Y910001D02*
D03*
X1115001Y860001D02*
D03*
X1110001Y850001D02*
D03*
X1115001Y840001D02*
D03*
X1110001Y830000D02*
D03*
X1105001Y960001D02*
D03*
X1100001Y950001D02*
D03*
X1105001Y940001D02*
D03*
X1100001Y930001D02*
D03*
X1105001Y920001D02*
D03*
X1100001Y910001D02*
D03*
X1105001Y860001D02*
D03*
X1100001Y850001D02*
D03*
X1105001Y840001D02*
D03*
X1100001Y830000D02*
D03*
X1095001Y960001D02*
D03*
X1090001Y950001D02*
D03*
X1095001Y940001D02*
D03*
X1090001Y930001D02*
D03*
X1095001Y920001D02*
D03*
X1090001Y910001D02*
D03*
X1095001Y860001D02*
D03*
X1085001Y960001D02*
D03*
X1080001Y950001D02*
D03*
X1085001Y940001D02*
D03*
X1080001Y930001D02*
D03*
X1085001Y920001D02*
D03*
Y860001D02*
D03*
X1075001Y960001D02*
D03*
X1070001Y950001D02*
D03*
X1075001Y940001D02*
D03*
X1070001Y930001D02*
D03*
X1075001Y920001D02*
D03*
X1316002Y899001D02*
D03*
Y892001D02*
D03*
Y885001D02*
D03*
Y878001D02*
D03*
Y871001D02*
D03*
Y864001D02*
D03*
Y857001D02*
D03*
X1309002Y906002D02*
D03*
Y899001D02*
D03*
Y892001D02*
D03*
Y885001D02*
D03*
Y878001D02*
D03*
Y871001D02*
D03*
Y864001D02*
D03*
Y857001D02*
D03*
Y850001D02*
D03*
X1302002Y857001D02*
D03*
Y850001D02*
D03*
X1295002Y857001D02*
D03*
Y850001D02*
D03*
X1288002Y857001D02*
D03*
Y850001D02*
D03*
X1281002Y857001D02*
D03*
Y850001D02*
D03*
X1274002Y857001D02*
D03*
Y850001D02*
D03*
X1267002Y857001D02*
D03*
Y850001D02*
D03*
Y808001D02*
D03*
Y801001D02*
D03*
Y717001D02*
D03*
Y710001D02*
D03*
Y626001D02*
D03*
Y619001D02*
D03*
Y535001D02*
D03*
Y528001D02*
D03*
X1260002Y808001D02*
D03*
Y801001D02*
D03*
Y717001D02*
D03*
Y710001D02*
D03*
Y626001D02*
D03*
Y619001D02*
D03*
Y535001D02*
D03*
Y528001D02*
D03*
X1440000Y488000D02*
D03*
X1425000D02*
D03*
X1395000D02*
D03*
X1365000Y548000D02*
D03*
Y518000D02*
D03*
Y488000D02*
D03*
X1350000Y548000D02*
D03*
X1357500Y533000D02*
D03*
X1350000Y518000D02*
D03*
X1357500Y503000D02*
D03*
X1350000Y488000D02*
D03*
X1335000D02*
D03*
X1450001Y640000D02*
D03*
Y600000D02*
D03*
X1410001Y640000D02*
D03*
X1400001Y620000D02*
D03*
X1410001Y600000D02*
D03*
X1400001Y580000D02*
D03*
X1390001Y640000D02*
D03*
X1380001Y620000D02*
D03*
X1390001Y600000D02*
D03*
X1380001Y580000D02*
D03*
X1370001Y640000D02*
D03*
X1360001Y620000D02*
D03*
X1370001Y600000D02*
D03*
X1360001Y580000D02*
D03*
X1350001Y640000D02*
D03*
Y600000D02*
D03*
X1450001Y740000D02*
D03*
Y700000D02*
D03*
X1440001Y680000D02*
D03*
X1410001Y740000D02*
D03*
X1400001Y720000D02*
D03*
X1410001Y700000D02*
D03*
X1400001Y680000D02*
D03*
X1390001Y740000D02*
D03*
X1380001Y720000D02*
D03*
X1390001Y700000D02*
D03*
X1380001Y680000D02*
D03*
X1370001Y740000D02*
D03*
X1360001Y720000D02*
D03*
X1370001Y700000D02*
D03*
X1360001Y680000D02*
D03*
X1350001Y700000D02*
D03*
X1340001Y680000D02*
D03*
X1447500Y840000D02*
D03*
X1432500D02*
D03*
X1417500D02*
D03*
X1402500D02*
D03*
X1387500D02*
D03*
X1372500D02*
D03*
X1365000Y825000D02*
D03*
Y795000D02*
D03*
Y765000D02*
D03*
X1357500Y840000D02*
D03*
X1350000Y825000D02*
D03*
X1357500Y810000D02*
D03*
X1350000Y795000D02*
D03*
X1357500Y780000D02*
D03*
X1342500Y840000D02*
D03*
X1327500D02*
D03*
X1286510Y931279D02*
D03*
X1052830Y862960D02*
D03*
X976630Y812800D02*
D03*
X735330Y614680D02*
D03*
X755650Y969010D02*
D03*
X737870D02*
D03*
X1197610Y948420D02*
D03*
X762560Y605924D02*
D03*
X772560Y598924D02*
D03*
X777560Y591924D02*
D03*
X767560Y584924D02*
D03*
X734957Y681370D02*
D03*
X734060Y725170D02*
D03*
X727560Y808990D02*
D03*
X793473Y821600D02*
D03*
X800250Y815646D02*
D03*
X863600Y808990D02*
D03*
X858560Y629920D02*
D03*
X795020Y631190D02*
D03*
X792560Y621030D02*
D03*
X732790Y633730D02*
D03*
X698500Y665480D02*
D03*
Y731520D02*
D03*
X678180Y851380D02*
D03*
X842010Y566420D02*
D03*
X828280D02*
D03*
X1156970Y661670D02*
D03*
X763700Y892810D02*
D03*
X785700D02*
D03*
X914400Y550060D02*
D03*
X928280Y492850D02*
D03*
X915520D02*
D03*
X652780Y514350D02*
D03*
X646430Y508638D02*
D03*
X678180Y897100D02*
D03*
Y805660D02*
D03*
X822560Y837800D02*
D03*
X827560Y831850D02*
D03*
X842560Y825500D02*
D03*
X852560Y817880D02*
D03*
D71*
X1263650Y483870D02*
D03*
D72*
X1097280Y736086D02*
D03*
D73*
X678180Y759940D02*
D03*
M02*
